  0
SECTION
  2
HEADER
  9
$ACADVER
  1
AC1015
  9
$ACADMAINTVER
 70
    20
  9
$DWGCODEPAGE
  3
ANSI_1252
  9
$INSBASE
 10
0.0
 20
0.0
 30
0.0
  9
$EXTMIN
 10
-1160.3478
 20
-867.0
 30
0.0
  9
$EXTMAX
 10
-190.7683
 20
806.0
 30
0.0
  9
$LIMMIN
 10
-1160.3478
 20
-867.0
  9
$LIMMAX
 10
-190.7683
 20
806.0
  9
$ORTHOMODE
 70
     0
  9
$REGENMODE
 70
     1
  9
$FILLMODE
 70
     1
  9
$QTEXTMODE
 70
     0
  9
$MIRRTEXT
 70
     0
  9
$LTSCALE
 40
1.0
  9
$ATTMODE
 70
     1
  9
$TEXTSIZE
 40
2.5
  9
$TRACEWID
 40
1.0
  9
$TEXTSTYLE
  7
Standard
  9
$CLAYER
  8
0
  9
$CELTYPE
  6
ByLayer
  9
$CECOLOR
 62
   256
  9
$CELTSCALE
 40
1.0
  9
$DISPSILH
 70
     0
  9
$DIMSCALE
 40
1.0
  9
$DIMASZ
 40
2.5
  9
$DIMEXO
 40
0.625
  9
$DIMDLI
 40
3.75
  9
$DIMRND
 40
0.0
  9
$DIMDLE
 40
0.0
  9
$DIMEXE
 40
1.25
  9
$DIMTP
 40
0.0
  9
$DIMTM
 40
0.0
  9
$DIMTXT
 40
2.5
  9
$DIMCEN
 40
2.5
  9
$DIMTSZ
 40
0.0
  9
$DIMTOL
 70
     0
  9
$DIMLIM
 70
     0
  9
$DIMTIH
 70
     0
  9
$DIMTOH
 70
     0
  9
$DIMSE1
 70
     0
  9
$DIMSE2
 70
     0
  9
$DIMTAD
 70
     1
  9
$DIMZIN
 70
     8
  9
$DIMBLK
  1

  9
$DIMASO
 70
     1
  9
$DIMSHO
 70
     1
  9
$DIMPOST
  1

  9
$DIMAPOST
  1

  9
$DIMALT
 70
     0
  9
$DIMALTD
 70
     3
  9
$DIMALTF
 40
0.03937007874
  9
$DIMLFAC
 40
1.0
  9
$DIMTOFL
 70
     1
  9
$DIMTVP
 40
0.0
  9
$DIMTIX
 70
     0
  9
$DIMSOXD
 70
     0
  9
$DIMSAH
 70
     0
  9
$DIMBLK1
  1

  9
$DIMBLK2
  1

  9
$DIMSTYLE
  2
ISO-25
  9
$DIMCLRD
 70
     0
  9
$DIMCLRE
 70
     0
  9
$DIMCLRT
 70
     0
  9
$DIMTFAC
 40
1.0
  9
$DIMGAP
 40
0.625
  9
$DIMJUST
 70
     0
  9
$DIMSD1
 70
     0
  9
$DIMSD2
 70
     0
  9
$DIMTOLJ
 70
     0
  9
$DIMTZIN
 70
     8
  9
$DIMALTZ
 70
     0
  9
$DIMALTTZ
 70
     0
  9
$DIMUPT
 70
     0
  9
$DIMDEC
 70
     2
  9
$DIMTDEC
 70
     2
  9
$DIMALTU
 70
     2
  9
$DIMALTTD
 70
     3
  9
$DIMTXSTY
  7
Standard
  9
$DIMAUNIT
 70
     0
  9
$DIMADEC
 70
     0
  9
$DIMALTRND
 40
0.0
  9
$DIMAZIN
 70
     0
  9
$DIMDSEP
 70
    46
  9
$DIMATFIT
 70
     3
  9
$DIMFRAC
 70
     0
  9
$DIMLDRBLK
  1

  9
$DIMLUNIT
 70
     2
  9
$DIMLWD
 70
    -2
  9
$DIMLWE
 70
    -2
  9
$DIMTMOVE
 70
     0
  9
$LUNITS
 70
     2
  9
$LUPREC
 70
     4
  9
$SKETCHINC
 40
1.0
  9
$FILLETRAD
 40
0.0
  9
$AUNITS
 70
     0
  9
$AUPREC
 70
     0
  9
$MENU
  1
.
  9
$ELEVATION
 40
0.0
  9
$PELEVATION
 40
0.0
  9
$THICKNESS
 40
0.0
  9
$LIMCHECK
 70
     0
  9
$CHAMFERA
 40
0.0
  9
$CHAMFERB
 40
0.0
  9
$CHAMFERC
 40
0.0
  9
$CHAMFERD
 40
0.0
  9
$SKPOLY
 70
     0
  9
$TDCREATE
 40
2456236.994979560841
  9
$TDUCREATE
 40
2456237.328312892932
  9
$TDUPDATE
 40
2456236.997909063008
  9
$TDUUPDATE
 40
2456237.331242396031
  9
$TDINDWG
 40
0.0029298727
  9
$TDUSRTIMER
 40
0.0029298727
  9
$USRTIMER
 70
     1
  9
$ANGBASE
 50
0.0
  9
$ANGDIR
 70
     0
  9
$PDMODE
 70
     0
  9
$PDSIZE
 40
0.0
  9
$PLINEWID
 40
0.0
  9
$SPLFRAME
 70
     0
  9
$SPLINETYPE
 70
     6
  9
$SPLINESEGS
 70
     8
  9
$HANDSEED
  5
125
  9
$SURFTAB1
 70
     6
  9
$SURFTAB2
 70
     6
  9
$SURFTYPE
 70
     6
  9
$SURFU
 70
     6
  9
$SURFV
 70
     6
  9
$UCSBASE
  2

  9
$UCSNAME
  2

  9
$UCSORG
 10
0.0
 20
0.0
 30
0.0
  9
$UCSXDIR
 10
1.0
 20
0.0
 30
0.0
  9
$UCSYDIR
 10
0.0
 20
1.0
 30
0.0
  9
$UCSORTHOREF
  2

  9
$UCSORTHOVIEW
 70
     0
  9
$UCSORGTOP
 10
0.0
 20
0.0
 30
0.0
  9
$UCSORGBOTTOM
 10
0.0
 20
0.0
 30
0.0
  9
$UCSORGLEFT
 10
0.0
 20
0.0
 30
0.0
  9
$UCSORGRIGHT
 10
0.0
 20
0.0
 30
0.0
  9
$UCSORGFRONT
 10
0.0
 20
0.0
 30
0.0
  9
$UCSORGBACK
 10
0.0
 20
0.0
 30
0.0
  9
$PUCSBASE
  2

  9
$PUCSNAME
  2

  9
$PUCSORG
 10
0.0
 20
0.0
 30
0.0
  9
$PUCSXDIR
 10
1.0
 20
0.0
 30
0.0
  9
$PUCSYDIR
 10
0.0
 20
1.0
 30
0.0
  9
$PUCSORTHOREF
  2

  9
$PUCSORTHOVIEW
 70
     0
  9
$PUCSORGTOP
 10
0.0
 20
0.0
 30
0.0
  9
$PUCSORGBOTTOM
 10
0.0
 20
0.0
 30
0.0
  9
$PUCSORGLEFT
 10
0.0
 20
0.0
 30
0.0
  9
$PUCSORGRIGHT
 10
0.0
 20
0.0
 30
0.0
  9
$PUCSORGFRONT
 10
0.0
 20
0.0
 30
0.0
  9
$PUCSORGBACK
 10
0.0
 20
0.0
 30
0.0
  9
$USERI1
 70
     0
  9
$USERI2
 70
     0
  9
$USERI3
 70
     0
  9
$USERI4
 70
     0
  9
$USERI5
 70
     0
  9
$USERR1
 40
0.0
  9
$USERR2
 40
0.0
  9
$USERR3
 40
0.0
  9
$USERR4
 40
0.0
  9
$USERR5
 40
0.0
  9
$WORLDVIEW
 70
     1
  9
$SHADEDGE
 70
     3
  9
$SHADEDIF
 70
    70
  9
$TILEMODE
 70
     1
  9
$MAXACTVP
 70
    64
  9
$PINSBASE
 10
0.0
 20
0.0
 30
0.0
  9
$PLIMCHECK
 70
     0
  9
$PEXTMIN
 10
100000000000000000000.0
 20
100000000000000000000.0
 30
100000000000000000000.0
  9
$PEXTMAX
 10
-100000000000000000000.0
 20
-100000000000000000000.0
 30
-100000000000000000000.0
  9
$PLIMMIN
 10
0.0
 20
0.0
  9
$PLIMMAX
 10
420.0
 20
297.0
  9
$UNITMODE
 70
     0
  9
$VISRETAIN
 70
     1
  9
$PLINEGEN
 70
     0
  9
$PSLTSCALE
 70
     1
  9
$TREEDEPTH
 70
  3020
  9
$CMLSTYLE
  2
Standard
  9
$CMLJUST
 70
     0
  9
$CMLSCALE
 40
20.0
  9
$PROXYGRAPHICS
 70
     1
  9
$MEASUREMENT
 70
     1
  9
$CELWEIGHT
370
-1
  9
$ENDCAPS
280
     0
  9
$JOINSTYLE
280
     0
  9
$LWDISPLAY
290
0
  9
$INSUNITS
 70
     4
  9
$HYPERLINKBASE
  1

  9
$STYLESHEET
  1

  9
$XEDIT
290
1
  9
$CEPSNTYPE
380
0
  9
$PSTYLEMODE
290
1
  9
$FINGERPRINTGUID
  2
{9F64BE1D-7005-473A-A8E1-C681473DCB35}
  9
$VERSIONGUID
  2
{14C65E86-4364-4B17-B71B-D4CF0DEE0ACB}
  9
$EXTNAMES
290
1
  9
$PSVPSCALE
 40
0.0
  9
$OLESTARTUP
290
0
  0
ENDSEC
  0
SECTION
  2
CLASSES
  0
CLASS
  1
ACDBDICTIONARYWDFLT
  2
AcDbDictionaryWithDefault
  3
ObjectDBX Classes
 90
     0
280
     0
281
     0
  0
CLASS
  1
MATERIAL
  2
AcDbMaterial
  3
ObjectDBX Classes
 90
  1153
280
     0
281
     0
  0
CLASS
  1
VISUALSTYLE
  2
AcDbVisualStyle
  3
ObjectDBX Classes
 90
  4095
280
     0
281
     0
  0
CLASS
  1
SCALE
  2
AcDbScale
  3
ObjectDBX Classes
 90
  1153
280
     0
281
     0
  0
CLASS
  1
TABLESTYLE
  2
AcDbTableStyle
  3
ObjectDBX Classes
 90
  4095
280
     0
281
     0
  0
CLASS
  1
MLEADERSTYLE
  2
AcDbMLeaderStyle
  3
ACDB_MLEADERSTYLE_CLASS
 90
  4095
280
     0
281
     0
  0
CLASS
  1
DICTIONARYVAR
  2
AcDbDictionaryVar
  3
ObjectDBX Classes
 90
     0
280
     0
281
     0
  0
CLASS
  1
CELLSTYLEMAP
  2
AcDbCellStyleMap
  3
ObjectDBX Classes
 90
  1152
280
     0
281
     0
  0
CLASS
  1
ACDBPLACEHOLDER
  2
AcDbPlaceHolder
  3
ObjectDBX Classes
 90
     0
280
     0
281
     0
  0
CLASS
  1
LAYOUT
  2
AcDbLayout
  3
ObjectDBX Classes
 90
     0
280
     0
281
     0
  0
ENDSEC
  0
SECTION
  2
TABLES
  0
TABLE
  2
VPORT
  5
8
330
0
100
AcDbSymbolTable
 70
     1
  0
VPORT
  5
5F
330
8
100
AcDbSymbolTableRecord
100
AcDbViewportTableRecord
  2
*Active
 70
     0
 10
0.0
 20
0.0
 11
1.0
 21
1.0
 12
362.004492939666
 22
148.5
 13
0.0
 23
0.0
 14
10.0
 24
10.0
 15
10.0
 25
10.0
 16
0.0
 26
0.0
 36
1.0
 17
-1160.3478
 27
-867.0
 37
0.0
 40
297.0
 41
2.437740693196
 42
50.0
 43
0.0
 44
0.0
 50
0.0
 51
0.0
 71
     0
 72
  1000
 73
     1
 74
     3
 75
     0
 76
     0
 77
     0
 78
     0
281
     0
 65
     1
110
0.0
120
0.0
130
0.0
111
1.0
121
0.0
131
0.0
112
0.0
122
1.0
132
0.0
 79
     0
146
0.0
  0
ENDTAB
  0
TABLE
  2
LTYPE
  5
5
330
0
100
AcDbSymbolTable
 70
     3
  0
LTYPE
  5
63
330
5
100
AcDbSymbolTableRecord
100
AcDbLinetypeTableRecord
  2
ByBlock
 70
     0
  3

 72
    65
 73
     0
 40
0.0
  0
LTYPE
  5
64
330
5
100
AcDbSymbolTableRecord
100
AcDbLinetypeTableRecord
  2
ByLayer
 70
     0
  3

 72
    65
 73
     0
 40
0.0
  0
LTYPE
  5
65
330
5
100
AcDbSymbolTableRecord
100
AcDbLinetypeTableRecord
  2
Continuous
 70
     0
  3
Solid line
 72
    65
 73
     0
 40
0.0
  0
ENDTAB
  0
TABLE
  2
LAYER
  5
2
330
0
100
AcDbSymbolTable
 70
     2
  0
LAYER
  5
5C
102
{ACAD_XDICTIONARY
360
9A
102
}
330
2
100
AcDbSymbolTableRecord
100
AcDbLayerTableRecord
 70
     0
  6
Continuous
370
-3
390
F
  2
0
 62
     7
  0
LAYER
  5
b8
100
AcDbSymbolTableRecord
100
AcDbLayerTableRecord
  6
Continuous
 70
     0
370
-3
390
F
  2
Layer_1
 62
     7
  0
ENDTAB
  0
TABLE
  2
STYLE
  5
3
330
0
100
AcDbSymbolTable
 70
     3
  0
STYLE
  5
5D
330
3
100
AcDbSymbolTableRecord
100
AcDbTextStyleTableRecord
  2
Standard
 70
     0
 40
0.0
 41
1.0
 50
0.0
 71
     0
 42
2.5
  3
txt
  4

  0
STYLE
  5
62
330
3
100
AcDbSymbolTableRecord
100
AcDbTextStyleTableRecord
  2
Annotative
 70
     0
 40
0.0
 41
1.0
 50
0.0
 71
     0
 42
0.2
  3

  4

1001
AcadAnnotative
1000
AnnotativeData
1002
{
1070
     1
1070
     1
1002
}
  0
STYLE
  5
b9
100
AcDbSymbolTableRecord
100
AcDbTextStyleTableRecord
  2
TextStyle0
 70
     0
 40
0.0
 41
1.0
 50
0.0
 71
     0
 42
1.0
  3
arial.ttf
  4

1001
ACAD
1000
Arial
1071
     0
  0
ENDTAB
  0
TABLE
  2
VIEW
  5
6
330
0
100
AcDbSymbolTable
 70
     0
  0
ENDTAB
  0
TABLE
  2
UCS
  5
7
330
0
100
AcDbSymbolTable
 70
     0
  0
ENDTAB
  0
TABLE
  2
APPID
  5
9
330
0
100
AcDbSymbolTable
 70
     5
  0
APPID
  5
5E
330
9
100
AcDbSymbolTableRecord
100
AcDbRegAppTableRecord
  2
ACAD
 70
     0
  0
APPID
  5
66
330
9
100
AcDbSymbolTableRecord
100
AcDbRegAppTableRecord
  2
AcadAnnotative
 70
     0
  0
APPID
  5
70
330
9
100
AcDbSymbolTableRecord
100
AcDbRegAppTableRecord
  2
ACAD_MLEADERVER
 70
     0
  0
APPID
  5
80
330
9
100
AcDbSymbolTableRecord
100
AcDbRegAppTableRecord
  2
ACAD_EXEMPT_FROM_CAD_STANDARDS
 70
     0
  0
APPID
  5
AF
330
9
100
AcDbSymbolTableRecord
100
AcDbRegAppTableRecord
  2
ACAD_DSTYLE_DIMJOGGED_JOGANGLE_SYMBOL
 70
     0
  0
ENDTAB
  0
TABLE
  2
DIMSTYLE
  5
A
330
0
100
AcDbSymbolTable
100
AcDbDimStyleTable
 71
     1
340
60
 70
     3
  0
DIMSTYLE
105
ba
330
A
100
AcDbSymbolTableRecord
100
AcDbDimStyleTableRecord
  2
ISO-25
 70
     0
 41
2.5
 42
0.625
 43
3.75
 44
1.25
 73
     0
 74
     0
 77
     1
 78
     8
140
2.5
141
2.5
143
0.03937007874
147
0.625
171
     3
172
     1
271
     2
272
     2
274
     3
278
44
283
     0
284
     8
340
5D
1001
ACAD_DSTYLE_DIMJOGGED_JOGANGLE_SYMBOL
1070
   384
1040
1.570796326794896
  0
DIMSTYLE
105
bb
330
A
100
AcDbSymbolTableRecord
100
AcDbDimStyleTableRecord
  2
Annotative
 70
     0
340
5D
1001
AcadAnnotative
1000
AnnotativeData
1002
{
1070
     1
1070
     1
1002
}
  0
DIMSTYLE
105
bc
100
AcDbSymbolTableRecord
100
AcDbDimStyleTableRecord
  2
DimStyle0
 70
     0
 41
1.0
 42
0.3
 44
0.5
140
1.0
 73
     0
 77
     0
 78
     0
271
     2
277
2
278
46
340
b9
  0
ENDTAB
  0
TABLE
  2
BLOCK_RECORD
  5
1
330
0
100
AcDbSymbolTable
 70
     3
  0
BLOCK_RECORD
  5
75
330
1
100
AcDbSymbolTableRecord
100
AcDbBlockTableRecord
  2
*Model_Space
340
78
  0
BLOCK_RECORD
  5
71
330
1
100
AcDbSymbolTableRecord
100
AcDbBlockTableRecord
  2
*Paper_Space
340
74
  0
BLOCK_RECORD
  5
79
330
1
100
AcDbSymbolTableRecord
100
AcDbBlockTableRecord
  2
*Paper_Space0
340
7C
  0
ENDTAB
  0
ENDSEC
  0
SECTION
  2
BLOCKS
  0
BLOCK
  5
76
102
{ACAD_REACTORS
330
75
102
}
100
AcDbEntity
  8
0
100
AcDbBlockBegin
  2
*Model_Space
 70
     0
 10
0.0
 20
0.0
 30
0.0
  3
*Model_Space
  1

  0
ENDBLK
  5
77
102
{ACAD_REACTORS
330
75
102
}
100
AcDbEntity
  8
0
100
AcDbBlockEnd
  0
BLOCK
  5
72
102
{ACAD_REACTORS
330
71
102
}
100
AcDbEntity
 67
     1
  8
0
100
AcDbBlockBegin
  2
*Paper_Space
 70
     0
 10
0.0
 20
0.0
 30
0.0
  3
*Paper_Space
  1

  0
ENDBLK
  5
73
102
{ACAD_REACTORS
330
71
102
}
100
AcDbEntity
 67
     1
  8
0
100
AcDbBlockEnd
  0
BLOCK
  5
7A
102
{ACAD_REACTORS
330
79
102
}
100
AcDbEntity
 67
     1
  8
0
100
AcDbBlockBegin
  2
*Paper_Space0
 70
     0
 10
0.0
 20
0.0
 30
0.0
  3
*Paper_Space0
  1

  0
ENDBLK
  5
7B
102
{ACAD_REACTORS
330
79
102
}
100
AcDbEntity
 67
     1
  8
0
100
AcDbBlockEnd
  0
ENDSEC
  0
SECTION
  2
ENTITIES
  0
SPLINE
  5
bd
100
AcDbEntity
  8
Layer_1
100
AcDbSpline
 70
     9
 71
     3
 72
    17
 73
    13
 74
     0
 42
0.0000001
 43
0.0000001
 40
0.0
 40
0.0
 40
0.0
 40
0.0
 40
1.0
 40
1.0
 40
1.0
 40
2.0
 40
2.0
 40
2.0
 40
3.0
 40
3.0
 40
3.0
 40
4.0
 40
4.0
 40
4.0
 40
4.0
 10
-971.4643
 20
-90.8737
 30
0.0
 10
-971.4643
 20
-89.493
 30
0.0
 10
-972.5836
 20
-88.3737
 30
0.0
 10
-973.9643
 20
-88.3737
 30
0.0
 10
-975.345
 20
-88.3737
 30
0.0
 10
-976.4643
 20
-89.493
 30
0.0
 10
-976.4643
 20
-90.8737
 30
0.0
 10
-976.4643
 20
-92.2544
 30
0.0
 10
-975.345
 20
-93.3737
 30
0.0
 10
-973.9643
 20
-93.3737
 30
0.0
 10
-972.5836
 20
-93.3737
 30
0.0
 10
-971.4643
 20
-92.2544
 30
0.0
 10
-971.4643
 20
-90.8737
 30
0.0
  0
SPLINE
  5
be
100
AcDbEntity
  8
Layer_1
100
AcDbSpline
 70
     9
 71
     3
 72
    17
 73
    13
 74
     0
 42
0.0000001
 43
0.0000001
 40
0.0
 40
0.0
 40
0.0
 40
0.0
 40
1.0
 40
1.0
 40
1.0
 40
2.0
 40
2.0
 40
2.0
 40
3.0
 40
3.0
 40
3.0
 40
4.0
 40
4.0
 40
4.0
 40
4.0
 10
-1096.4643
 20
34.1263
 30
0.0
 10
-1096.4643
 20
35.507
 30
0.0
 10
-1097.5836
 20
36.6263
 30
0.0
 10
-1098.9643
 20
36.6263
 30
0.0
 10
-1100.345
 20
36.6263
 30
0.0
 10
-1101.4643
 20
35.507
 30
0.0
 10
-1101.4643
 20
34.1263
 30
0.0
 10
-1101.4643
 20
32.7456
 30
0.0
 10
-1100.345
 20
31.6263
 30
0.0
 10
-1098.9643
 20
31.6263
 30
0.0
 10
-1097.5836
 20
31.6263
 30
0.0
 10
-1096.4643
 20
32.7456
 30
0.0
 10
-1096.4643
 20
34.1263
 30
0.0
  0
SPLINE
  5
bf
100
AcDbEntity
  8
Layer_1
100
AcDbSpline
 70
     9
 71
     3
 72
    17
 73
    13
 74
     0
 42
0.0000001
 43
0.0000001
 40
0.0
 40
0.0
 40
0.0
 40
0.0
 40
1.0
 40
1.0
 40
1.0
 40
2.0
 40
2.0
 40
2.0
 40
3.0
 40
3.0
 40
3.0
 40
4.0
 40
4.0
 40
4.0
 40
4.0
 10
-971.4643
 20
34.1263
 30
0.0
 10
-971.4643
 20
35.507
 30
0.0
 10
-972.5836
 20
36.6263
 30
0.0
 10
-973.9643
 20
36.6263
 30
0.0
 10
-975.345
 20
36.6263
 30
0.0
 10
-976.4643
 20
35.507
 30
0.0
 10
-976.4643
 20
34.1263
 30
0.0
 10
-976.4643
 20
32.7456
 30
0.0
 10
-975.345
 20
31.6263
 30
0.0
 10
-973.9643
 20
31.6263
 30
0.0
 10
-972.5836
 20
31.6263
 30
0.0
 10
-971.4643
 20
32.7456
 30
0.0
 10
-971.4643
 20
34.1263
 30
0.0
  0
SPLINE
  5
c0
100
AcDbEntity
  8
Layer_1
100
AcDbSpline
 70
     9
 71
     3
 72
    17
 73
    13
 74
     0
 42
0.0000001
 43
0.0000001
 40
0.0
 40
0.0
 40
0.0
 40
0.0
 40
1.0
 40
1.0
 40
1.0
 40
2.0
 40
2.0
 40
2.0
 40
3.0
 40
3.0
 40
3.0
 40
4.0
 40
4.0
 40
4.0
 40
4.0
 10
-1096.4643
 20
-90.8737
 30
0.0
 10
-1096.4643
 20
-89.493
 30
0.0
 10
-1097.5836
 20
-88.3737
 30
0.0
 10
-1098.9643
 20
-88.3737
 30
0.0
 10
-1100.345
 20
-88.3737
 30
0.0
 10
-1101.4643
 20
-89.493
 30
0.0
 10
-1101.4643
 20
-90.8737
 30
0.0
 10
-1101.4643
 20
-92.2544
 30
0.0
 10
-1100.345
 20
-93.3737
 30
0.0
 10
-1098.9643
 20
-93.3737
 30
0.0
 10
-1097.5836
 20
-93.3737
 30
0.0
 10
-1096.4643
 20
-92.2544
 30
0.0
 10
-1096.4643
 20
-90.8737
 30
0.0
  0
SPLINE
  5
c1
100
AcDbEntity
  8
Layer_1
100
AcDbSpline
 70
     9
 71
     3
 72
    17
 73
    13
 74
     0
 42
0.0000001
 43
0.0000001
 40
0.0
 40
0.0
 40
0.0
 40
0.0
 40
1.0
 40
1.0
 40
1.0
 40
2.0
 40
2.0
 40
2.0
 40
3.0
 40
3.0
 40
3.0
 40
4.0
 40
4.0
 40
4.0
 40
4.0
 10
-971.4643
 20
-242.8737
 30
0.0
 10
-971.4643
 20
-241.493
 30
0.0
 10
-972.5836
 20
-240.3737
 30
0.0
 10
-973.9643
 20
-240.3737
 30
0.0
 10
-975.345
 20
-240.3737
 30
0.0
 10
-976.4643
 20
-241.493
 30
0.0
 10
-976.4643
 20
-242.8737
 30
0.0
 10
-976.4643
 20
-244.2544
 30
0.0
 10
-975.345
 20
-245.3737
 30
0.0
 10
-973.9643
 20
-245.3737
 30
0.0
 10
-972.5836
 20
-245.3737
 30
0.0
 10
-971.4643
 20
-244.2544
 30
0.0
 10
-971.4643
 20
-242.8737
 30
0.0
  0
SPLINE
  5
c2
100
AcDbEntity
  8
Layer_1
100
AcDbSpline
 70
     9
 71
     3
 72
    17
 73
    13
 74
     0
 42
0.0000001
 43
0.0000001
 40
0.0
 40
0.0
 40
0.0
 40
0.0
 40
1.0
 40
1.0
 40
1.0
 40
2.0
 40
2.0
 40
2.0
 40
3.0
 40
3.0
 40
3.0
 40
4.0
 40
4.0
 40
4.0
 40
4.0
 10
-1096.4643
 20
-117.8737
 30
0.0
 10
-1096.4643
 20
-116.493
 30
0.0
 10
-1097.5836
 20
-115.3737
 30
0.0
 10
-1098.9643
 20
-115.3737
 30
0.0
 10
-1100.345
 20
-115.3737
 30
0.0
 10
-1101.4643
 20
-116.493
 30
0.0
 10
-1101.4643
 20
-117.8737
 30
0.0
 10
-1101.4643
 20
-119.2544
 30
0.0
 10
-1100.345
 20
-120.3737
 30
0.0
 10
-1098.9643
 20
-120.3737
 30
0.0
 10
-1097.5836
 20
-120.3737
 30
0.0
 10
-1096.4643
 20
-119.2544
 30
0.0
 10
-1096.4643
 20
-117.8737
 30
0.0
  0
SPLINE
  5
c3
100
AcDbEntity
  8
Layer_1
100
AcDbSpline
 70
     9
 71
     3
 72
    17
 73
    13
 74
     0
 42
0.0000001
 43
0.0000001
 40
0.0
 40
0.0
 40
0.0
 40
0.0
 40
1.0
 40
1.0
 40
1.0
 40
2.0
 40
2.0
 40
2.0
 40
3.0
 40
3.0
 40
3.0
 40
4.0
 40
4.0
 40
4.0
 40
4.0
 10
-971.4643
 20
-117.8737
 30
0.0
 10
-971.4643
 20
-116.493
 30
0.0
 10
-972.5836
 20
-115.3737
 30
0.0
 10
-973.9643
 20
-115.3737
 30
0.0
 10
-975.345
 20
-115.3737
 30
0.0
 10
-976.4643
 20
-116.493
 30
0.0
 10
-976.4643
 20
-117.8737
 30
0.0
 10
-976.4643
 20
-119.2544
 30
0.0
 10
-975.345
 20
-120.3737
 30
0.0
 10
-973.9643
 20
-120.3737
 30
0.0
 10
-972.5836
 20
-120.3737
 30
0.0
 10
-971.4643
 20
-119.2544
 30
0.0
 10
-971.4643
 20
-117.8737
 30
0.0
  0
SPLINE
  5
c4
100
AcDbEntity
  8
Layer_1
100
AcDbSpline
 70
     9
 71
     3
 72
    17
 73
    13
 74
     0
 42
0.0000001
 43
0.0000001
 40
0.0
 40
0.0
 40
0.0
 40
0.0
 40
1.0
 40
1.0
 40
1.0
 40
2.0
 40
2.0
 40
2.0
 40
3.0
 40
3.0
 40
3.0
 40
4.0
 40
4.0
 40
4.0
 40
4.0
 10
-1096.4643
 20
-242.8737
 30
0.0
 10
-1096.4643
 20
-241.493
 30
0.0
 10
-1097.5836
 20
-240.3737
 30
0.0
 10
-1098.9643
 20
-240.3737
 30
0.0
 10
-1100.345
 20
-240.3737
 30
0.0
 10
-1101.4643
 20
-241.493
 30
0.0
 10
-1101.4643
 20
-242.8737
 30
0.0
 10
-1101.4643
 20
-244.2544
 30
0.0
 10
-1100.345
 20
-245.3737
 30
0.0
 10
-1098.9643
 20
-245.3737
 30
0.0
 10
-1097.5836
 20
-245.3737
 30
0.0
 10
-1096.4643
 20
-244.2544
 30
0.0
 10
-1096.4643
 20
-242.8737
 30
0.0
  0
SPLINE
  5
c5
100
AcDbEntity
  8
Layer_1
100
AcDbSpline
 70
     9
 71
     3
 72
    17
 73
    13
 74
     0
 42
0.0000001
 43
0.0000001
 40
0.0
 40
0.0
 40
0.0
 40
0.0
 40
1.0
 40
1.0
 40
1.0
 40
2.0
 40
2.0
 40
2.0
 40
3.0
 40
3.0
 40
3.0
 40
4.0
 40
4.0
 40
4.0
 40
4.0
 10
-971.4643
 20
61.1263
 30
0.0
 10
-971.4643
 20
62.507
 30
0.0
 10
-972.5836
 20
63.6263
 30
0.0
 10
-973.9643
 20
63.6263
 30
0.0
 10
-975.345
 20
63.6263
 30
0.0
 10
-976.4643
 20
62.507
 30
0.0
 10
-976.4643
 20
61.1263
 30
0.0
 10
-976.4643
 20
59.7456
 30
0.0
 10
-975.345
 20
58.6263
 30
0.0
 10
-973.9643
 20
58.6263
 30
0.0
 10
-972.5836
 20
58.6263
 30
0.0
 10
-971.4643
 20
59.7456
 30
0.0
 10
-971.4643
 20
61.1263
 30
0.0
  0
SPLINE
  5
c6
100
AcDbEntity
  8
Layer_1
100
AcDbSpline
 70
     9
 71
     3
 72
    17
 73
    13
 74
     0
 42
0.0000001
 43
0.0000001
 40
0.0
 40
0.0
 40
0.0
 40
0.0
 40
1.0
 40
1.0
 40
1.0
 40
2.0
 40
2.0
 40
2.0
 40
3.0
 40
3.0
 40
3.0
 40
4.0
 40
4.0
 40
4.0
 40
4.0
 10
-1096.4643
 20
186.1263
 30
0.0
 10
-1096.4643
 20
187.507
 30
0.0
 10
-1097.5836
 20
188.6263
 30
0.0
 10
-1098.9643
 20
188.6263
 30
0.0
 10
-1100.345
 20
188.6263
 30
0.0
 10
-1101.4643
 20
187.507
 30
0.0
 10
-1101.4643
 20
186.1263
 30
0.0
 10
-1101.4643
 20
184.7456
 30
0.0
 10
-1100.345
 20
183.6263
 30
0.0
 10
-1098.9643
 20
183.6263
 30
0.0
 10
-1097.5836
 20
183.6263
 30
0.0
 10
-1096.4643
 20
184.7456
 30
0.0
 10
-1096.4643
 20
186.1263
 30
0.0
  0
SPLINE
  5
c7
100
AcDbEntity
  8
Layer_1
100
AcDbSpline
 70
     9
 71
     3
 72
    17
 73
    13
 74
     0
 42
0.0000001
 43
0.0000001
 40
0.0
 40
0.0
 40
0.0
 40
0.0
 40
1.0
 40
1.0
 40
1.0
 40
2.0
 40
2.0
 40
2.0
 40
3.0
 40
3.0
 40
3.0
 40
4.0
 40
4.0
 40
4.0
 40
4.0
 10
-971.4643
 20
186.1263
 30
0.0
 10
-971.4643
 20
187.507
 30
0.0
 10
-972.5836
 20
188.6263
 30
0.0
 10
-973.9643
 20
188.6263
 30
0.0
 10
-975.345
 20
188.6263
 30
0.0
 10
-976.4643
 20
187.507
 30
0.0
 10
-976.4643
 20
186.1263
 30
0.0
 10
-976.4643
 20
184.7456
 30
0.0
 10
-975.345
 20
183.6263
 30
0.0
 10
-973.9643
 20
183.6263
 30
0.0
 10
-972.5836
 20
183.6263
 30
0.0
 10
-971.4643
 20
184.7456
 30
0.0
 10
-971.4643
 20
186.1263
 30
0.0
  0
SPLINE
  5
c8
100
AcDbEntity
  8
Layer_1
100
AcDbSpline
 70
     9
 71
     3
 72
    17
 73
    13
 74
     0
 42
0.0000001
 43
0.0000001
 40
0.0
 40
0.0
 40
0.0
 40
0.0
 40
1.0
 40
1.0
 40
1.0
 40
2.0
 40
2.0
 40
2.0
 40
3.0
 40
3.0
 40
3.0
 40
4.0
 40
4.0
 40
4.0
 40
4.0
 10
-1096.4643
 20
61.1263
 30
0.0
 10
-1096.4643
 20
62.507
 30
0.0
 10
-1097.5836
 20
63.6263
 30
0.0
 10
-1098.9643
 20
63.6263
 30
0.0
 10
-1100.345
 20
63.6263
 30
0.0
 10
-1101.4643
 20
62.507
 30
0.0
 10
-1101.4643
 20
61.1263
 30
0.0
 10
-1101.4643
 20
59.7456
 30
0.0
 10
-1100.345
 20
58.6263
 30
0.0
 10
-1098.9643
 20
58.6263
 30
0.0
 10
-1097.5836
 20
58.6263
 30
0.0
 10
-1096.4643
 20
59.7456
 30
0.0
 10
-1096.4643
 20
61.1263
 30
0.0
  0
SPLINE
  5
c9
100
AcDbEntity
  8
Layer_1
100
AcDbSpline
 70
     9
 71
     3
 72
    17
 73
    13
 74
     0
 42
0.0000001
 43
0.0000001
 40
0.0
 40
0.0
 40
0.0
 40
0.0
 40
1.0
 40
1.0
 40
1.0
 40
2.0
 40
2.0
 40
2.0
 40
3.0
 40
3.0
 40
3.0
 40
4.0
 40
4.0
 40
4.0
 40
4.0
 10
-1036.4643
 20
190.6262
 30
0.0
 10
-999.4613
 20
190.6262
 30
0.0
 10
-969.4643
 20
160.6292
 30
0.0
 10
-969.4643
 20
123.6262
 30
0.0
 10
-969.4643
 20
86.6232
 30
0.0
 10
-999.4613
 20
56.6262
 30
0.0
 10
-1036.4643
 20
56.6262
 30
0.0
 10
-1073.4673
 20
56.6262
 30
0.0
 10
-1103.4643
 20
86.6232
 30
0.0
 10
-1103.4643
 20
123.6262
 30
0.0
 10
-1103.4643
 20
160.6292
 30
0.0
 10
-1073.4673
 20
190.6262
 30
0.0
 10
-1036.4643
 20
190.6262
 30
0.0
  0
SPLINE
  5
ca
100
AcDbEntity
  8
Layer_1
100
AcDbSpline
 70
     9
 71
     3
 72
    17
 73
    13
 74
     0
 42
0.0000001
 43
0.0000001
 40
0.0
 40
0.0
 40
0.0
 40
0.0
 40
1.0
 40
1.0
 40
1.0
 40
2.0
 40
2.0
 40
2.0
 40
3.0
 40
3.0
 40
3.0
 40
4.0
 40
4.0
 40
4.0
 40
4.0
 10
-1036.4643
 20
38.6263
 30
0.0
 10
-999.4613
 20
38.6263
 30
0.0
 10
-969.4643
 20
8.6293
 30
0.0
 10
-969.4643
 20
-28.3737
 30
0.0
 10
-969.4643
 20
-65.3767
 30
0.0
 10
-999.4613
 20
-95.3737
 30
0.0
 10
-1036.4643
 20
-95.3737
 30
0.0
 10
-1073.4673
 20
-95.3737
 30
0.0
 10
-1103.4643
 20
-65.3767
 30
0.0
 10
-1103.4643
 20
-28.3737
 30
0.0
 10
-1103.4643
 20
8.6293
 30
0.0
 10
-1073.4673
 20
38.6263
 30
0.0
 10
-1036.4643
 20
38.6263
 30
0.0
  0
SPLINE
  5
cb
100
AcDbEntity
  8
Layer_1
100
AcDbSpline
 70
     9
 71
     3
 72
    17
 73
    13
 74
     0
 42
0.0000001
 43
0.0000001
 40
0.0
 40
0.0
 40
0.0
 40
0.0
 40
1.0
 40
1.0
 40
1.0
 40
2.0
 40
2.0
 40
2.0
 40
3.0
 40
3.0
 40
3.0
 40
4.0
 40
4.0
 40
4.0
 40
4.0
 10
-1036.4643
 20
-113.3737
 30
0.0
 10
-999.4613
 20
-113.3737
 30
0.0
 10
-969.4643
 20
-143.3707
 30
0.0
 10
-969.4643
 20
-180.3737
 30
0.0
 10
-969.4643
 20
-217.3767
 30
0.0
 10
-999.4613
 20
-247.3737
 30
0.0
 10
-1036.4643
 20
-247.3737
 30
0.0
 10
-1073.4673
 20
-247.3737
 30
0.0
 10
-1103.4643
 20
-217.3767
 30
0.0
 10
-1103.4643
 20
-180.3737
 30
0.0
 10
-1103.4643
 20
-143.3707
 30
0.0
 10
-1073.4673
 20
-113.3737
 30
0.0
 10
-1036.4643
 20
-113.3737
 30
0.0
  0
SPLINE
  5
cc
100
AcDbEntity
  8
Layer_1
100
AcDbSpline
 70
     9
 71
     3
 72
   185
 73
   181
 74
     0
 42
0.0000001
 43
0.0000001
 40
0.0
 40
0.0
 40
0.0
 40
0.0
 40
1.0
 40
1.0
 40
1.0
 40
2.0
 40
2.0
 40
2.0
 40
3.0
 40
3.0
 40
3.0
 40
4.0
 40
4.0
 40
4.0
 40
5.0
 40
5.0
 40
5.0
 40
6.0
 40
6.0
 40
6.0
 40
7.0
 40
7.0
 40
7.0
 40
8.0
 40
8.0
 40
8.0
 40
9.0
 40
9.0
 40
9.0
 40
10.0
 40
10.0
 40
10.0
 40
11.0
 40
11.0
 40
11.0
 40
12.0
 40
12.0
 40
12.0
 40
13.0
 40
13.0
 40
13.0
 40
14.0
 40
14.0
 40
14.0
 40
15.0
 40
15.0
 40
15.0
 40
16.0
 40
16.0
 40
16.0
 40
17.0
 40
17.0
 40
17.0
 40
18.0
 40
18.0
 40
18.0
 40
19.0
 40
19.0
 40
19.0
 40
20.0
 40
20.0
 40
20.0
 40
21.0
 40
21.0
 40
21.0
 40
22.0
 40
22.0
 40
22.0
 40
23.0
 40
23.0
 40
23.0
 40
24.0
 40
24.0
 40
24.0
 40
25.0
 40
25.0
 40
25.0
 40
26.0
 40
26.0
 40
26.0
 40
27.0
 40
27.0
 40
27.0
 40
28.0
 40
28.0
 40
28.0
 40
29.0
 40
29.0
 40
29.0
 40
30.0
 40
30.0
 40
30.0
 40
31.0
 40
31.0
 40
31.0
 40
32.0
 40
32.0
 40
32.0
 40
33.0
 40
33.0
 40
33.0
 40
34.0
 40
34.0
 40
34.0
 40
35.0
 40
35.0
 40
35.0
 40
36.0
 40
36.0
 40
36.0
 40
37.0
 40
37.0
 40
37.0
 40
38.0
 40
38.0
 40
38.0
 40
39.0
 40
39.0
 40
39.0
 40
40.0
 40
40.0
 40
40.0
 40
41.0
 40
41.0
 40
41.0
 40
42.0
 40
42.0
 40
42.0
 40
43.0
 40
43.0
 40
43.0
 40
44.0
 40
44.0
 40
44.0
 40
45.0
 40
45.0
 40
45.0
 40
46.0
 40
46.0
 40
46.0
 40
47.0
 40
47.0
 40
47.0
 40
48.0
 40
48.0
 40
48.0
 40
49.0
 40
49.0
 40
49.0
 40
50.0
 40
50.0
 40
50.0
 40
51.0
 40
51.0
 40
51.0
 40
52.0
 40
52.0
 40
52.0
 40
53.0
 40
53.0
 40
53.0
 40
54.0
 40
54.0
 40
54.0
 40
55.0
 40
55.0
 40
55.0
 40
56.0
 40
56.0
 40
56.0
 40
57.0
 40
57.0
 40
57.0
 40
58.0
 40
58.0
 40
58.0
 40
59.0
 40
59.0
 40
59.0
 40
60.0
 40
60.0
 40
60.0
 40
60.0
 10
-1160.3478
 20
-270.3737
 30
0.0
 10
-1157.83203
 20
-270.3737
 30
0.0
 10
-1112.54817
 20
-270.3737
 30
0.0
 10
-1110.0324
 20
-270.3737
 30
0.0
 10
-1110.0324
 20
-270.5237
 30
0.0
 10
-1110.0324
 20
-273.2237
 30
0.0
 10
-1110.0324
 20
-273.3737
 30
0.0
 10
-1107.58013
 20
-273.3737
 30
0.0
 10
-1063.43927
 20
-273.3737
 30
0.0
 10
-1060.987
 20
-273.3737
 30
0.0
 10
-1060.987
 20
-273.2237
 30
0.0
 10
-1060.987
 20
-270.5237
 30
0.0
 10
-1060.987
 20
-270.3737
 30
0.0
 10
-1058.53473
 20
-270.3737
 30
0.0
 10
-1014.39387
 20
-270.3737
 30
0.0
 10
-1011.9416
 20
-270.3737
 30
0.0
 10
-1011.9416
 20
-270.5237
 30
0.0
 10
-1011.9416
 20
-273.2237
 30
0.0
 10
-1011.9416
 20
-273.3737
 30
0.0
 10
-1009.48933
 20
-273.3737
 30
0.0
 10
-965.34847
 20
-273.3737
 30
0.0
 10
-962.8962
 20
-273.3737
 30
0.0
 10
-962.8962
 20
-273.2237
 30
0.0
 10
-962.8962
 20
-270.5237
 30
0.0
 10
-962.8962
 20
-270.3737
 30
0.0
 10
-960.38043
 20
-270.3737
 30
0.0
 10
-915.09657
 20
-270.3737
 30
0.0
 10
-912.5808
 20
-270.3737
 30
0.0
 10
-912.5808
 20
-269.2687
 30
0.0
 10
-912.5808
 20
-249.3787
 30
0.0
 10
-912.5808
 20
-248.2737
 30
0.0
 10
-912.7308
 20
-248.2737
 30
0.0
 10
-915.4308
 20
-248.2737
 30
0.0
 10
-915.5808
 20
-248.2737
 30
0.0
 10
-915.5808
 20
-245.7637
 30
0.0
 10
-915.5808
 20
-200.5837
 30
0.0
 10
-915.5808
 20
-198.0737
 30
0.0
 10
-915.4308
 20
-198.0737
 30
0.0
 10
-912.7308
 20
-198.0737
 30
0.0
 10
-912.5808
 20
-198.0737
 30
0.0
 10
-912.5808
 20
-195.5637
 30
0.0
 10
-912.5808
 20
-150.3837
 30
0.0
 10
-912.5808
 20
-147.8737
 30
0.0
 10
-912.7308
 20
-147.8737
 30
0.0
 10
-915.4308
 20
-147.8737
 30
0.0
 10
-915.5808
 20
-147.8737
 30
0.0
 10
-915.5808
 20
-145.3637
 30
0.0
 10
-915.5808
 20
-100.1837
 30
0.0
 10
-915.5808
 20
-97.6737
 30
0.0
 10
-915.4308
 20
-97.6737
 30
0.0
 10
-912.7308
 20
-97.6737
 30
0.0
 10
-912.5808
 20
-97.6737
 30
0.0
 10
-912.5808
 20
-95.1637
 30
0.0
 10
-912.5808
 20
-49.9837
 30
0.0
 10
-912.5808
 20
-47.4737
 30
0.0
 10
-912.7308
 20
-47.4737
 30
0.0
 10
-915.4308
 20
-47.4737
 30
0.0
 10
-915.5808
 20
-47.4737
 30
0.0
 10
-915.5808
 20
-44.9637
 30
0.0
 10
-915.5808
 20
0.2163
 30
0.0
 10
-915.5808
 20
2.7263
 30
0.0
 10
-915.4308
 20
2.7263
 30
0.0
 10
-912.7308
 20
2.7263
 30
0.0
 10
-912.5808
 20
2.7263
 30
0.0
 10
-912.5808
 20
5.2363
 30
0.0
 10
-912.5808
 20
50.4163
 30
0.0
 10
-912.5808
 20
52.9263
 30
0.0
 10
-912.7308
 20
52.9263
 30
0.0
 10
-915.4308
 20
52.9263
 30
0.0
 10
-915.5808
 20
52.9263
 30
0.0
 10
-915.5808
 20
55.4363
 30
0.0
 10
-915.5808
 20
100.6163
 30
0.0
 10
-915.5808
 20
103.1263
 30
0.0
 10
-915.4308
 20
103.1263
 30
0.0
 10
-912.7308
 20
103.1263
 30
0.0
 10
-912.5808
 20
103.1263
 30
0.0
 10
-912.5808
 20
105.6363
 30
0.0
 10
-912.5808
 20
150.8163
 30
0.0
 10
-912.5808
 20
153.3263
 30
0.0
 10
-912.7308
 20
153.3263
 30
0.0
 10
-915.4308
 20
153.3263
 30
0.0
 10
-915.5808
 20
153.3263
 30
0.0
 10
-915.5808
 20
155.8363
 30
0.0
 10
-915.5808
 20
201.0163
 30
0.0
 10
-915.5808
 20
203.5263
 30
0.0
 10
-915.4308
 20
203.5263
 30
0.0
 10
-912.7308
 20
203.5263
 30
0.0
 10
-912.5808
 20
203.5263
 30
0.0
 10
-912.5808
 20
204.6313
 30
0.0
 10
-912.5808
 20
224.5213
 30
0.0
 10
-912.5808
 20
225.6263
 30
0.0
 10
-915.09657
 20
225.6263
 30
0.0
 10
-960.38043
 20
225.6263
 30
0.0
 10
-962.8962
 20
225.6263
 30
0.0
 10
-962.8962
 20
225.7763
 30
0.0
 10
-962.8962
 20
228.4763
 30
0.0
 10
-962.8962
 20
228.6263
 30
0.0
 10
-965.34847
 20
228.6263
 30
0.0
 10
-1009.48933
 20
228.6263
 30
0.0
 10
-1011.9416
 20
228.6263
 30
0.0
 10
-1011.9416
 20
228.4763
 30
0.0
 10
-1011.9416
 20
225.7763
 30
0.0
 10
-1011.9416
 20
225.6263
 30
0.0
 10
-1014.39387
 20
225.6263
 30
0.0
 10
-1058.53473
 20
225.6263
 30
0.0
 10
-1060.987
 20
225.6263
 30
0.0
 10
-1060.987
 20
225.7763
 30
0.0
 10
-1060.987
 20
228.4763
 30
0.0
 10
-1060.987
 20
228.6263
 30
0.0
 10
-1063.43927
 20
228.6263
 30
0.0
 10
-1107.58013
 20
228.6263
 30
0.0
 10
-1110.0324
 20
228.6263
 30
0.0
 10
-1110.0324
 20
228.4763
 30
0.0
 10
-1110.0324
 20
225.7763
 30
0.0
 10
-1110.0324
 20
225.6263
 30
0.0
 10
-1112.54817
 20
225.6263
 30
0.0
 10
-1157.83203
 20
225.6263
 30
0.0
 10
-1160.3478
 20
225.6263
 30
0.0
 10
-1160.3478
 20
224.5213
 30
0.0
 10
-1160.3478
 20
204.6313
 30
0.0
 10
-1160.3478
 20
203.5263
 30
0.0
 10
-1160.1978
 20
203.5263
 30
0.0
 10
-1157.4978
 20
203.5263
 30
0.0
 10
-1157.3478
 20
203.5263
 30
0.0
 10
-1157.3478
 20
201.0163
 30
0.0
 10
-1157.3478
 20
155.8363
 30
0.0
 10
-1157.3478
 20
153.3263
 30
0.0
 10
-1157.4978
 20
153.3263
 30
0.0
 10
-1160.1978
 20
153.3263
 30
0.0
 10
-1160.3478
 20
153.3263
 30
0.0
 10
-1160.3478
 20
150.8163
 30
0.0
 10
-1160.3478
 20
105.6363
 30
0.0
 10
-1160.3478
 20
103.1263
 30
0.0
 10
-1160.1978
 20
103.1263
 30
0.0
 10
-1157.4978
 20
103.1263
 30
0.0
 10
-1157.3478
 20
103.1263
 30
0.0
 10
-1157.3478
 20
100.6163
 30
0.0
 10
-1157.3478
 20
55.4363
 30
0.0
 10
-1157.3478
 20
52.9263
 30
0.0
 10
-1157.4978
 20
52.9263
 30
0.0
 10
-1160.1978
 20
52.9263
 30
0.0
 10
-1160.3478
 20
52.9263
 30
0.0
 10
-1160.3478
 20
50.4163
 30
0.0
 10
-1160.3478
 20
5.2363
 30
0.0
 10
-1160.3478
 20
2.7263
 30
0.0
 10
-1160.1978
 20
2.7263
 30
0.0
 10
-1157.4978
 20
2.7263
 30
0.0
 10
-1157.3478
 20
2.7263
 30
0.0
 10
-1157.3478
 20
0.2163
 30
0.0
 10
-1157.3478
 20
-44.9637
 30
0.0
 10
-1157.3478
 20
-47.4737
 30
0.0
 10
-1157.4978
 20
-47.4737
 30
0.0
 10
-1160.1978
 20
-47.4737
 30
0.0
 10
-1160.3478
 20
-47.4737
 30
0.0
 10
-1160.3478
 20
-49.9837
 30
0.0
 10
-1160.3478
 20
-95.1637
 30
0.0
 10
-1160.3478
 20
-97.6737
 30
0.0
 10
-1160.1978
 20
-97.6737
 30
0.0
 10
-1157.4978
 20
-97.6737
 30
0.0
 10
-1157.3478
 20
-97.6737
 30
0.0
 10
-1157.3478
 20
-100.1837
 30
0.0
 10
-1157.3478
 20
-145.3637
 30
0.0
 10
-1157.3478
 20
-147.8737
 30
0.0
 10
-1157.4978
 20
-147.8737
 30
0.0
 10
-1160.1978
 20
-147.8737
 30
0.0
 10
-1160.3478
 20
-147.8737
 30
0.0
 10
-1160.3478
 20
-150.3837
 30
0.0
 10
-1160.3478
 20
-195.5637
 30
0.0
 10
-1160.3478
 20
-198.0737
 30
0.0
 10
-1160.1978
 20
-198.0737
 30
0.0
 10
-1157.4978
 20
-198.0737
 30
0.0
 10
-1157.3478
 20
-198.0737
 30
0.0
 10
-1157.3478
 20
-200.5837
 30
0.0
 10
-1157.3478
 20
-245.7637
 30
0.0
 10
-1157.3478
 20
-248.2737
 30
0.0
 10
-1157.4978
 20
-248.2737
 30
0.0
 10
-1160.1978
 20
-248.2737
 30
0.0
 10
-1160.3478
 20
-248.2737
 30
0.0
 10
-1160.3478
 20
-249.3787
 30
0.0
 10
-1160.3478
 20
-269.2687
 30
0.0
 10
-1160.3478
 20
-270.3737
 30
0.0
  0
SPLINE
  5
cd
100
AcDbEntity
  8
Layer_1
100
AcDbSpline
 70
     9
 71
     3
 72
    17
 73
    13
 74
     0
 42
0.0000001
 43
0.0000001
 40
0.0
 40
0.0
 40
0.0
 40
0.0
 40
1.0
 40
1.0
 40
1.0
 40
2.0
 40
2.0
 40
2.0
 40
3.0
 40
3.0
 40
3.0
 40
4.0
 40
4.0
 40
4.0
 40
4.0
 10
-965.3507
 20
203.5263
 30
0.0
 10
-965.2007
 20
203.5263
 30
0.0
 10
-962.5007
 20
203.5263
 30
0.0
 10
-962.3507
 20
203.5263
 30
0.0
 10
-962.3507
 20
201.0163
 30
0.0
 10
-962.3507
 20
155.8363
 30
0.0
 10
-962.3507
 20
153.3263
 30
0.0
 10
-962.5007
 20
153.3263
 30
0.0
 10
-965.2007
 20
153.3263
 30
0.0
 10
-965.3507
 20
153.3263
 30
0.0
 10
-965.3507
 20
155.8363
 30
0.0
 10
-965.3507
 20
201.0163
 30
0.0
 10
-965.3507
 20
203.5263
 30
0.0
  0
SPLINE
  5
ce
100
AcDbEntity
  8
Layer_1
100
AcDbSpline
 70
     9
 71
     3
 72
    17
 73
    13
 74
     0
 42
0.0000001
 43
0.0000001
 40
0.0
 40
0.0
 40
0.0
 40
0.0
 40
1.0
 40
1.0
 40
1.0
 40
2.0
 40
2.0
 40
2.0
 40
3.0
 40
3.0
 40
3.0
 40
4.0
 40
4.0
 40
4.0
 40
4.0
 10
-965.3507
 20
103.1263
 30
0.0
 10
-965.2007
 20
103.1263
 30
0.0
 10
-962.5007
 20
103.1263
 30
0.0
 10
-962.3507
 20
103.1263
 30
0.0
 10
-962.3507
 20
100.6163
 30
0.0
 10
-962.3507
 20
55.4363
 30
0.0
 10
-962.3507
 20
52.9263
 30
0.0
 10
-962.5007
 20
52.9263
 30
0.0
 10
-965.2007
 20
52.9263
 30
0.0
 10
-965.3507
 20
52.9263
 30
0.0
 10
-965.3507
 20
55.4363
 30
0.0
 10
-965.3507
 20
100.6163
 30
0.0
 10
-965.3507
 20
103.1263
 30
0.0
  0
SPLINE
  5
cf
100
AcDbEntity
  8
Layer_1
100
AcDbSpline
 70
     9
 71
     3
 72
    17
 73
    13
 74
     0
 42
0.0000001
 43
0.0000001
 40
0.0
 40
0.0
 40
0.0
 40
0.0
 40
1.0
 40
1.0
 40
1.0
 40
2.0
 40
2.0
 40
2.0
 40
3.0
 40
3.0
 40
3.0
 40
4.0
 40
4.0
 40
4.0
 40
4.0
 10
-965.3507
 20
2.7263
 30
0.0
 10
-965.2007
 20
2.7263
 30
0.0
 10
-962.5007
 20
2.7263
 30
0.0
 10
-962.3507
 20
2.7263
 30
0.0
 10
-962.3507
 20
0.2163
 30
0.0
 10
-962.3507
 20
-44.9637
 30
0.0
 10
-962.3507
 20
-47.4737
 30
0.0
 10
-962.5007
 20
-47.4737
 30
0.0
 10
-965.2007
 20
-47.4737
 30
0.0
 10
-965.3507
 20
-47.4737
 30
0.0
 10
-965.3507
 20
-44.9637
 30
0.0
 10
-965.3507
 20
0.2163
 30
0.0
 10
-965.3507
 20
2.7263
 30
0.0
  0
SPLINE
  5
d0
100
AcDbEntity
  8
Layer_1
100
AcDbSpline
 70
     9
 71
     3
 72
    17
 73
    13
 74
     0
 42
0.0000001
 43
0.0000001
 40
0.0
 40
0.0
 40
0.0
 40
0.0
 40
1.0
 40
1.0
 40
1.0
 40
2.0
 40
2.0
 40
2.0
 40
3.0
 40
3.0
 40
3.0
 40
4.0
 40
4.0
 40
4.0
 40
4.0
 10
-965.3507
 20
-97.6737
 30
0.0
 10
-965.2007
 20
-97.6737
 30
0.0
 10
-962.5007
 20
-97.6737
 30
0.0
 10
-962.3507
 20
-97.6737
 30
0.0
 10
-962.3507
 20
-100.1837
 30
0.0
 10
-962.3507
 20
-145.3637
 30
0.0
 10
-962.3507
 20
-147.8737
 30
0.0
 10
-962.5007
 20
-147.8737
 30
0.0
 10
-965.2007
 20
-147.8737
 30
0.0
 10
-965.3507
 20
-147.8737
 30
0.0
 10
-965.3507
 20
-145.3637
 30
0.0
 10
-965.3507
 20
-100.1837
 30
0.0
 10
-965.3507
 20
-97.6737
 30
0.0
  0
SPLINE
  5
d1
100
AcDbEntity
  8
Layer_1
100
AcDbSpline
 70
     9
 71
     3
 72
    17
 73
    13
 74
     0
 42
0.0000001
 43
0.0000001
 40
0.0
 40
0.0
 40
0.0
 40
0.0
 40
1.0
 40
1.0
 40
1.0
 40
2.0
 40
2.0
 40
2.0
 40
3.0
 40
3.0
 40
3.0
 40
4.0
 40
4.0
 40
4.0
 40
4.0
 10
-965.3507
 20
-198.0737
 30
0.0
 10
-965.2007
 20
-198.0737
 30
0.0
 10
-962.5007
 20
-198.0737
 30
0.0
 10
-962.3507
 20
-198.0737
 30
0.0
 10
-962.3507
 20
-200.5837
 30
0.0
 10
-962.3507
 20
-245.7637
 30
0.0
 10
-962.3507
 20
-248.2737
 30
0.0
 10
-962.5007
 20
-248.2737
 30
0.0
 10
-965.2007
 20
-248.2737
 30
0.0
 10
-965.3507
 20
-248.2737
 30
0.0
 10
-965.3507
 20
-245.7637
 30
0.0
 10
-965.3507
 20
-200.5837
 30
0.0
 10
-965.3507
 20
-198.0737
 30
0.0
  0
SPLINE
  5
d2
100
AcDbEntity
  8
Layer_1
100
AcDbSpline
 70
     9
 71
     3
 72
    17
 73
    13
 74
     0
 42
0.0000001
 43
0.0000001
 40
0.0
 40
0.0
 40
0.0
 40
0.0
 40
1.0
 40
1.0
 40
1.0
 40
2.0
 40
2.0
 40
2.0
 40
3.0
 40
3.0
 40
3.0
 40
4.0
 40
4.0
 40
4.0
 40
4.0
 10
-1110.5779
 20
203.5263
 30
0.0
 10
-1110.4279
 20
203.5263
 30
0.0
 10
-1107.7279
 20
203.5263
 30
0.0
 10
-1107.5779
 20
203.5263
 30
0.0
 10
-1107.5779
 20
201.0163
 30
0.0
 10
-1107.5779
 20
155.8363
 30
0.0
 10
-1107.5779
 20
153.3263
 30
0.0
 10
-1107.7279
 20
153.3263
 30
0.0
 10
-1110.4279
 20
153.3263
 30
0.0
 10
-1110.5779
 20
153.3263
 30
0.0
 10
-1110.5779
 20
155.8363
 30
0.0
 10
-1110.5779
 20
201.0163
 30
0.0
 10
-1110.5779
 20
203.5263
 30
0.0
  0
SPLINE
  5
d3
100
AcDbEntity
  8
Layer_1
100
AcDbSpline
 70
     9
 71
     3
 72
    17
 73
    13
 74
     0
 42
0.0000001
 43
0.0000001
 40
0.0
 40
0.0
 40
0.0
 40
0.0
 40
1.0
 40
1.0
 40
1.0
 40
2.0
 40
2.0
 40
2.0
 40
3.0
 40
3.0
 40
3.0
 40
4.0
 40
4.0
 40
4.0
 40
4.0
 10
-1110.5779
 20
103.1263
 30
0.0
 10
-1110.4279
 20
103.1263
 30
0.0
 10
-1107.7279
 20
103.1263
 30
0.0
 10
-1107.5779
 20
103.1263
 30
0.0
 10
-1107.5779
 20
100.6163
 30
0.0
 10
-1107.5779
 20
55.4363
 30
0.0
 10
-1107.5779
 20
52.9263
 30
0.0
 10
-1107.7279
 20
52.9263
 30
0.0
 10
-1110.4279
 20
52.9263
 30
0.0
 10
-1110.5779
 20
52.9263
 30
0.0
 10
-1110.5779
 20
55.4363
 30
0.0
 10
-1110.5779
 20
100.6163
 30
0.0
 10
-1110.5779
 20
103.1263
 30
0.0
  0
SPLINE
  5
d4
100
AcDbEntity
  8
Layer_1
100
AcDbSpline
 70
     9
 71
     3
 72
    17
 73
    13
 74
     0
 42
0.0000001
 43
0.0000001
 40
0.0
 40
0.0
 40
0.0
 40
0.0
 40
1.0
 40
1.0
 40
1.0
 40
2.0
 40
2.0
 40
2.0
 40
3.0
 40
3.0
 40
3.0
 40
4.0
 40
4.0
 40
4.0
 40
4.0
 10
-1110.5779
 20
2.7263
 30
0.0
 10
-1110.4279
 20
2.7263
 30
0.0
 10
-1107.7279
 20
2.7263
 30
0.0
 10
-1107.5779
 20
2.7263
 30
0.0
 10
-1107.5779
 20
0.2163
 30
0.0
 10
-1107.5779
 20
-44.9637
 30
0.0
 10
-1107.5779
 20
-47.4737
 30
0.0
 10
-1107.7279
 20
-47.4737
 30
0.0
 10
-1110.4279
 20
-47.4737
 30
0.0
 10
-1110.5779
 20
-47.4737
 30
0.0
 10
-1110.5779
 20
-44.9637
 30
0.0
 10
-1110.5779
 20
0.2163
 30
0.0
 10
-1110.5779
 20
2.7263
 30
0.0
  0
SPLINE
  5
d5
100
AcDbEntity
  8
Layer_1
100
AcDbSpline
 70
     9
 71
     3
 72
    17
 73
    13
 74
     0
 42
0.0000001
 43
0.0000001
 40
0.0
 40
0.0
 40
0.0
 40
0.0
 40
1.0
 40
1.0
 40
1.0
 40
2.0
 40
2.0
 40
2.0
 40
3.0
 40
3.0
 40
3.0
 40
4.0
 40
4.0
 40
4.0
 40
4.0
 10
-1110.5779
 20
-97.6737
 30
0.0
 10
-1110.4279
 20
-97.6737
 30
0.0
 10
-1107.7279
 20
-97.6737
 30
0.0
 10
-1107.5779
 20
-97.6737
 30
0.0
 10
-1107.5779
 20
-100.1837
 30
0.0
 10
-1107.5779
 20
-145.3637
 30
0.0
 10
-1107.5779
 20
-147.8737
 30
0.0
 10
-1107.7279
 20
-147.8737
 30
0.0
 10
-1110.4279
 20
-147.8737
 30
0.0
 10
-1110.5779
 20
-147.8737
 30
0.0
 10
-1110.5779
 20
-145.3637
 30
0.0
 10
-1110.5779
 20
-100.1837
 30
0.0
 10
-1110.5779
 20
-97.6737
 30
0.0
  0
SPLINE
  5
d6
100
AcDbEntity
  8
Layer_1
100
AcDbSpline
 70
     9
 71
     3
 72
    17
 73
    13
 74
     0
 42
0.0000001
 43
0.0000001
 40
0.0
 40
0.0
 40
0.0
 40
0.0
 40
1.0
 40
1.0
 40
1.0
 40
2.0
 40
2.0
 40
2.0
 40
3.0
 40
3.0
 40
3.0
 40
4.0
 40
4.0
 40
4.0
 40
4.0
 10
-1110.5779
 20
-198.0737
 30
0.0
 10
-1110.4279
 20
-198.0737
 30
0.0
 10
-1107.7279
 20
-198.0737
 30
0.0
 10
-1107.5779
 20
-198.0737
 30
0.0
 10
-1107.5779
 20
-200.5837
 30
0.0
 10
-1107.5779
 20
-245.7637
 30
0.0
 10
-1107.5779
 20
-248.2737
 30
0.0
 10
-1107.7279
 20
-248.2737
 30
0.0
 10
-1110.4279
 20
-248.2737
 30
0.0
 10
-1110.5779
 20
-248.2737
 30
0.0
 10
-1110.5779
 20
-245.7637
 30
0.0
 10
-1110.5779
 20
-200.5837
 30
0.0
 10
-1110.5779
 20
-198.0737
 30
0.0
  0
SPLINE
  5
d7
100
AcDbEntity
  8
Layer_1
100
AcDbSpline
 70
     9
 71
     3
 72
   185
 73
   181
 74
     0
 42
0.0000001
 43
0.0000001
 40
0.0
 40
0.0
 40
0.0
 40
0.0
 40
1.0
 40
1.0
 40
1.0
 40
2.0
 40
2.0
 40
2.0
 40
3.0
 40
3.0
 40
3.0
 40
4.0
 40
4.0
 40
4.0
 40
5.0
 40
5.0
 40
5.0
 40
6.0
 40
6.0
 40
6.0
 40
7.0
 40
7.0
 40
7.0
 40
8.0
 40
8.0
 40
8.0
 40
9.0
 40
9.0
 40
9.0
 40
10.0
 40
10.0
 40
10.0
 40
11.0
 40
11.0
 40
11.0
 40
12.0
 40
12.0
 40
12.0
 40
13.0
 40
13.0
 40
13.0
 40
14.0
 40
14.0
 40
14.0
 40
15.0
 40
15.0
 40
15.0
 40
16.0
 40
16.0
 40
16.0
 40
17.0
 40
17.0
 40
17.0
 40
18.0
 40
18.0
 40
18.0
 40
19.0
 40
19.0
 40
19.0
 40
20.0
 40
20.0
 40
20.0
 40
21.0
 40
21.0
 40
21.0
 40
22.0
 40
22.0
 40
22.0
 40
23.0
 40
23.0
 40
23.0
 40
24.0
 40
24.0
 40
24.0
 40
25.0
 40
25.0
 40
25.0
 40
26.0
 40
26.0
 40
26.0
 40
27.0
 40
27.0
 40
27.0
 40
28.0
 40
28.0
 40
28.0
 40
29.0
 40
29.0
 40
29.0
 40
30.0
 40
30.0
 40
30.0
 40
31.0
 40
31.0
 40
31.0
 40
32.0
 40
32.0
 40
32.0
 40
33.0
 40
33.0
 40
33.0
 40
34.0
 40
34.0
 40
34.0
 40
35.0
 40
35.0
 40
35.0
 40
36.0
 40
36.0
 40
36.0
 40
37.0
 40
37.0
 40
37.0
 40
38.0
 40
38.0
 40
38.0
 40
39.0
 40
39.0
 40
39.0
 40
40.0
 40
40.0
 40
40.0
 40
41.0
 40
41.0
 40
41.0
 40
42.0
 40
42.0
 40
42.0
 40
43.0
 40
43.0
 40
43.0
 40
44.0
 40
44.0
 40
44.0
 40
45.0
 40
45.0
 40
45.0
 40
46.0
 40
46.0
 40
46.0
 40
47.0
 40
47.0
 40
47.0
 40
48.0
 40
48.0
 40
48.0
 40
49.0
 40
49.0
 40
49.0
 40
50.0
 40
50.0
 40
50.0
 40
51.0
 40
51.0
 40
51.0
 40
52.0
 40
52.0
 40
52.0
 40
53.0
 40
53.0
 40
53.0
 40
54.0
 40
54.0
 40
54.0
 40
55.0
 40
55.0
 40
55.0
 40
56.0
 40
56.0
 40
56.0
 40
57.0
 40
57.0
 40
57.0
 40
58.0
 40
58.0
 40
58.0
 40
59.0
 40
59.0
 40
59.0
 40
60.0
 40
60.0
 40
60.0
 40
60.0
 10
-193.7683
 20
203.5263
 30
0.0
 10
-193.6183
 20
203.5263
 30
0.0
 10
-190.9183
 20
203.5263
 30
0.0
 10
-190.7683
 20
203.5263
 30
0.0
 10
-190.7683
 20
204.6313
 30
0.0
 10
-190.7683
 20
224.5213
 30
0.0
 10
-190.7683
 20
225.6263
 30
0.0
 10
-190.795575
 20
225.6263
 30
0.0
 10
-191.286525
 20
225.6263
 30
0.0
 10
-191.3138
 20
225.6263
 30
0.0
 10
-191.3138
 20
225.7763
 30
0.0
 10
-191.3138
 20
228.4763
 30
0.0
 10
-191.3138
 20
228.6263
 30
0.0
 10
-193.76607
 20
228.6263
 30
0.0
 10
-237.90693
 20
228.6263
 30
0.0
 10
-240.3592
 20
228.6263
 30
0.0
 10
-240.3592
 20
228.4763
 30
0.0
 10
-240.3592
 20
225.7763
 30
0.0
 10
-240.3592
 20
225.6263
 30
0.0
 10
-242.81147
 20
225.6263
 30
0.0
 10
-286.95233
 20
225.6263
 30
0.0
 10
-289.4046
 20
225.6263
 30
0.0
 10
-289.4046
 20
225.7763
 30
0.0
 10
-289.4046
 20
228.4763
 30
0.0
 10
-289.4046
 20
228.6263
 30
0.0
 10
-291.85687
 20
228.6263
 30
0.0
 10
-335.99773
 20
228.6263
 30
0.0
 10
-338.45
 20
228.6263
 30
0.0
 10
-338.45
 20
228.4763
 30
0.0
 10
-338.45
 20
225.7763
 30
0.0
 10
-338.45
 20
225.6263
 30
0.0
 10
-338.477275
 20
225.6263
 30
0.0
 10
-338.968225
 20
225.6263
 30
0.0
 10
-338.9955
 20
225.6263
 30
0.0
 10
-338.9955
 20
224.5213
 30
0.0
 10
-338.9955
 20
204.6313
 30
0.0
 10
-338.9955
 20
203.5263
 30
0.0
 10
-338.8455
 20
203.5263
 30
0.0
 10
-336.1455
 20
203.5263
 30
0.0
 10
-335.9955
 20
203.5263
 30
0.0
 10
-335.9955
 20
201.0163
 30
0.0
 10
-335.9955
 20
155.8363
 30
0.0
 10
-335.9955
 20
153.3263
 30
0.0
 10
-336.1455
 20
153.3263
 30
0.0
 10
-338.8455
 20
153.3263
 30
0.0
 10
-338.9955
 20
153.3263
 30
0.0
 10
-338.9955
 20
150.8163
 30
0.0
 10
-338.9955
 20
105.6363
 30
0.0
 10
-338.9955
 20
103.1263
 30
0.0
 10
-338.8455
 20
103.1263
 30
0.0
 10
-336.1455
 20
103.1263
 30
0.0
 10
-335.9955
 20
103.1263
 30
0.0
 10
-335.9955
 20
100.6163
 30
0.0
 10
-335.9955
 20
55.4363
 30
0.0
 10
-335.9955
 20
52.9263
 30
0.0
 10
-336.1455
 20
52.9263
 30
0.0
 10
-338.8455
 20
52.9263
 30
0.0
 10
-338.9955
 20
52.9263
 30
0.0
 10
-338.9955
 20
50.4163
 30
0.0
 10
-338.9955
 20
5.2363
 30
0.0
 10
-338.9955
 20
2.7263
 30
0.0
 10
-338.8455
 20
2.7263
 30
0.0
 10
-336.1455
 20
2.7263
 30
0.0
 10
-335.9955
 20
2.7263
 30
0.0
 10
-335.9955
 20
0.2163
 30
0.0
 10
-335.9955
 20
-44.9637
 30
0.0
 10
-335.9955
 20
-47.4737
 30
0.0
 10
-336.1455
 20
-47.4737
 30
0.0
 10
-338.8455
 20
-47.4737
 30
0.0
 10
-338.9955
 20
-47.4737
 30
0.0
 10
-338.9955
 20
-49.9837
 30
0.0
 10
-338.9955
 20
-95.1637
 30
0.0
 10
-338.9955
 20
-97.6737
 30
0.0
 10
-338.8455
 20
-97.6737
 30
0.0
 10
-336.1455
 20
-97.6737
 30
0.0
 10
-335.9955
 20
-97.6737
 30
0.0
 10
-335.9955
 20
-100.1837
 30
0.0
 10
-335.9955
 20
-145.3637
 30
0.0
 10
-335.9955
 20
-147.8737
 30
0.0
 10
-336.1455
 20
-147.8737
 30
0.0
 10
-338.8455
 20
-147.8737
 30
0.0
 10
-338.9955
 20
-147.8737
 30
0.0
 10
-338.9955
 20
-150.3837
 30
0.0
 10
-338.9955
 20
-195.5637
 30
0.0
 10
-338.9955
 20
-198.0737
 30
0.0
 10
-338.8455
 20
-198.0737
 30
0.0
 10
-336.1455
 20
-198.0737
 30
0.0
 10
-335.9955
 20
-198.0737
 30
0.0
 10
-335.9955
 20
-200.5837
 30
0.0
 10
-335.9955
 20
-245.7637
 30
0.0
 10
-335.9955
 20
-248.2737
 30
0.0
 10
-336.1455
 20
-248.2737
 30
0.0
 10
-338.8455
 20
-248.2737
 30
0.0
 10
-338.9955
 20
-248.2737
 30
0.0
 10
-338.9955
 20
-249.3787
 30
0.0
 10
-338.9955
 20
-269.2687
 30
0.0
 10
-338.9955
 20
-270.3737
 30
0.0
 10
-338.968225
 20
-270.3737
 30
0.0
 10
-338.477275
 20
-270.3737
 30
0.0
 10
-338.45
 20
-270.3737
 30
0.0
 10
-338.45
 20
-270.5237
 30
0.0
 10
-338.45
 20
-273.2237
 30
0.0
 10
-338.45
 20
-273.3737
 30
0.0
 10
-335.99773
 20
-273.3737
 30
0.0
 10
-291.85687
 20
-273.3737
 30
0.0
 10
-289.4046
 20
-273.3737
 30
0.0
 10
-289.4046
 20
-273.2237
 30
0.0
 10
-289.4046
 20
-270.5237
 30
0.0
 10
-289.4046
 20
-270.3737
 30
0.0
 10
-286.95233
 20
-270.3737
 30
0.0
 10
-242.81147
 20
-270.3737
 30
0.0
 10
-240.3592
 20
-270.3737
 30
0.0
 10
-240.3592
 20
-270.5237
 30
0.0
 10
-240.3592
 20
-273.2237
 30
0.0
 10
-240.3592
 20
-273.3737
 30
0.0
 10
-237.90693
 20
-273.3737
 30
0.0
 10
-193.76607
 20
-273.3737
 30
0.0
 10
-191.3138
 20
-273.3737
 30
0.0
 10
-191.3138
 20
-273.2237
 30
0.0
 10
-191.3138
 20
-270.5237
 30
0.0
 10
-191.3138
 20
-270.3737
 30
0.0
 10
-191.286525
 20
-270.3737
 30
0.0
 10
-190.795575
 20
-270.3737
 30
0.0
 10
-190.7683
 20
-270.3737
 30
0.0
 10
-190.7683
 20
-269.2687
 30
0.0
 10
-190.7683
 20
-249.3787
 30
0.0
 10
-190.7683
 20
-248.2737
 30
0.0
 10
-190.9183
 20
-248.2737
 30
0.0
 10
-193.6183
 20
-248.2737
 30
0.0
 10
-193.7683
 20
-248.2737
 30
0.0
 10
-193.7683
 20
-245.7637
 30
0.0
 10
-193.7683
 20
-200.5837
 30
0.0
 10
-193.7683
 20
-198.0737
 30
0.0
 10
-193.6183
 20
-198.0737
 30
0.0
 10
-190.9183
 20
-198.0737
 30
0.0
 10
-190.7683
 20
-198.0737
 30
0.0
 10
-190.7683
 20
-195.5637
 30
0.0
 10
-190.7683
 20
-150.3837
 30
0.0
 10
-190.7683
 20
-147.8737
 30
0.0
 10
-190.9183
 20
-147.8737
 30
0.0
 10
-193.6183
 20
-147.8737
 30
0.0
 10
-193.7683
 20
-147.8737
 30
0.0
 10
-193.7683
 20
-145.3637
 30
0.0
 10
-193.7683
 20
-100.1837
 30
0.0
 10
-193.7683
 20
-97.6737
 30
0.0
 10
-193.6183
 20
-97.6737
 30
0.0
 10
-190.9183
 20
-97.6737
 30
0.0
 10
-190.7683
 20
-97.6737
 30
0.0
 10
-190.7683
 20
-95.1637
 30
0.0
 10
-190.7683
 20
-49.9837
 30
0.0
 10
-190.7683
 20
-47.4737
 30
0.0
 10
-190.9183
 20
-47.4737
 30
0.0
 10
-193.6183
 20
-47.4737
 30
0.0
 10
-193.7683
 20
-47.4737
 30
0.0
 10
-193.7683
 20
-44.9637
 30
0.0
 10
-193.7683
 20
0.2163
 30
0.0
 10
-193.7683
 20
2.7263
 30
0.0
 10
-193.6183
 20
2.7263
 30
0.0
 10
-190.9183
 20
2.7263
 30
0.0
 10
-190.7683
 20
2.7263
 30
0.0
 10
-190.7683
 20
5.2363
 30
0.0
 10
-190.7683
 20
50.4163
 30
0.0
 10
-190.7683
 20
52.9263
 30
0.0
 10
-190.9183
 20
52.9263
 30
0.0
 10
-193.6183
 20
52.9263
 30
0.0
 10
-193.7683
 20
52.9263
 30
0.0
 10
-193.7683
 20
55.4363
 30
0.0
 10
-193.7683
 20
100.6163
 30
0.0
 10
-193.7683
 20
103.1263
 30
0.0
 10
-193.6183
 20
103.1263
 30
0.0
 10
-190.9183
 20
103.1263
 30
0.0
 10
-190.7683
 20
103.1263
 30
0.0
 10
-190.7683
 20
105.6363
 30
0.0
 10
-190.7683
 20
150.8163
 30
0.0
 10
-190.7683
 20
153.3263
 30
0.0
 10
-190.9183
 20
153.3263
 30
0.0
 10
-193.6183
 20
153.3263
 30
0.0
 10
-193.7683
 20
153.3263
 30
0.0
 10
-193.7683
 20
155.8363
 30
0.0
 10
-193.7683
 20
201.0163
 30
0.0
 10
-193.7683
 20
203.5263
 30
0.0
  0
SPLINE
  5
d8
100
AcDbEntity
  8
Layer_1
100
AcDbSpline
 70
     9
 71
     3
 72
   209
 73
   205
 74
     0
 42
0.0000001
 43
0.0000001
 40
0.0
 40
0.0
 40
0.0
 40
0.0
 40
1.0
 40
1.0
 40
1.0
 40
2.0
 40
2.0
 40
2.0
 40
3.0
 40
3.0
 40
3.0
 40
4.0
 40
4.0
 40
4.0
 40
5.0
 40
5.0
 40
5.0
 40
6.0
 40
6.0
 40
6.0
 40
7.0
 40
7.0
 40
7.0
 40
8.0
 40
8.0
 40
8.0
 40
9.0
 40
9.0
 40
9.0
 40
10.0
 40
10.0
 40
10.0
 40
11.0
 40
11.0
 40
11.0
 40
12.0
 40
12.0
 40
12.0
 40
13.0
 40
13.0
 40
13.0
 40
14.0
 40
14.0
 40
14.0
 40
15.0
 40
15.0
 40
15.0
 40
16.0
 40
16.0
 40
16.0
 40
17.0
 40
17.0
 40
17.0
 40
18.0
 40
18.0
 40
18.0
 40
19.0
 40
19.0
 40
19.0
 40
20.0
 40
20.0
 40
20.0
 40
21.0
 40
21.0
 40
21.0
 40
22.0
 40
22.0
 40
22.0
 40
23.0
 40
23.0
 40
23.0
 40
24.0
 40
24.0
 40
24.0
 40
25.0
 40
25.0
 40
25.0
 40
26.0
 40
26.0
 40
26.0
 40
27.0
 40
27.0
 40
27.0
 40
28.0
 40
28.0
 40
28.0
 40
29.0
 40
29.0
 40
29.0
 40
30.0
 40
30.0
 40
30.0
 40
31.0
 40
31.0
 40
31.0
 40
32.0
 40
32.0
 40
32.0
 40
33.0
 40
33.0
 40
33.0
 40
34.0
 40
34.0
 40
34.0
 40
35.0
 40
35.0
 40
35.0
 40
36.0
 40
36.0
 40
36.0
 40
37.0
 40
37.0
 40
37.0
 40
38.0
 40
38.0
 40
38.0
 40
39.0
 40
39.0
 40
39.0
 40
40.0
 40
40.0
 40
40.0
 40
41.0
 40
41.0
 40
41.0
 40
42.0
 40
42.0
 40
42.0
 40
43.0
 40
43.0
 40
43.0
 40
44.0
 40
44.0
 40
44.0
 40
45.0
 40
45.0
 40
45.0
 40
46.0
 40
46.0
 40
46.0
 40
47.0
 40
47.0
 40
47.0
 40
48.0
 40
48.0
 40
48.0
 40
49.0
 40
49.0
 40
49.0
 40
50.0
 40
50.0
 40
50.0
 40
51.0
 40
51.0
 40
51.0
 40
52.0
 40
52.0
 40
52.0
 40
53.0
 40
53.0
 40
53.0
 40
54.0
 40
54.0
 40
54.0
 40
55.0
 40
55.0
 40
55.0
 40
56.0
 40
56.0
 40
56.0
 40
57.0
 40
57.0
 40
57.0
 40
58.0
 40
58.0
 40
58.0
 40
59.0
 40
59.0
 40
59.0
 40
60.0
 40
60.0
 40
60.0
 40
61.0
 40
61.0
 40
61.0
 40
62.0
 40
62.0
 40
62.0
 40
63.0
 40
63.0
 40
63.0
 40
64.0
 40
64.0
 40
64.0
 40
65.0
 40
65.0
 40
65.0
 40
66.0
 40
66.0
 40
66.0
 40
67.0
 40
67.0
 40
67.0
 40
68.0
 40
68.0
 40
68.0
 40
68.0
 10
-364.6037
 20
-46.1314
 30
0.0
 10
-364.6037
 20
-45.9814
 30
0.0
 10
-364.6037
 20
-43.2814
 30
0.0
 10
-364.6037
 20
-43.1314
 30
0.0
 10
-364.4537
 20
-43.1314
 30
0.0
 10
-361.7537
 20
-43.1314
 30
0.0
 10
-361.6037
 20
-43.1314
 30
0.0
 10
-361.6037
 20
-45.64717
 30
0.0
 10
-361.6037
 20
-90.93103
 30
0.0
 10
-361.6037
 20
-93.4468
 30
0.0
 10
-361.7537
 20
-93.4468
 30
0.0
 10
-364.4537
 20
-93.4468
 30
0.0
 10
-364.6037
 20
-93.4468
 30
0.0
 10
-364.6037
 20
-95.89907
 30
0.0
 10
-364.6037
 20
-140.03993
 30
0.0
 10
-364.6037
 20
-142.4922
 30
0.0
 10
-364.4537
 20
-142.4922
 30
0.0
 10
-361.7537
 20
-142.4922
 30
0.0
 10
-361.6037
 20
-142.4922
 30
0.0
 10
-361.6037
 20
-144.94447
 30
0.0
 10
-361.6037
 20
-189.08533
 30
0.0
 10
-361.6037
 20
-191.5376
 30
0.0
 10
-361.7537
 20
-191.5376
 30
0.0
 10
-364.4537
 20
-191.5376
 30
0.0
 10
-364.6037
 20
-191.5376
 30
0.0
 10
-364.6037
 20
-193.98987
 30
0.0
 10
-364.6037
 20
-238.13073
 30
0.0
 10
-364.6037
 20
-240.583
 30
0.0
 10
-364.4537
 20
-240.583
 30
0.0
 10
-361.7537
 20
-240.583
 30
0.0
 10
-361.6037
 20
-240.583
 30
0.0
 10
-361.6037
 20
-243.09877
 30
0.0
 10
-361.6037
 20
-288.38263
 30
0.0
 10
-361.6037
 20
-290.8984
 30
0.0
 10
-361.7537
 20
-290.8984
 30
0.0
 10
-364.4537
 20
-290.8984
 30
0.0
 10
-364.6037
 20
-290.8984
 30
0.0
 10
-364.6037
 20
-290.7484
 30
0.0
 10
-364.6037
 20
-288.0484
 30
0.0
 10
-364.6037
 20
-287.8984
 30
0.0
 10
-365.8487
 20
-287.8984
 30
0.0
 10
-388.2587
 20
-287.8984
 30
0.0
 10
-389.5037
 20
-287.8984
 30
0.0
 10
-389.5037
 20
-288.0484
 30
0.0
 10
-389.5037
 20
-290.7484
 30
0.0
 10
-389.5037
 20
-290.8984
 30
0.0
 10
-391.9937
 20
-290.8984
 30
0.0
 10
-436.8137
 20
-290.8984
 30
0.0
 10
-439.3037
 20
-290.8984
 30
0.0
 10
-439.3037
 20
-290.7484
 30
0.0
 10
-439.3037
 20
-288.0484
 30
0.0
 10
-439.3037
 20
-287.8984
 30
0.0
 10
-441.7937
 20
-287.8984
 30
0.0
 10
-486.6137
 20
-287.8984
 30
0.0
 10
-489.1037
 20
-287.8984
 30
0.0
 10
-489.1037
 20
-288.0484
 30
0.0
 10
-489.1037
 20
-290.7484
 30
0.0
 10
-489.1037
 20
-290.8984
 30
0.0
 10
-491.5937
 20
-290.8984
 30
0.0
 10
-536.4137
 20
-290.8984
 30
0.0
 10
-538.9037
 20
-290.8984
 30
0.0
 10
-538.9037
 20
-290.7484
 30
0.0
 10
-538.9037
 20
-288.0484
 30
0.0
 10
-538.9037
 20
-287.8984
 30
0.0
 10
-541.3937
 20
-287.8984
 30
0.0
 10
-586.2137
 20
-287.8984
 30
0.0
 10
-588.7037
 20
-287.8984
 30
0.0
 10
-588.7037
 20
-288.0484
 30
0.0
 10
-588.7037
 20
-290.7484
 30
0.0
 10
-588.7037
 20
-290.8984
 30
0.0
 10
-591.1937
 20
-290.8984
 30
0.0
 10
-636.0137
 20
-290.8984
 30
0.0
 10
-638.5037
 20
-290.8984
 30
0.0
 10
-638.5037
 20
-290.7484
 30
0.0
 10
-638.5037
 20
-288.0484
 30
0.0
 10
-638.5037
 20
-287.8984
 30
0.0
 10
-640.9937
 20
-287.8984
 30
0.0
 10
-685.8137
 20
-287.8984
 30
0.0
 10
-688.3037
 20
-287.8984
 30
0.0
 10
-688.3037
 20
-288.0484
 30
0.0
 10
-688.3037
 20
-290.7484
 30
0.0
 10
-688.3037
 20
-290.8984
 30
0.0
 10
-690.7937
 20
-290.8984
 30
0.0
 10
-735.6137
 20
-290.8984
 30
0.0
 10
-738.1037
 20
-290.8984
 30
0.0
 10
-738.1037
 20
-290.7484
 30
0.0
 10
-738.1037
 20
-288.0484
 30
0.0
 10
-738.1037
 20
-287.8984
 30
0.0
 10
-740.5937
 20
-287.8984
 30
0.0
 10
-785.4137
 20
-287.8984
 30
0.0
 10
-787.9037
 20
-287.8984
 30
0.0
 10
-787.9037
 20
-288.0484
 30
0.0
 10
-787.9037
 20
-290.7484
 30
0.0
 10
-787.9037
 20
-290.8984
 30
0.0
 10
-790.3937
 20
-290.8984
 30
0.0
 10
-835.2137
 20
-290.8984
 30
0.0
 10
-837.7037
 20
-290.8984
 30
0.0
 10
-837.7037
 20
-290.7484
 30
0.0
 10
-837.7037
 20
-288.0484
 30
0.0
 10
-837.7037
 20
-287.8984
 30
0.0
 10
-838.9487
 20
-287.8984
 30
0.0
 10
-861.3587
 20
-287.8984
 30
0.0
 10
-862.6037
 20
-287.8984
 30
0.0
 10
-862.6037
 20
-288.0484
 30
0.0
 10
-862.6037
 20
-290.7484
 30
0.0
 10
-862.6037
 20
-290.8984
 30
0.0
 10
-862.7537
 20
-290.8984
 30
0.0
 10
-865.4537
 20
-290.8984
 30
0.0
 10
-865.6037
 20
-290.8984
 30
0.0
 10
-865.6037
 20
-288.38263
 30
0.0
 10
-865.6037
 20
-243.09877
 30
0.0
 10
-865.6037
 20
-240.583
 30
0.0
 10
-865.4537
 20
-240.583
 30
0.0
 10
-862.7537
 20
-240.583
 30
0.0
 10
-862.6037
 20
-240.583
 30
0.0
 10
-862.6037
 20
-238.13073
 30
0.0
 10
-862.6037
 20
-193.98987
 30
0.0
 10
-862.6037
 20
-191.5376
 30
0.0
 10
-862.7537
 20
-191.5376
 30
0.0
 10
-865.4537
 20
-191.5376
 30
0.0
 10
-865.6037
 20
-191.5376
 30
0.0
 10
-865.6037
 20
-189.08533
 30
0.0
 10
-865.6037
 20
-144.94447
 30
0.0
 10
-865.6037
 20
-142.4922
 30
0.0
 10
-865.4537
 20
-142.4922
 30
0.0
 10
-862.7537
 20
-142.4922
 30
0.0
 10
-862.6037
 20
-142.4922
 30
0.0
 10
-862.6037
 20
-140.03993
 30
0.0
 10
-862.6037
 20
-95.89907
 30
0.0
 10
-862.6037
 20
-93.4468
 30
0.0
 10
-862.7537
 20
-93.4468
 30
0.0
 10
-865.4537
 20
-93.4468
 30
0.0
 10
-865.6037
 20
-93.4468
 30
0.0
 10
-865.6037
 20
-90.93103
 30
0.0
 10
-865.6037
 20
-45.64717
 30
0.0
 10
-865.6037
 20
-43.1314
 30
0.0
 10
-865.4537
 20
-43.1314
 30
0.0
 10
-862.7537
 20
-43.1314
 30
0.0
 10
-862.6037
 20
-43.1314
 30
0.0
 10
-862.6037
 20
-43.2814
 30
0.0
 10
-862.6037
 20
-45.9814
 30
0.0
 10
-862.6037
 20
-46.1314
 30
0.0
 10
-861.3587
 20
-46.1314
 30
0.0
 10
-838.9487
 20
-46.1314
 30
0.0
 10
-837.7037
 20
-46.1314
 30
0.0
 10
-837.7037
 20
-45.9814
 30
0.0
 10
-837.7037
 20
-43.2814
 30
0.0
 10
-837.7037
 20
-43.1314
 30
0.0
 10
-835.2137
 20
-43.1314
 30
0.0
 10
-790.3937
 20
-43.1314
 30
0.0
 10
-787.9037
 20
-43.1314
 30
0.0
 10
-787.9037
 20
-43.2814
 30
0.0
 10
-787.9037
 20
-45.9814
 30
0.0
 10
-787.9037
 20
-46.1314
 30
0.0
 10
-785.4137
 20
-46.1314
 30
0.0
 10
-740.5937
 20
-46.1314
 30
0.0
 10
-738.1037
 20
-46.1314
 30
0.0
 10
-738.1037
 20
-45.9814
 30
0.0
 10
-738.1037
 20
-43.2814
 30
0.0
 10
-738.1037
 20
-43.1314
 30
0.0
 10
-735.6137
 20
-43.1314
 30
0.0
 10
-690.7937
 20
-43.1314
 30
0.0
 10
-688.3037
 20
-43.1314
 30
0.0
 10
-688.3037
 20
-43.2814
 30
0.0
 10
-688.3037
 20
-45.9814
 30
0.0
 10
-688.3037
 20
-46.1314
 30
0.0
 10
-685.8137
 20
-46.1314
 30
0.0
 10
-640.9937
 20
-46.1314
 30
0.0
 10
-638.5037
 20
-46.1314
 30
0.0
 10
-638.5037
 20
-45.9814
 30
0.0
 10
-638.5037
 20
-43.2814
 30
0.0
 10
-638.5037
 20
-43.1314
 30
0.0
 10
-636.0137
 20
-43.1314
 30
0.0
 10
-591.1937
 20
-43.1314
 30
0.0
 10
-588.7037
 20
-43.1314
 30
0.0
 10
-588.7037
 20
-43.2814
 30
0.0
 10
-588.7037
 20
-45.9814
 30
0.0
 10
-588.7037
 20
-46.1314
 30
0.0
 10
-586.2137
 20
-46.1314
 30
0.0
 10
-541.3937
 20
-46.1314
 30
0.0
 10
-538.9037
 20
-46.1314
 30
0.0
 10
-538.9037
 20
-45.9814
 30
0.0
 10
-538.9037
 20
-43.2814
 30
0.0
 10
-538.9037
 20
-43.1314
 30
0.0
 10
-536.4137
 20
-43.1314
 30
0.0
 10
-491.5937
 20
-43.1314
 30
0.0
 10
-489.1037
 20
-43.1314
 30
0.0
 10
-489.1037
 20
-43.2814
 30
0.0
 10
-489.1037
 20
-45.9814
 30
0.0
 10
-489.1037
 20
-46.1314
 30
0.0
 10
-486.6137
 20
-46.1314
 30
0.0
 10
-441.7937
 20
-46.1314
 30
0.0
 10
-439.3037
 20
-46.1314
 30
0.0
 10
-439.3037
 20
-45.9814
 30
0.0
 10
-439.3037
 20
-43.2814
 30
0.0
 10
-439.3037
 20
-43.1314
 30
0.0
 10
-436.8137
 20
-43.1314
 30
0.0
 10
-391.9937
 20
-43.1314
 30
0.0
 10
-389.5037
 20
-43.1314
 30
0.0
 10
-389.5037
 20
-43.2814
 30
0.0
 10
-389.5037
 20
-45.9814
 30
0.0
 10
-389.5037
 20
-46.1314
 30
0.0
 10
-388.2587
 20
-46.1314
 30
0.0
 10
-365.8487
 20
-46.1314
 30
0.0
 10
-364.6037
 20
-46.1314
 30
0.0
  0
SPLINE
  5
d9
100
AcDbEntity
  8
Layer_1
100
AcDbSpline
 70
     9
 71
     3
 72
    17
 73
    13
 74
     0
 42
0.0000001
 43
0.0000001
 40
0.0
 40
0.0
 40
0.0
 40
0.0
 40
1.0
 40
1.0
 40
1.0
 40
2.0
 40
2.0
 40
2.0
 40
3.0
 40
3.0
 40
3.0
 40
4.0
 40
4.0
 40
4.0
 40
4.0
 10
-389.5037
 20
-95.9013
 30
0.0
 10
-389.5037
 20
-95.7513
 30
0.0
 10
-389.5037
 20
-93.0513
 30
0.0
 10
-389.5037
 20
-92.9013
 30
0.0
 10
-391.9937
 20
-92.9013
 30
0.0
 10
-436.8137
 20
-92.9013
 30
0.0
 10
-439.3037
 20
-92.9013
 30
0.0
 10
-439.3037
 20
-93.0513
 30
0.0
 10
-439.3037
 20
-95.7513
 30
0.0
 10
-439.3037
 20
-95.9013
 30
0.0
 10
-436.8137
 20
-95.9013
 30
0.0
 10
-391.9937
 20
-95.9013
 30
0.0
 10
-389.5037
 20
-95.9013
 30
0.0
  0
SPLINE
  5
da
100
AcDbEntity
  8
Layer_1
100
AcDbSpline
 70
     9
 71
     3
 72
    17
 73
    13
 74
     0
 42
0.0000001
 43
0.0000001
 40
0.0
 40
0.0
 40
0.0
 40
0.0
 40
1.0
 40
1.0
 40
1.0
 40
2.0
 40
2.0
 40
2.0
 40
3.0
 40
3.0
 40
3.0
 40
4.0
 40
4.0
 40
4.0
 40
4.0
 10
-389.5037
 20
-241.1285
 30
0.0
 10
-389.5037
 20
-240.9785
 30
0.0
 10
-389.5037
 20
-238.2785
 30
0.0
 10
-389.5037
 20
-238.1285
 30
0.0
 10
-391.9937
 20
-238.1285
 30
0.0
 10
-436.8137
 20
-238.1285
 30
0.0
 10
-439.3037
 20
-238.1285
 30
0.0
 10
-439.3037
 20
-238.2785
 30
0.0
 10
-439.3037
 20
-240.9785
 30
0.0
 10
-439.3037
 20
-241.1285
 30
0.0
 10
-436.8137
 20
-241.1285
 30
0.0
 10
-391.9937
 20
-241.1285
 30
0.0
 10
-389.5037
 20
-241.1285
 30
0.0
  0
SPLINE
  5
db
100
AcDbEntity
  8
Layer_1
100
AcDbSpline
 70
     9
 71
     3
 72
    17
 73
    13
 74
     0
 42
0.0000001
 43
0.0000001
 40
0.0
 40
0.0
 40
0.0
 40
0.0
 40
1.0
 40
1.0
 40
1.0
 40
2.0
 40
2.0
 40
2.0
 40
3.0
 40
3.0
 40
3.0
 40
4.0
 40
4.0
 40
4.0
 40
4.0
 10
-489.1037
 20
-95.9013
 30
0.0
 10
-489.1037
 20
-95.7513
 30
0.0
 10
-489.1037
 20
-93.0513
 30
0.0
 10
-489.1037
 20
-92.9013
 30
0.0
 10
-491.5937
 20
-92.9013
 30
0.0
 10
-536.4137
 20
-92.9013
 30
0.0
 10
-538.9037
 20
-92.9013
 30
0.0
 10
-538.9037
 20
-93.0513
 30
0.0
 10
-538.9037
 20
-95.7513
 30
0.0
 10
-538.9037
 20
-95.9013
 30
0.0
 10
-536.4137
 20
-95.9013
 30
0.0
 10
-491.5937
 20
-95.9013
 30
0.0
 10
-489.1037
 20
-95.9013
 30
0.0
  0
SPLINE
  5
dc
100
AcDbEntity
  8
Layer_1
100
AcDbSpline
 70
     9
 71
     3
 72
    17
 73
    13
 74
     0
 42
0.0000001
 43
0.0000001
 40
0.0
 40
0.0
 40
0.0
 40
0.0
 40
1.0
 40
1.0
 40
1.0
 40
2.0
 40
2.0
 40
2.0
 40
3.0
 40
3.0
 40
3.0
 40
4.0
 40
4.0
 40
4.0
 40
4.0
 10
-489.1037
 20
-241.1285
 30
0.0
 10
-489.1037
 20
-240.9785
 30
0.0
 10
-489.1037
 20
-238.2785
 30
0.0
 10
-489.1037
 20
-238.1285
 30
0.0
 10
-491.5937
 20
-238.1285
 30
0.0
 10
-536.4137
 20
-238.1285
 30
0.0
 10
-538.9037
 20
-238.1285
 30
0.0
 10
-538.9037
 20
-238.2785
 30
0.0
 10
-538.9037
 20
-240.9785
 30
0.0
 10
-538.9037
 20
-241.1285
 30
0.0
 10
-536.4137
 20
-241.1285
 30
0.0
 10
-491.5937
 20
-241.1285
 30
0.0
 10
-489.1037
 20
-241.1285
 30
0.0
  0
SPLINE
  5
dd
100
AcDbEntity
  8
Layer_1
100
AcDbSpline
 70
     9
 71
     3
 72
    17
 73
    13
 74
     0
 42
0.0000001
 43
0.0000001
 40
0.0
 40
0.0
 40
0.0
 40
0.0
 40
1.0
 40
1.0
 40
1.0
 40
2.0
 40
2.0
 40
2.0
 40
3.0
 40
3.0
 40
3.0
 40
4.0
 40
4.0
 40
4.0
 40
4.0
 10
-588.7037
 20
-95.9013
 30
0.0
 10
-588.7037
 20
-95.7513
 30
0.0
 10
-588.7037
 20
-93.0513
 30
0.0
 10
-588.7037
 20
-92.9013
 30
0.0
 10
-591.1937
 20
-92.9013
 30
0.0
 10
-636.0137
 20
-92.9013
 30
0.0
 10
-638.5037
 20
-92.9013
 30
0.0
 10
-638.5037
 20
-93.0513
 30
0.0
 10
-638.5037
 20
-95.7513
 30
0.0
 10
-638.5037
 20
-95.9013
 30
0.0
 10
-636.0137
 20
-95.9013
 30
0.0
 10
-591.1937
 20
-95.9013
 30
0.0
 10
-588.7037
 20
-95.9013
 30
0.0
  0
SPLINE
  5
de
100
AcDbEntity
  8
Layer_1
100
AcDbSpline
 70
     9
 71
     3
 72
    17
 73
    13
 74
     0
 42
0.0000001
 43
0.0000001
 40
0.0
 40
0.0
 40
0.0
 40
0.0
 40
1.0
 40
1.0
 40
1.0
 40
2.0
 40
2.0
 40
2.0
 40
3.0
 40
3.0
 40
3.0
 40
4.0
 40
4.0
 40
4.0
 40
4.0
 10
-588.7037
 20
-241.1285
 30
0.0
 10
-588.7037
 20
-240.9785
 30
0.0
 10
-588.7037
 20
-238.2785
 30
0.0
 10
-588.7037
 20
-238.1285
 30
0.0
 10
-591.1937
 20
-238.1285
 30
0.0
 10
-636.0137
 20
-238.1285
 30
0.0
 10
-638.5037
 20
-238.1285
 30
0.0
 10
-638.5037
 20
-238.2785
 30
0.0
 10
-638.5037
 20
-240.9785
 30
0.0
 10
-638.5037
 20
-241.1285
 30
0.0
 10
-636.0137
 20
-241.1285
 30
0.0
 10
-591.1937
 20
-241.1285
 30
0.0
 10
-588.7037
 20
-241.1285
 30
0.0
  0
SPLINE
  5
df
100
AcDbEntity
  8
Layer_1
100
AcDbSpline
 70
     9
 71
     3
 72
    17
 73
    13
 74
     0
 42
0.0000001
 43
0.0000001
 40
0.0
 40
0.0
 40
0.0
 40
0.0
 40
1.0
 40
1.0
 40
1.0
 40
2.0
 40
2.0
 40
2.0
 40
3.0
 40
3.0
 40
3.0
 40
4.0
 40
4.0
 40
4.0
 40
4.0
 10
-688.3037
 20
-95.9013
 30
0.0
 10
-688.3037
 20
-95.7513
 30
0.0
 10
-688.3037
 20
-93.0513
 30
0.0
 10
-688.3037
 20
-92.9013
 30
0.0
 10
-690.7937
 20
-92.9013
 30
0.0
 10
-735.6137
 20
-92.9013
 30
0.0
 10
-738.1037
 20
-92.9013
 30
0.0
 10
-738.1037
 20
-93.0513
 30
0.0
 10
-738.1037
 20
-95.7513
 30
0.0
 10
-738.1037
 20
-95.9013
 30
0.0
 10
-735.6137
 20
-95.9013
 30
0.0
 10
-690.7937
 20
-95.9013
 30
0.0
 10
-688.3037
 20
-95.9013
 30
0.0
  0
SPLINE
  5
e0
100
AcDbEntity
  8
Layer_1
100
AcDbSpline
 70
     9
 71
     3
 72
    17
 73
    13
 74
     0
 42
0.0000001
 43
0.0000001
 40
0.0
 40
0.0
 40
0.0
 40
0.0
 40
1.0
 40
1.0
 40
1.0
 40
2.0
 40
2.0
 40
2.0
 40
3.0
 40
3.0
 40
3.0
 40
4.0
 40
4.0
 40
4.0
 40
4.0
 10
-688.3037
 20
-241.1285
 30
0.0
 10
-688.3037
 20
-240.9785
 30
0.0
 10
-688.3037
 20
-238.2785
 30
0.0
 10
-688.3037
 20
-238.1285
 30
0.0
 10
-690.7937
 20
-238.1285
 30
0.0
 10
-735.6137
 20
-238.1285
 30
0.0
 10
-738.1037
 20
-238.1285
 30
0.0
 10
-738.1037
 20
-238.2785
 30
0.0
 10
-738.1037
 20
-240.9785
 30
0.0
 10
-738.1037
 20
-241.1285
 30
0.0
 10
-735.6137
 20
-241.1285
 30
0.0
 10
-690.7937
 20
-241.1285
 30
0.0
 10
-688.3037
 20
-241.1285
 30
0.0
  0
SPLINE
  5
e1
100
AcDbEntity
  8
Layer_1
100
AcDbSpline
 70
     9
 71
     3
 72
    17
 73
    13
 74
     0
 42
0.0000001
 43
0.0000001
 40
0.0
 40
0.0
 40
0.0
 40
0.0
 40
1.0
 40
1.0
 40
1.0
 40
2.0
 40
2.0
 40
2.0
 40
3.0
 40
3.0
 40
3.0
 40
4.0
 40
4.0
 40
4.0
 40
4.0
 10
-787.9037
 20
-95.9013
 30
0.0
 10
-787.9037
 20
-95.7513
 30
0.0
 10
-787.9037
 20
-93.0513
 30
0.0
 10
-787.9037
 20
-92.9013
 30
0.0
 10
-790.3937
 20
-92.9013
 30
0.0
 10
-835.2137
 20
-92.9013
 30
0.0
 10
-837.7037
 20
-92.9013
 30
0.0
 10
-837.7037
 20
-93.0513
 30
0.0
 10
-837.7037
 20
-95.7513
 30
0.0
 10
-837.7037
 20
-95.9013
 30
0.0
 10
-835.2137
 20
-95.9013
 30
0.0
 10
-790.3937
 20
-95.9013
 30
0.0
 10
-787.9037
 20
-95.9013
 30
0.0
  0
SPLINE
  5
e2
100
AcDbEntity
  8
Layer_1
100
AcDbSpline
 70
     9
 71
     3
 72
    17
 73
    13
 74
     0
 42
0.0000001
 43
0.0000001
 40
0.0
 40
0.0
 40
0.0
 40
0.0
 40
1.0
 40
1.0
 40
1.0
 40
2.0
 40
2.0
 40
2.0
 40
3.0
 40
3.0
 40
3.0
 40
4.0
 40
4.0
 40
4.0
 40
4.0
 10
-787.9037
 20
-241.1285
 30
0.0
 10
-787.9037
 20
-240.9785
 30
0.0
 10
-787.9037
 20
-238.2785
 30
0.0
 10
-787.9037
 20
-238.1285
 30
0.0
 10
-790.3937
 20
-238.1285
 30
0.0
 10
-835.2137
 20
-238.1285
 30
0.0
 10
-837.7037
 20
-238.1285
 30
0.0
 10
-837.7037
 20
-238.2785
 30
0.0
 10
-837.7037
 20
-240.9785
 30
0.0
 10
-837.7037
 20
-241.1285
 30
0.0
 10
-835.2137
 20
-241.1285
 30
0.0
 10
-790.3937
 20
-241.1285
 30
0.0
 10
-787.9037
 20
-241.1285
 30
0.0
  0
SPLINE
  5
e3
100
AcDbEntity
  8
Layer_1
100
AcDbSpline
 70
     9
 71
     3
 72
   209
 73
   205
 74
     0
 42
0.0000001
 43
0.0000001
 40
0.0
 40
0.0
 40
0.0
 40
0.0
 40
1.0
 40
1.0
 40
1.0
 40
2.0
 40
2.0
 40
2.0
 40
3.0
 40
3.0
 40
3.0
 40
4.0
 40
4.0
 40
4.0
 40
5.0
 40
5.0
 40
5.0
 40
6.0
 40
6.0
 40
6.0
 40
7.0
 40
7.0
 40
7.0
 40
8.0
 40
8.0
 40
8.0
 40
9.0
 40
9.0
 40
9.0
 40
10.0
 40
10.0
 40
10.0
 40
11.0
 40
11.0
 40
11.0
 40
12.0
 40
12.0
 40
12.0
 40
13.0
 40
13.0
 40
13.0
 40
14.0
 40
14.0
 40
14.0
 40
15.0
 40
15.0
 40
15.0
 40
16.0
 40
16.0
 40
16.0
 40
17.0
 40
17.0
 40
17.0
 40
18.0
 40
18.0
 40
18.0
 40
19.0
 40
19.0
 40
19.0
 40
20.0
 40
20.0
 40
20.0
 40
21.0
 40
21.0
 40
21.0
 40
22.0
 40
22.0
 40
22.0
 40
23.0
 40
23.0
 40
23.0
 40
24.0
 40
24.0
 40
24.0
 40
25.0
 40
25.0
 40
25.0
 40
26.0
 40
26.0
 40
26.0
 40
27.0
 40
27.0
 40
27.0
 40
28.0
 40
28.0
 40
28.0
 40
29.0
 40
29.0
 40
29.0
 40
30.0
 40
30.0
 40
30.0
 40
31.0
 40
31.0
 40
31.0
 40
32.0
 40
32.0
 40
32.0
 40
33.0
 40
33.0
 40
33.0
 40
34.0
 40
34.0
 40
34.0
 40
35.0
 40
35.0
 40
35.0
 40
36.0
 40
36.0
 40
36.0
 40
37.0
 40
37.0
 40
37.0
 40
38.0
 40
38.0
 40
38.0
 40
39.0
 40
39.0
 40
39.0
 40
40.0
 40
40.0
 40
40.0
 40
41.0
 40
41.0
 40
41.0
 40
42.0
 40
42.0
 40
42.0
 40
43.0
 40
43.0
 40
43.0
 40
44.0
 40
44.0
 40
44.0
 40
45.0
 40
45.0
 40
45.0
 40
46.0
 40
46.0
 40
46.0
 40
47.0
 40
47.0
 40
47.0
 40
48.0
 40
48.0
 40
48.0
 40
49.0
 40
49.0
 40
49.0
 40
50.0
 40
50.0
 40
50.0
 40
51.0
 40
51.0
 40
51.0
 40
52.0
 40
52.0
 40
52.0
 40
53.0
 40
53.0
 40
53.0
 40
54.0
 40
54.0
 40
54.0
 40
55.0
 40
55.0
 40
55.0
 40
56.0
 40
56.0
 40
56.0
 40
57.0
 40
57.0
 40
57.0
 40
58.0
 40
58.0
 40
58.0
 40
59.0
 40
59.0
 40
59.0
 40
60.0
 40
60.0
 40
60.0
 40
61.0
 40
61.0
 40
61.0
 40
62.0
 40
62.0
 40
62.0
 40
63.0
 40
63.0
 40
63.0
 40
64.0
 40
64.0
 40
64.0
 40
65.0
 40
65.0
 40
65.0
 40
66.0
 40
66.0
 40
66.0
 40
67.0
 40
67.0
 40
67.0
 40
68.0
 40
68.0
 40
68.0
 40
68.0
 10
-364.6037
 20
225.6263
 30
0.0
 10
-364.6037
 20
225.7763
 30
0.0
 10
-364.6037
 20
228.4763
 30
0.0
 10
-364.6037
 20
228.6263
 30
0.0
 10
-364.4537
 20
228.6263
 30
0.0
 10
-361.7537
 20
228.6263
 30
0.0
 10
-361.6037
 20
228.6263
 30
0.0
 10
-361.6037
 20
226.11053
 30
0.0
 10
-361.6037
 20
180.82667
 30
0.0
 10
-361.6037
 20
178.3109
 30
0.0
 10
-361.7537
 20
178.3109
 30
0.0
 10
-364.4537
 20
178.3109
 30
0.0
 10
-364.6037
 20
178.3109
 30
0.0
 10
-364.6037
 20
175.85863
 30
0.0
 10
-364.6037
 20
131.71777
 30
0.0
 10
-364.6037
 20
129.2655
 30
0.0
 10
-364.4537
 20
129.2655
 30
0.0
 10
-361.7537
 20
129.2655
 30
0.0
 10
-361.6037
 20
129.2655
 30
0.0
 10
-361.6037
 20
126.81323
 30
0.0
 10
-361.6037
 20
82.67237
 30
0.0
 10
-361.6037
 20
80.2201
 30
0.0
 10
-361.7537
 20
80.2201
 30
0.0
 10
-364.4537
 20
80.2201
 30
0.0
 10
-364.6037
 20
80.2201
 30
0.0
 10
-364.6037
 20
77.76783
 30
0.0
 10
-364.6037
 20
33.62697
 30
0.0
 10
-364.6037
 20
31.1747
 30
0.0
 10
-364.4537
 20
31.1747
 30
0.0
 10
-361.7537
 20
31.1747
 30
0.0
 10
-361.6037
 20
31.1747
 30
0.0
 10
-361.6037
 20
28.65893
 30
0.0
 10
-361.6037
 20
-16.62493
 30
0.0
 10
-361.6037
 20
-19.1407
 30
0.0
 10
-361.7537
 20
-19.1407
 30
0.0
 10
-364.4537
 20
-19.1407
 30
0.0
 10
-364.6037
 20
-19.1407
 30
0.0
 10
-364.6037
 20
-18.9907
 30
0.0
 10
-364.6037
 20
-16.2907
 30
0.0
 10
-364.6037
 20
-16.1407
 30
0.0
 10
-365.8487
 20
-16.1407
 30
0.0
 10
-388.2587
 20
-16.1407
 30
0.0
 10
-389.5037
 20
-16.1407
 30
0.0
 10
-389.5037
 20
-16.2907
 30
0.0
 10
-389.5037
 20
-18.9907
 30
0.0
 10
-389.5037
 20
-19.1407
 30
0.0
 10
-391.9937
 20
-19.1407
 30
0.0
 10
-436.8137
 20
-19.1407
 30
0.0
 10
-439.3037
 20
-19.1407
 30
0.0
 10
-439.3037
 20
-18.9907
 30
0.0
 10
-439.3037
 20
-16.2907
 30
0.0
 10
-439.3037
 20
-16.1407
 30
0.0
 10
-441.7937
 20
-16.1407
 30
0.0
 10
-486.6137
 20
-16.1407
 30
0.0
 10
-489.1037
 20
-16.1407
 30
0.0
 10
-489.1037
 20
-16.2907
 30
0.0
 10
-489.1037
 20
-18.9907
 30
0.0
 10
-489.1037
 20
-19.1407
 30
0.0
 10
-491.5937
 20
-19.1407
 30
0.0
 10
-536.4137
 20
-19.1407
 30
0.0
 10
-538.9037
 20
-19.1407
 30
0.0
 10
-538.9037
 20
-18.9907
 30
0.0
 10
-538.9037
 20
-16.2907
 30
0.0
 10
-538.9037
 20
-16.1407
 30
0.0
 10
-541.3937
 20
-16.1407
 30
0.0
 10
-586.2137
 20
-16.1407
 30
0.0
 10
-588.7037
 20
-16.1407
 30
0.0
 10
-588.7037
 20
-16.2907
 30
0.0
 10
-588.7037
 20
-18.9907
 30
0.0
 10
-588.7037
 20
-19.1407
 30
0.0
 10
-591.1937
 20
-19.1407
 30
0.0
 10
-636.0137
 20
-19.1407
 30
0.0
 10
-638.5037
 20
-19.1407
 30
0.0
 10
-638.5037
 20
-18.9907
 30
0.0
 10
-638.5037
 20
-16.2907
 30
0.0
 10
-638.5037
 20
-16.1407
 30
0.0
 10
-640.9937
 20
-16.1407
 30
0.0
 10
-685.8137
 20
-16.1407
 30
0.0
 10
-688.3037
 20
-16.1407
 30
0.0
 10
-688.3037
 20
-16.2907
 30
0.0
 10
-688.3037
 20
-18.9907
 30
0.0
 10
-688.3037
 20
-19.1407
 30
0.0
 10
-690.7937
 20
-19.1407
 30
0.0
 10
-735.6137
 20
-19.1407
 30
0.0
 10
-738.1037
 20
-19.1407
 30
0.0
 10
-738.1037
 20
-18.9907
 30
0.0
 10
-738.1037
 20
-16.2907
 30
0.0
 10
-738.1037
 20
-16.1407
 30
0.0
 10
-740.5937
 20
-16.1407
 30
0.0
 10
-785.4137
 20
-16.1407
 30
0.0
 10
-787.9037
 20
-16.1407
 30
0.0
 10
-787.9037
 20
-16.2907
 30
0.0
 10
-787.9037
 20
-18.9907
 30
0.0
 10
-787.9037
 20
-19.1407
 30
0.0
 10
-790.3937
 20
-19.1407
 30
0.0
 10
-835.2137
 20
-19.1407
 30
0.0
 10
-837.7037
 20
-19.1407
 30
0.0
 10
-837.7037
 20
-18.9907
 30
0.0
 10
-837.7037
 20
-16.2907
 30
0.0
 10
-837.7037
 20
-16.1407
 30
0.0
 10
-838.9487
 20
-16.1407
 30
0.0
 10
-861.3587
 20
-16.1407
 30
0.0
 10
-862.6037
 20
-16.1407
 30
0.0
 10
-862.6037
 20
-16.2907
 30
0.0
 10
-862.6037
 20
-18.9907
 30
0.0
 10
-862.6037
 20
-19.1407
 30
0.0
 10
-862.7537
 20
-19.1407
 30
0.0
 10
-865.4537
 20
-19.1407
 30
0.0
 10
-865.6037
 20
-19.1407
 30
0.0
 10
-865.6037
 20
-16.62493
 30
0.0
 10
-865.6037
 20
28.65893
 30
0.0
 10
-865.6037
 20
31.1747
 30
0.0
 10
-865.4537
 20
31.1747
 30
0.0
 10
-862.7537
 20
31.1747
 30
0.0
 10
-862.6037
 20
31.1747
 30
0.0
 10
-862.6037
 20
33.62697
 30
0.0
 10
-862.6037
 20
77.76783
 30
0.0
 10
-862.6037
 20
80.2201
 30
0.0
 10
-862.7537
 20
80.2201
 30
0.0
 10
-865.4537
 20
80.2201
 30
0.0
 10
-865.6037
 20
80.2201
 30
0.0
 10
-865.6037
 20
82.67237
 30
0.0
 10
-865.6037
 20
126.81323
 30
0.0
 10
-865.6037
 20
129.2655
 30
0.0
 10
-865.4537
 20
129.2655
 30
0.0
 10
-862.7537
 20
129.2655
 30
0.0
 10
-862.6037
 20
129.2655
 30
0.0
 10
-862.6037
 20
131.71777
 30
0.0
 10
-862.6037
 20
175.85863
 30
0.0
 10
-862.6037
 20
178.3109
 30
0.0
 10
-862.7537
 20
178.3109
 30
0.0
 10
-865.4537
 20
178.3109
 30
0.0
 10
-865.6037
 20
178.3109
 30
0.0
 10
-865.6037
 20
180.82667
 30
0.0
 10
-865.6037
 20
226.11053
 30
0.0
 10
-865.6037
 20
228.6263
 30
0.0
 10
-865.4537
 20
228.6263
 30
0.0
 10
-862.7537
 20
228.6263
 30
0.0
 10
-862.6037
 20
228.6263
 30
0.0
 10
-862.6037
 20
228.4763
 30
0.0
 10
-862.6037
 20
225.7763
 30
0.0
 10
-862.6037
 20
225.6263
 30
0.0
 10
-861.3587
 20
225.6263
 30
0.0
 10
-838.9487
 20
225.6263
 30
0.0
 10
-837.7037
 20
225.6263
 30
0.0
 10
-837.7037
 20
225.7763
 30
0.0
 10
-837.7037
 20
228.4763
 30
0.0
 10
-837.7037
 20
228.6263
 30
0.0
 10
-835.2137
 20
228.6263
 30
0.0
 10
-790.3937
 20
228.6263
 30
0.0
 10
-787.9037
 20
228.6263
 30
0.0
 10
-787.9037
 20
228.4763
 30
0.0
 10
-787.9037
 20
225.7763
 30
0.0
 10
-787.9037
 20
225.6263
 30
0.0
 10
-785.4137
 20
225.6263
 30
0.0
 10
-740.5937
 20
225.6263
 30
0.0
 10
-738.1037
 20
225.6263
 30
0.0
 10
-738.1037
 20
225.7763
 30
0.0
 10
-738.1037
 20
228.4763
 30
0.0
 10
-738.1037
 20
228.6263
 30
0.0
 10
-735.6137
 20
228.6263
 30
0.0
 10
-690.7937
 20
228.6263
 30
0.0
 10
-688.3037
 20
228.6263
 30
0.0
 10
-688.3037
 20
228.4763
 30
0.0
 10
-688.3037
 20
225.7763
 30
0.0
 10
-688.3037
 20
225.6263
 30
0.0
 10
-685.8137
 20
225.6263
 30
0.0
 10
-640.9937
 20
225.6263
 30
0.0
 10
-638.5037
 20
225.6263
 30
0.0
 10
-638.5037
 20
225.7763
 30
0.0
 10
-638.5037
 20
228.4763
 30
0.0
 10
-638.5037
 20
228.6263
 30
0.0
 10
-636.0137
 20
228.6263
 30
0.0
 10
-591.1937
 20
228.6263
 30
0.0
 10
-588.7037
 20
228.6263
 30
0.0
 10
-588.7037
 20
228.4763
 30
0.0
 10
-588.7037
 20
225.7763
 30
0.0
 10
-588.7037
 20
225.6263
 30
0.0
 10
-586.2137
 20
225.6263
 30
0.0
 10
-541.3937
 20
225.6263
 30
0.0
 10
-538.9037
 20
225.6263
 30
0.0
 10
-538.9037
 20
225.7763
 30
0.0
 10
-538.9037
 20
228.4763
 30
0.0
 10
-538.9037
 20
228.6263
 30
0.0
 10
-536.4137
 20
228.6263
 30
0.0
 10
-491.5937
 20
228.6263
 30
0.0
 10
-489.1037
 20
228.6263
 30
0.0
 10
-489.1037
 20
228.4763
 30
0.0
 10
-489.1037
 20
225.7763
 30
0.0
 10
-489.1037
 20
225.6263
 30
0.0
 10
-486.6137
 20
225.6263
 30
0.0
 10
-441.7937
 20
225.6263
 30
0.0
 10
-439.3037
 20
225.6263
 30
0.0
 10
-439.3037
 20
225.7763
 30
0.0
 10
-439.3037
 20
228.4763
 30
0.0
 10
-439.3037
 20
228.6263
 30
0.0
 10
-436.8137
 20
228.6263
 30
0.0
 10
-391.9937
 20
228.6263
 30
0.0
 10
-389.5037
 20
228.6263
 30
0.0
 10
-389.5037
 20
228.4763
 30
0.0
 10
-389.5037
 20
225.7763
 30
0.0
 10
-389.5037
 20
225.6263
 30
0.0
 10
-388.2587
 20
225.6263
 30
0.0
 10
-365.8487
 20
225.6263
 30
0.0
 10
-364.6037
 20
225.6263
 30
0.0
  0
SPLINE
  5
e4
100
AcDbEntity
  8
Layer_1
100
AcDbSpline
 70
     9
 71
     3
 72
    17
 73
    13
 74
     0
 42
0.0000001
 43
0.0000001
 40
0.0
 40
0.0
 40
0.0
 40
0.0
 40
1.0
 40
1.0
 40
1.0
 40
2.0
 40
2.0
 40
2.0
 40
3.0
 40
3.0
 40
3.0
 40
4.0
 40
4.0
 40
4.0
 40
4.0
 10
-548.6037
 20
42.2428
 30
0.0
 10
-548.6037
 20
43.6235
 30
0.0
 10
-549.723
 20
44.7428
 30
0.0
 10
-551.1037
 20
44.7428
 30
0.0
 10
-552.4844
 20
44.7428
 30
0.0
 10
-553.6037
 20
43.6235
 30
0.0
 10
-553.6037
 20
42.2428
 30
0.0
 10
-553.6037
 20
40.8621
 30
0.0
 10
-552.4844
 20
39.7428
 30
0.0
 10
-551.1037
 20
39.7428
 30
0.0
 10
-549.723
 20
39.7428
 30
0.0
 10
-548.6037
 20
40.8621
 30
0.0
 10
-548.6037
 20
42.2428
 30
0.0
  0
SPLINE
  5
e5
100
AcDbEntity
  8
Layer_1
100
AcDbSpline
 70
     9
 71
     3
 72
    17
 73
    13
 74
     0
 42
0.0000001
 43
0.0000001
 40
0.0
 40
0.0
 40
0.0
 40
0.0
 40
1.0
 40
1.0
 40
1.0
 40
2.0
 40
2.0
 40
2.0
 40
3.0
 40
3.0
 40
3.0
 40
4.0
 40
4.0
 40
4.0
 40
4.0
 10
-673.6037
 20
167.2428
 30
0.0
 10
-673.6037
 20
168.6235
 30
0.0
 10
-674.723
 20
169.7428
 30
0.0
 10
-676.1037
 20
169.7428
 30
0.0
 10
-677.4844
 20
169.7428
 30
0.0
 10
-678.6037
 20
168.6235
 30
0.0
 10
-678.6037
 20
167.2428
 30
0.0
 10
-678.6037
 20
165.8621
 30
0.0
 10
-677.4844
 20
164.7428
 30
0.0
 10
-676.1037
 20
164.7428
 30
0.0
 10
-674.723
 20
164.7428
 30
0.0
 10
-673.6037
 20
165.8621
 30
0.0
 10
-673.6037
 20
167.2428
 30
0.0
  0
SPLINE
  5
e6
100
AcDbEntity
  8
Layer_1
100
AcDbSpline
 70
     9
 71
     3
 72
    17
 73
    13
 74
     0
 42
0.0000001
 43
0.0000001
 40
0.0
 40
0.0
 40
0.0
 40
0.0
 40
1.0
 40
1.0
 40
1.0
 40
2.0
 40
2.0
 40
2.0
 40
3.0
 40
3.0
 40
3.0
 40
4.0
 40
4.0
 40
4.0
 40
4.0
 10
-548.6037
 20
167.2428
 30
0.0
 10
-548.6037
 20
168.6235
 30
0.0
 10
-549.723
 20
169.7428
 30
0.0
 10
-551.1037
 20
169.7428
 30
0.0
 10
-552.4844
 20
169.7428
 30
0.0
 10
-553.6037
 20
168.6235
 30
0.0
 10
-553.6037
 20
167.2428
 30
0.0
 10
-553.6037
 20
165.8621
 30
0.0
 10
-552.4844
 20
164.7428
 30
0.0
 10
-551.1037
 20
164.7428
 30
0.0
 10
-549.723
 20
164.7428
 30
0.0
 10
-548.6037
 20
165.8621
 30
0.0
 10
-548.6037
 20
167.2428
 30
0.0
  0
SPLINE
  5
e7
100
AcDbEntity
  8
Layer_1
100
AcDbSpline
 70
     9
 71
     3
 72
    17
 73
    13
 74
     0
 42
0.0000001
 43
0.0000001
 40
0.0
 40
0.0
 40
0.0
 40
0.0
 40
1.0
 40
1.0
 40
1.0
 40
2.0
 40
2.0
 40
2.0
 40
3.0
 40
3.0
 40
3.0
 40
4.0
 40
4.0
 40
4.0
 40
4.0
 10
-673.6037
 20
42.2428
 30
0.0
 10
-673.6037
 20
43.6235
 30
0.0
 10
-674.723
 20
44.7428
 30
0.0
 10
-676.1037
 20
44.7428
 30
0.0
 10
-677.4844
 20
44.7428
 30
0.0
 10
-678.6037
 20
43.6235
 30
0.0
 10
-678.6037
 20
42.2428
 30
0.0
 10
-678.6037
 20
40.8621
 30
0.0
 10
-677.4844
 20
39.7428
 30
0.0
 10
-676.1037
 20
39.7428
 30
0.0
 10
-674.723
 20
39.7428
 30
0.0
 10
-673.6037
 20
40.8621
 30
0.0
 10
-673.6037
 20
42.2428
 30
0.0
  0
SPLINE
  5
e8
100
AcDbEntity
  8
Layer_1
100
AcDbSpline
 70
     9
 71
     3
 72
    17
 73
    13
 74
     0
 42
0.0000001
 43
0.0000001
 40
0.0
 40
0.0
 40
0.0
 40
0.0
 40
1.0
 40
1.0
 40
1.0
 40
2.0
 40
2.0
 40
2.0
 40
3.0
 40
3.0
 40
3.0
 40
4.0
 40
4.0
 40
4.0
 40
4.0
 10
-700.6037
 20
42.2428
 30
0.0
 10
-700.6037
 20
43.6235
 30
0.0
 10
-701.723
 20
44.7428
 30
0.0
 10
-703.1037
 20
44.7428
 30
0.0
 10
-704.4844
 20
44.7428
 30
0.0
 10
-705.6037
 20
43.6235
 30
0.0
 10
-705.6037
 20
42.2428
 30
0.0
 10
-705.6037
 20
40.8621
 30
0.0
 10
-704.4844
 20
39.7428
 30
0.0
 10
-703.1037
 20
39.7428
 30
0.0
 10
-701.723
 20
39.7428
 30
0.0
 10
-700.6037
 20
40.8621
 30
0.0
 10
-700.6037
 20
42.2428
 30
0.0
  0
SPLINE
  5
e9
100
AcDbEntity
  8
Layer_1
100
AcDbSpline
 70
     9
 71
     3
 72
    17
 73
    13
 74
     0
 42
0.0000001
 43
0.0000001
 40
0.0
 40
0.0
 40
0.0
 40
0.0
 40
1.0
 40
1.0
 40
1.0
 40
2.0
 40
2.0
 40
2.0
 40
3.0
 40
3.0
 40
3.0
 40
4.0
 40
4.0
 40
4.0
 40
4.0
 10
-825.6037
 20
167.2428
 30
0.0
 10
-825.6037
 20
168.6235
 30
0.0
 10
-826.723
 20
169.7428
 30
0.0
 10
-828.1037
 20
169.7428
 30
0.0
 10
-829.4844
 20
169.7428
 30
0.0
 10
-830.6037
 20
168.6235
 30
0.0
 10
-830.6037
 20
167.2428
 30
0.0
 10
-830.6037
 20
165.8621
 30
0.0
 10
-829.4844
 20
164.7428
 30
0.0
 10
-828.1037
 20
164.7428
 30
0.0
 10
-826.723
 20
164.7428
 30
0.0
 10
-825.6037
 20
165.8621
 30
0.0
 10
-825.6037
 20
167.2428
 30
0.0
  0
SPLINE
  5
ea
100
AcDbEntity
  8
Layer_1
100
AcDbSpline
 70
     9
 71
     3
 72
    17
 73
    13
 74
     0
 42
0.0000001
 43
0.0000001
 40
0.0
 40
0.0
 40
0.0
 40
0.0
 40
1.0
 40
1.0
 40
1.0
 40
2.0
 40
2.0
 40
2.0
 40
3.0
 40
3.0
 40
3.0
 40
4.0
 40
4.0
 40
4.0
 40
4.0
 10
-700.6037
 20
167.2428
 30
0.0
 10
-700.6037
 20
168.6235
 30
0.0
 10
-701.723
 20
169.7428
 30
0.0
 10
-703.1037
 20
169.7428
 30
0.0
 10
-704.4844
 20
169.7428
 30
0.0
 10
-705.6037
 20
168.6235
 30
0.0
 10
-705.6037
 20
167.2428
 30
0.0
 10
-705.6037
 20
165.8621
 30
0.0
 10
-704.4844
 20
164.7428
 30
0.0
 10
-703.1037
 20
164.7428
 30
0.0
 10
-701.723
 20
164.7428
 30
0.0
 10
-700.6037
 20
165.8621
 30
0.0
 10
-700.6037
 20
167.2428
 30
0.0
  0
SPLINE
  5
eb
100
AcDbEntity
  8
Layer_1
100
AcDbSpline
 70
     9
 71
     3
 72
    17
 73
    13
 74
     0
 42
0.0000001
 43
0.0000001
 40
0.0
 40
0.0
 40
0.0
 40
0.0
 40
1.0
 40
1.0
 40
1.0
 40
2.0
 40
2.0
 40
2.0
 40
3.0
 40
3.0
 40
3.0
 40
4.0
 40
4.0
 40
4.0
 40
4.0
 10
-825.6037
 20
42.2428
 30
0.0
 10
-825.6037
 20
43.6235
 30
0.0
 10
-826.723
 20
44.7428
 30
0.0
 10
-828.1037
 20
44.7428
 30
0.0
 10
-829.4844
 20
44.7428
 30
0.0
 10
-830.6037
 20
43.6235
 30
0.0
 10
-830.6037
 20
42.2428
 30
0.0
 10
-830.6037
 20
40.8621
 30
0.0
 10
-829.4844
 20
39.7428
 30
0.0
 10
-828.1037
 20
39.7428
 30
0.0
 10
-826.723
 20
39.7428
 30
0.0
 10
-825.6037
 20
40.8621
 30
0.0
 10
-825.6037
 20
42.2428
 30
0.0
  0
SPLINE
  5
ec
100
AcDbEntity
  8
Layer_1
100
AcDbSpline
 70
     9
 71
     3
 72
    17
 73
    13
 74
     0
 42
0.0000001
 43
0.0000001
 40
0.0
 40
0.0
 40
0.0
 40
0.0
 40
1.0
 40
1.0
 40
1.0
 40
2.0
 40
2.0
 40
2.0
 40
3.0
 40
3.0
 40
3.0
 40
4.0
 40
4.0
 40
4.0
 40
4.0
 10
-396.6037
 20
42.2428
 30
0.0
 10
-396.6037
 20
43.6235
 30
0.0
 10
-397.723
 20
44.7428
 30
0.0
 10
-399.1037
 20
44.7428
 30
0.0
 10
-400.4844
 20
44.7428
 30
0.0
 10
-401.6037
 20
43.6235
 30
0.0
 10
-401.6037
 20
42.2428
 30
0.0
 10
-401.6037
 20
40.8621
 30
0.0
 10
-400.4844
 20
39.7428
 30
0.0
 10
-399.1037
 20
39.7428
 30
0.0
 10
-397.723
 20
39.7428
 30
0.0
 10
-396.6037
 20
40.8621
 30
0.0
 10
-396.6037
 20
42.2428
 30
0.0
  0
SPLINE
  5
ed
100
AcDbEntity
  8
Layer_1
100
AcDbSpline
 70
     9
 71
     3
 72
    17
 73
    13
 74
     0
 42
0.0000001
 43
0.0000001
 40
0.0
 40
0.0
 40
0.0
 40
0.0
 40
1.0
 40
1.0
 40
1.0
 40
2.0
 40
2.0
 40
2.0
 40
3.0
 40
3.0
 40
3.0
 40
4.0
 40
4.0
 40
4.0
 40
4.0
 10
-521.6037
 20
167.2428
 30
0.0
 10
-521.6037
 20
168.6235
 30
0.0
 10
-522.723
 20
169.7428
 30
0.0
 10
-524.1037
 20
169.7428
 30
0.0
 10
-525.4844
 20
169.7428
 30
0.0
 10
-526.6037
 20
168.6235
 30
0.0
 10
-526.6037
 20
167.2428
 30
0.0
 10
-526.6037
 20
165.8621
 30
0.0
 10
-525.4844
 20
164.7428
 30
0.0
 10
-524.1037
 20
164.7428
 30
0.0
 10
-522.723
 20
164.7428
 30
0.0
 10
-521.6037
 20
165.8621
 30
0.0
 10
-521.6037
 20
167.2428
 30
0.0
  0
SPLINE
  5
ee
100
AcDbEntity
  8
Layer_1
100
AcDbSpline
 70
     9
 71
     3
 72
    17
 73
    13
 74
     0
 42
0.0000001
 43
0.0000001
 40
0.0
 40
0.0
 40
0.0
 40
0.0
 40
1.0
 40
1.0
 40
1.0
 40
2.0
 40
2.0
 40
2.0
 40
3.0
 40
3.0
 40
3.0
 40
4.0
 40
4.0
 40
4.0
 40
4.0
 10
-396.6037
 20
167.2428
 30
0.0
 10
-396.6037
 20
168.6235
 30
0.0
 10
-397.723
 20
169.7428
 30
0.0
 10
-399.1037
 20
169.7428
 30
0.0
 10
-400.4844
 20
169.7428
 30
0.0
 10
-401.6037
 20
168.6235
 30
0.0
 10
-401.6037
 20
167.2428
 30
0.0
 10
-401.6037
 20
165.8621
 30
0.0
 10
-400.4844
 20
164.7428
 30
0.0
 10
-399.1037
 20
164.7428
 30
0.0
 10
-397.723
 20
164.7428
 30
0.0
 10
-396.6037
 20
165.8621
 30
0.0
 10
-396.6037
 20
167.2428
 30
0.0
  0
SPLINE
  5
ef
100
AcDbEntity
  8
Layer_1
100
AcDbSpline
 70
     9
 71
     3
 72
    17
 73
    13
 74
     0
 42
0.0000001
 43
0.0000001
 40
0.0
 40
0.0
 40
0.0
 40
0.0
 40
1.0
 40
1.0
 40
1.0
 40
2.0
 40
2.0
 40
2.0
 40
3.0
 40
3.0
 40
3.0
 40
4.0
 40
4.0
 40
4.0
 40
4.0
 10
-521.6037
 20
42.2428
 30
0.0
 10
-521.6037
 20
43.6235
 30
0.0
 10
-522.723
 20
44.7428
 30
0.0
 10
-524.1037
 20
44.7428
 30
0.0
 10
-525.4844
 20
44.7428
 30
0.0
 10
-526.6037
 20
43.6235
 30
0.0
 10
-526.6037
 20
42.2428
 30
0.0
 10
-526.6037
 20
40.8621
 30
0.0
 10
-525.4844
 20
39.7428
 30
0.0
 10
-524.1037
 20
39.7428
 30
0.0
 10
-522.723
 20
39.7428
 30
0.0
 10
-521.6037
 20
40.8621
 30
0.0
 10
-521.6037
 20
42.2428
 30
0.0
  0
SPLINE
  5
f0
100
AcDbEntity
  8
Layer_1
100
AcDbSpline
 70
     9
 71
     3
 72
    17
 73
    13
 74
     0
 42
0.0000001
 43
0.0000001
 40
0.0
 40
0.0
 40
0.0
 40
0.0
 40
1.0
 40
1.0
 40
1.0
 40
2.0
 40
2.0
 40
2.0
 40
3.0
 40
3.0
 40
3.0
 40
4.0
 40
4.0
 40
4.0
 40
4.0
 10
-832.6036
 20
104.7428
 30
0.0
 10
-832.6036
 20
141.7458
 30
0.0
 10
-802.6066
 20
171.7428
 30
0.0
 10
-765.6036
 20
171.7428
 30
0.0
 10
-728.6006
 20
171.7428
 30
0.0
 10
-698.6036
 20
141.7458
 30
0.0
 10
-698.6036
 20
104.7428
 30
0.0
 10
-698.6036
 20
67.7398
 30
0.0
 10
-728.6006
 20
37.7428
 30
0.0
 10
-765.6036
 20
37.7428
 30
0.0
 10
-802.6066
 20
37.7428
 30
0.0
 10
-832.6036
 20
67.7398
 30
0.0
 10
-832.6036
 20
104.7428
 30
0.0
  0
SPLINE
  5
f1
100
AcDbEntity
  8
Layer_1
100
AcDbSpline
 70
     9
 71
     3
 72
    17
 73
    13
 74
     0
 42
0.0000001
 43
0.0000001
 40
0.0
 40
0.0
 40
0.0
 40
0.0
 40
1.0
 40
1.0
 40
1.0
 40
2.0
 40
2.0
 40
2.0
 40
3.0
 40
3.0
 40
3.0
 40
4.0
 40
4.0
 40
4.0
 40
4.0
 10
-680.6037
 20
104.7428
 30
0.0
 10
-680.6037
 20
141.7458
 30
0.0
 10
-650.6067
 20
171.7428
 30
0.0
 10
-613.6037
 20
171.7428
 30
0.0
 10
-576.6007
 20
171.7428
 30
0.0
 10
-546.6037
 20
141.7458
 30
0.0
 10
-546.6037
 20
104.7428
 30
0.0
 10
-546.6037
 20
67.7398
 30
0.0
 10
-576.6007
 20
37.7428
 30
0.0
 10
-613.6037
 20
37.7428
 30
0.0
 10
-650.6067
 20
37.7428
 30
0.0
 10
-680.6037
 20
67.7398
 30
0.0
 10
-680.6037
 20
104.7428
 30
0.0
  0
SPLINE
  5
f2
100
AcDbEntity
  8
Layer_1
100
AcDbSpline
 70
     9
 71
     3
 72
    17
 73
    13
 74
     0
 42
0.0000001
 43
0.0000001
 40
0.0
 40
0.0
 40
0.0
 40
0.0
 40
1.0
 40
1.0
 40
1.0
 40
2.0
 40
2.0
 40
2.0
 40
3.0
 40
3.0
 40
3.0
 40
4.0
 40
4.0
 40
4.0
 40
4.0
 10
-528.6037
 20
104.7428
 30
0.0
 10
-528.6037
 20
141.7458
 30
0.0
 10
-498.6067
 20
171.7428
 30
0.0
 10
-461.6037
 20
171.7428
 30
0.0
 10
-424.6007
 20
171.7428
 30
0.0
 10
-394.6037
 20
141.7458
 30
0.0
 10
-394.6037
 20
104.7428
 30
0.0
 10
-394.6037
 20
67.7398
 30
0.0
 10
-424.6007
 20
37.7428
 30
0.0
 10
-461.6037
 20
37.7428
 30
0.0
 10
-498.6067
 20
37.7428
 30
0.0
 10
-528.6037
 20
67.7398
 30
0.0
 10
-528.6037
 20
104.7428
 30
0.0
  0
SPLINE
  5
f3
100
AcDbEntity
  8
Layer_1
100
AcDbSpline
 70
     9
 71
     3
 72
    17
 73
    13
 74
     0
 42
0.0000001
 43
0.0000001
 40
0.0
 40
0.0
 40
0.0
 40
0.0
 40
1.0
 40
1.0
 40
1.0
 40
2.0
 40
2.0
 40
2.0
 40
3.0
 40
3.0
 40
3.0
 40
4.0
 40
4.0
 40
4.0
 40
4.0
 10
-389.5037
 20
175.8564
 30
0.0
 10
-389.5037
 20
176.0064
 30
0.0
 10
-389.5037
 20
178.7064
 30
0.0
 10
-389.5037
 20
178.8564
 30
0.0
 10
-391.9937
 20
178.8564
 30
0.0
 10
-436.8137
 20
178.8564
 30
0.0
 10
-439.3037
 20
178.8564
 30
0.0
 10
-439.3037
 20
178.7064
 30
0.0
 10
-439.3037
 20
176.0064
 30
0.0
 10
-439.3037
 20
175.8564
 30
0.0
 10
-436.8137
 20
175.8564
 30
0.0
 10
-391.9937
 20
175.8564
 30
0.0
 10
-389.5037
 20
175.8564
 30
0.0
  0
SPLINE
  5
f4
100
AcDbEntity
  8
Layer_1
100
AcDbSpline
 70
     9
 71
     3
 72
    17
 73
    13
 74
     0
 42
0.0000001
 43
0.0000001
 40
0.0
 40
0.0
 40
0.0
 40
0.0
 40
1.0
 40
1.0
 40
1.0
 40
2.0
 40
2.0
 40
2.0
 40
3.0
 40
3.0
 40
3.0
 40
4.0
 40
4.0
 40
4.0
 40
4.0
 10
-389.5037
 20
30.6292
 30
0.0
 10
-389.5037
 20
30.7792
 30
0.0
 10
-389.5037
 20
33.4792
 30
0.0
 10
-389.5037
 20
33.6292
 30
0.0
 10
-391.9937
 20
33.6292
 30
0.0
 10
-436.8137
 20
33.6292
 30
0.0
 10
-439.3037
 20
33.6292
 30
0.0
 10
-439.3037
 20
33.4792
 30
0.0
 10
-439.3037
 20
30.7792
 30
0.0
 10
-439.3037
 20
30.6292
 30
0.0
 10
-436.8137
 20
30.6292
 30
0.0
 10
-391.9937
 20
30.6292
 30
0.0
 10
-389.5037
 20
30.6292
 30
0.0
  0
SPLINE
  5
f5
100
AcDbEntity
  8
Layer_1
100
AcDbSpline
 70
     9
 71
     3
 72
    17
 73
    13
 74
     0
 42
0.0000001
 43
0.0000001
 40
0.0
 40
0.0
 40
0.0
 40
0.0
 40
1.0
 40
1.0
 40
1.0
 40
2.0
 40
2.0
 40
2.0
 40
3.0
 40
3.0
 40
3.0
 40
4.0
 40
4.0
 40
4.0
 40
4.0
 10
-489.1037
 20
175.8564
 30
0.0
 10
-489.1037
 20
176.0064
 30
0.0
 10
-489.1037
 20
178.7064
 30
0.0
 10
-489.1037
 20
178.8564
 30
0.0
 10
-491.5937
 20
178.8564
 30
0.0
 10
-536.4137
 20
178.8564
 30
0.0
 10
-538.9037
 20
178.8564
 30
0.0
 10
-538.9037
 20
178.7064
 30
0.0
 10
-538.9037
 20
176.0064
 30
0.0
 10
-538.9037
 20
175.8564
 30
0.0
 10
-536.4137
 20
175.8564
 30
0.0
 10
-491.5937
 20
175.8564
 30
0.0
 10
-489.1037
 20
175.8564
 30
0.0
  0
SPLINE
  5
f6
100
AcDbEntity
  8
Layer_1
100
AcDbSpline
 70
     9
 71
     3
 72
    17
 73
    13
 74
     0
 42
0.0000001
 43
0.0000001
 40
0.0
 40
0.0
 40
0.0
 40
0.0
 40
1.0
 40
1.0
 40
1.0
 40
2.0
 40
2.0
 40
2.0
 40
3.0
 40
3.0
 40
3.0
 40
4.0
 40
4.0
 40
4.0
 40
4.0
 10
-489.1037
 20
30.6292
 30
0.0
 10
-489.1037
 20
30.7792
 30
0.0
 10
-489.1037
 20
33.4792
 30
0.0
 10
-489.1037
 20
33.6292
 30
0.0
 10
-491.5937
 20
33.6292
 30
0.0
 10
-536.4137
 20
33.6292
 30
0.0
 10
-538.9037
 20
33.6292
 30
0.0
 10
-538.9037
 20
33.4792
 30
0.0
 10
-538.9037
 20
30.7792
 30
0.0
 10
-538.9037
 20
30.6292
 30
0.0
 10
-536.4137
 20
30.6292
 30
0.0
 10
-491.5937
 20
30.6292
 30
0.0
 10
-489.1037
 20
30.6292
 30
0.0
  0
SPLINE
  5
f7
100
AcDbEntity
  8
Layer_1
100
AcDbSpline
 70
     9
 71
     3
 72
    17
 73
    13
 74
     0
 42
0.0000001
 43
0.0000001
 40
0.0
 40
0.0
 40
0.0
 40
0.0
 40
1.0
 40
1.0
 40
1.0
 40
2.0
 40
2.0
 40
2.0
 40
3.0
 40
3.0
 40
3.0
 40
4.0
 40
4.0
 40
4.0
 40
4.0
 10
-588.7037
 20
175.8564
 30
0.0
 10
-588.7037
 20
176.0064
 30
0.0
 10
-588.7037
 20
178.7064
 30
0.0
 10
-588.7037
 20
178.8564
 30
0.0
 10
-591.1937
 20
178.8564
 30
0.0
 10
-636.0137
 20
178.8564
 30
0.0
 10
-638.5037
 20
178.8564
 30
0.0
 10
-638.5037
 20
178.7064
 30
0.0
 10
-638.5037
 20
176.0064
 30
0.0
 10
-638.5037
 20
175.8564
 30
0.0
 10
-636.0137
 20
175.8564
 30
0.0
 10
-591.1937
 20
175.8564
 30
0.0
 10
-588.7037
 20
175.8564
 30
0.0
  0
SPLINE
  5
f8
100
AcDbEntity
  8
Layer_1
100
AcDbSpline
 70
     9
 71
     3
 72
    17
 73
    13
 74
     0
 42
0.0000001
 43
0.0000001
 40
0.0
 40
0.0
 40
0.0
 40
0.0
 40
1.0
 40
1.0
 40
1.0
 40
2.0
 40
2.0
 40
2.0
 40
3.0
 40
3.0
 40
3.0
 40
4.0
 40
4.0
 40
4.0
 40
4.0
 10
-588.7037
 20
30.6292
 30
0.0
 10
-588.7037
 20
30.7792
 30
0.0
 10
-588.7037
 20
33.4792
 30
0.0
 10
-588.7037
 20
33.6292
 30
0.0
 10
-591.1937
 20
33.6292
 30
0.0
 10
-636.0137
 20
33.6292
 30
0.0
 10
-638.5037
 20
33.6292
 30
0.0
 10
-638.5037
 20
33.4792
 30
0.0
 10
-638.5037
 20
30.7792
 30
0.0
 10
-638.5037
 20
30.6292
 30
0.0
 10
-636.0137
 20
30.6292
 30
0.0
 10
-591.1937
 20
30.6292
 30
0.0
 10
-588.7037
 20
30.6292
 30
0.0
  0
SPLINE
  5
f9
100
AcDbEntity
  8
Layer_1
100
AcDbSpline
 70
     9
 71
     3
 72
    17
 73
    13
 74
     0
 42
0.0000001
 43
0.0000001
 40
0.0
 40
0.0
 40
0.0
 40
0.0
 40
1.0
 40
1.0
 40
1.0
 40
2.0
 40
2.0
 40
2.0
 40
3.0
 40
3.0
 40
3.0
 40
4.0
 40
4.0
 40
4.0
 40
4.0
 10
-688.3037
 20
175.8564
 30
0.0
 10
-688.3037
 20
176.0064
 30
0.0
 10
-688.3037
 20
178.7064
 30
0.0
 10
-688.3037
 20
178.8564
 30
0.0
 10
-690.7937
 20
178.8564
 30
0.0
 10
-735.6137
 20
178.8564
 30
0.0
 10
-738.1037
 20
178.8564
 30
0.0
 10
-738.1037
 20
178.7064
 30
0.0
 10
-738.1037
 20
176.0064
 30
0.0
 10
-738.1037
 20
175.8564
 30
0.0
 10
-735.6137
 20
175.8564
 30
0.0
 10
-690.7937
 20
175.8564
 30
0.0
 10
-688.3037
 20
175.8564
 30
0.0
  0
SPLINE
  5
fa
100
AcDbEntity
  8
Layer_1
100
AcDbSpline
 70
     9
 71
     3
 72
    17
 73
    13
 74
     0
 42
0.0000001
 43
0.0000001
 40
0.0
 40
0.0
 40
0.0
 40
0.0
 40
1.0
 40
1.0
 40
1.0
 40
2.0
 40
2.0
 40
2.0
 40
3.0
 40
3.0
 40
3.0
 40
4.0
 40
4.0
 40
4.0
 40
4.0
 10
-688.3037
 20
30.6292
 30
0.0
 10
-688.3037
 20
30.7792
 30
0.0
 10
-688.3037
 20
33.4792
 30
0.0
 10
-688.3037
 20
33.6292
 30
0.0
 10
-690.7937
 20
33.6292
 30
0.0
 10
-735.6137
 20
33.6292
 30
0.0
 10
-738.1037
 20
33.6292
 30
0.0
 10
-738.1037
 20
33.4792
 30
0.0
 10
-738.1037
 20
30.7792
 30
0.0
 10
-738.1037
 20
30.6292
 30
0.0
 10
-735.6137
 20
30.6292
 30
0.0
 10
-690.7937
 20
30.6292
 30
0.0
 10
-688.3037
 20
30.6292
 30
0.0
  0
SPLINE
  5
fb
100
AcDbEntity
  8
Layer_1
100
AcDbSpline
 70
     9
 71
     3
 72
    17
 73
    13
 74
     0
 42
0.0000001
 43
0.0000001
 40
0.0
 40
0.0
 40
0.0
 40
0.0
 40
1.0
 40
1.0
 40
1.0
 40
2.0
 40
2.0
 40
2.0
 40
3.0
 40
3.0
 40
3.0
 40
4.0
 40
4.0
 40
4.0
 40
4.0
 10
-787.9037
 20
175.8564
 30
0.0
 10
-787.9037
 20
176.0064
 30
0.0
 10
-787.9037
 20
178.7064
 30
0.0
 10
-787.9037
 20
178.8564
 30
0.0
 10
-790.3937
 20
178.8564
 30
0.0
 10
-835.2137
 20
178.8564
 30
0.0
 10
-837.7037
 20
178.8564
 30
0.0
 10
-837.7037
 20
178.7064
 30
0.0
 10
-837.7037
 20
176.0064
 30
0.0
 10
-837.7037
 20
175.8564
 30
0.0
 10
-835.2137
 20
175.8564
 30
0.0
 10
-790.3937
 20
175.8564
 30
0.0
 10
-787.9037
 20
175.8564
 30
0.0
  0
SPLINE
  5
fc
100
AcDbEntity
  8
Layer_1
100
AcDbSpline
 70
     9
 71
     3
 72
    17
 73
    13
 74
     0
 42
0.0000001
 43
0.0000001
 40
0.0
 40
0.0
 40
0.0
 40
0.0
 40
1.0
 40
1.0
 40
1.0
 40
2.0
 40
2.0
 40
2.0
 40
3.0
 40
3.0
 40
3.0
 40
4.0
 40
4.0
 40
4.0
 40
4.0
 10
-787.9037
 20
30.6292
 30
0.0
 10
-787.9037
 20
30.7792
 30
0.0
 10
-787.9037
 20
33.4792
 30
0.0
 10
-787.9037
 20
33.6292
 30
0.0
 10
-790.3937
 20
33.6292
 30
0.0
 10
-835.2137
 20
33.6292
 30
0.0
 10
-837.7037
 20
33.6292
 30
0.0
 10
-837.7037
 20
33.4792
 30
0.0
 10
-837.7037
 20
30.7792
 30
0.0
 10
-837.7037
 20
30.6292
 30
0.0
 10
-835.2137
 20
30.6292
 30
0.0
 10
-790.3937
 20
30.6292
 30
0.0
 10
-787.9037
 20
30.6292
 30
0.0
  0
SPLINE
  5
fd
100
AcDbEntity
  8
Layer_1
100
AcDbSpline
 70
     8
 71
     3
 72
    86
 73
    82
 74
     0
 42
0.0000001
 43
0.0000001
 40
0.0
 40
0.0
 40
0.0
 40
0.0
 40
1.0
 40
1.0
 40
1.0
 40
2.0
 40
2.0
 40
2.0
 40
3.0
 40
3.0
 40
3.0
 40
4.0
 40
4.0
 40
4.0
 40
5.0
 40
5.0
 40
5.0
 40
6.0
 40
6.0
 40
6.0
 40
7.0
 40
7.0
 40
7.0
 40
8.0
 40
8.0
 40
8.0
 40
9.0
 40
9.0
 40
9.0
 40
10.0
 40
10.0
 40
10.0
 40
11.0
 40
11.0
 40
11.0
 40
12.0
 40
12.0
 40
12.0
 40
13.0
 40
13.0
 40
13.0
 40
14.0
 40
14.0
 40
14.0
 40
15.0
 40
15.0
 40
15.0
 40
16.0
 40
16.0
 40
16.0
 40
17.0
 40
17.0
 40
17.0
 40
18.0
 40
18.0
 40
18.0
 40
19.0
 40
19.0
 40
19.0
 40
20.0
 40
20.0
 40
20.0
 40
21.0
 40
21.0
 40
21.0
 40
22.0
 40
22.0
 40
22.0
 40
23.0
 40
23.0
 40
23.0
 40
24.0
 40
24.0
 40
24.0
 40
25.0
 40
25.0
 40
25.0
 40
26.0
 40
26.0
 40
26.0
 40
27.0
 40
27.0
 40
27.0
 40
27.0
 10
-552.944341757005
 20
-816.1291
 30
0.0
 10
-541.116841757005
 20
-816.1291
 30
0.0
 10
-529.289341757005
 20
-816.1291
 30
0.0
 10
-528.044341757005
 20
-816.1291
 30
0.0
 10
-528.044341757005
 20
-816.2791
 30
0.0
 10
-528.044341757005
 20
-818.9791
 30
0.0
 10
-528.044341757005
 20
-819.1291
 30
0.0
 10
-525.554341757005
 20
-819.1291
 30
0.0
 10
-480.734341757005
 20
-819.1291
 30
0.0
 10
-478.244341757005
 20
-819.1291
 30
0.0
 10
-478.244341757005
 20
-818.9791
 30
0.0
 10
-478.244341757005
 20
-816.2791
 30
0.0
 10
-478.244341757005
 20
-816.1291
 30
0.0
 10
-475.754341757005
 20
-816.1291
 30
0.0
 10
-430.934341757005
 20
-816.1291
 30
0.0
 10
-428.444341757005
 20
-816.1291
 30
0.0
 10
-428.444341757005
 20
-816.2791
 30
0.0
 10
-428.444341757005
 20
-818.9791
 30
0.0
 10
-428.444341757005
 20
-819.1291
 30
0.0
 10
-425.954341757005
 20
-819.1291
 30
0.0
 10
-381.134341757005
 20
-819.1291
 30
0.0
 10
-378.644341757005
 20
-819.1291
 30
0.0
 10
-378.644341757005
 20
-818.9791
 30
0.0
 10
-378.644341757005
 20
-816.2791
 30
0.0
 10
-378.644341757005
 20
-816.1291
 30
0.0
 10
-376.154341757005
 20
-816.1291
 30
0.0
 10
-331.334341757005
 20
-816.1291
 30
0.0
 10
-328.844341757005
 20
-816.1291
 30
0.0
 10
-328.844341757005
 20
-816.2791
 30
0.0
 10
-328.844341757005
 20
-818.9791
 30
0.0
 10
-328.844341757005
 20
-819.1291
 30
0.0
 10
-327.599341757005
 20
-819.1291
 30
0.0
 10
-305.189341757005
 20
-819.1291
 30
0.0
 10
-303.944341757005
 20
-819.1291
 30
0.0
 10
-303.944341757005
 20
-818.9791
 30
0.0
 10
-303.944341757005
 20
-816.2791
 30
0.0
 10
-303.944341757005
 20
-816.1291
 30
0.0
 10
-303.794341757005
 20
-816.1291
 30
0.0
 10
-301.094341757005
 20
-816.1291
 30
0.0
 10
-300.944341757005
 20
-816.1291
 30
0.0
 10
-300.944341757005
 20
-791.3291
 30
0.0
 10
-300.944341757005
 20
-344.9291
 30
0.0
 10
-300.944341757005
 20
-320.1291
 30
0.0
 10
-301.094341757005
 20
-320.1291
 30
0.0
 10
-303.794341757005
 20
-320.1291
 30
0.0
 10
-303.944341757005
 20
-320.1291
 30
0.0
 10
-303.944341757005
 20
-319.9791
 30
0.0
 10
-303.944341757005
 20
-317.2791
 30
0.0
 10
-303.944341757005
 20
-317.1291
 30
0.0
 10
-305.189341757005
 20
-317.1291
 30
0.0
 10
-327.599341757005
 20
-317.1291
 30
0.0
 10
-328.844341757005
 20
-317.1291
 30
0.0
 10
-328.844341757005
 20
-317.2791
 30
0.0
 10
-328.844341757005
 20
-319.9791
 30
0.0
 10
-328.844341757005
 20
-320.1291
 30
0.0
 10
-331.334341757005
 20
-320.1291
 30
0.0
 10
-376.154341757005
 20
-320.1291
 30
0.0
 10
-378.644341757005
 20
-320.1291
 30
0.0
 10
-378.644341757005
 20
-319.9791
 30
0.0
 10
-378.644341757005
 20
-317.2791
 30
0.0
 10
-378.644341757005
 20
-317.1291
 30
0.0
 10
-381.134341757005
 20
-317.1291
 30
0.0
 10
-425.954341757005
 20
-317.1291
 30
0.0
 10
-428.444341757005
 20
-317.1291
 30
0.0
 10
-428.444341757005
 20
-317.2791
 30
0.0
 10
-428.444341757005
 20
-319.9791
 30
0.0
 10
-428.444341757005
 20
-320.1291
 30
0.0
 10
-430.934341757005
 20
-320.1291
 30
0.0
 10
-475.754341757005
 20
-320.1291
 30
0.0
 10
-478.244341757005
 20
-320.1291
 30
0.0
 10
-478.244341757005
 20
-319.9791
 30
0.0
 10
-478.244341757005
 20
-317.2791
 30
0.0
 10
-478.244341757005
 20
-317.1291
 30
0.0
 10
-480.734341757005
 20
-317.1291
 30
0.0
 10
-525.554341757005
 20
-317.1291
 30
0.0
 10
-528.044341757005
 20
-317.1291
 30
0.0
 10
-528.044341757005
 20
-317.2791
 30
0.0
 10
-528.044341757005
 20
-319.9791
 30
0.0
 10
-528.044341757005
 20
-320.1291
 30
0.0
 10
-529.289341757005
 20
-320.1291
 30
0.0
 10
-541.116841757005
 20
-320.1291
 30
0.0
 10
-552.944341757005
 20
-320.1291
 30
0.0
  0
SPLINE
  5
fe
100
AcDbEntity
  8
Layer_1
100
AcDbSpline
 70
     8
 71
     3
 72
    20
 73
    16
 74
     0
 42
0.0000001
 43
0.0000001
 40
0.0
 40
0.0
 40
0.0
 40
0.0
 40
1.0
 40
1.0
 40
1.0
 40
2.0
 40
2.0
 40
2.0
 40
3.0
 40
3.0
 40
3.0
 40
4.0
 40
4.0
 40
4.0
 40
5.0
 40
5.0
 40
5.0
 40
5.0
 10
-552.944341757005
 20
-350.1291
 30
0.0
 10
-452.719341757005
 20
-350.1291
 30
0.0
 10
-352.494341757005
 20
-350.1291
 30
0.0
 10
-341.944341757005
 20
-350.1291
 30
0.0
 10
-337.538141757005
 20
-350.1291
 30
0.0
 10
-333.944341757005
 20
-353.6741
 30
0.0
 10
-333.944341757005
 20
-358.0205
 30
0.0
 10
-333.944341757005
 20
-379.03136
 30
0.0
 10
-333.944341757005
 20
-757.22684
 30
0.0
 10
-333.944341757005
 20
-778.2377
 30
0.0
 10
-333.944341757005
 20
-782.5841
 30
0.0
 10
-337.538141757005
 20
-786.1291
 30
0.0
 10
-341.944341757005
 20
-786.1291
 30
0.0
 10
-352.494341757005
 20
-786.1291
 30
0.0
 10
-452.719341757005
 20
-786.1291
 30
0.0
 10
-552.944341757005
 20
-786.1291
 30
0.0
  0
LINE
  5
ff
100
AcDbEntity
  8
0
100
AcDbLine
 10
-552.944341757005
 20
-320.1291
 30
0.0
 11
-552.944341757005
 21
-350.1291
 31
0.0
  0
LINE
  5
100
100
AcDbEntity
  8
0
100
AcDbLine
 10
-552.944341757005
 20
-786.1291
 30
0.0
 11
-552.944341757005
 21
-816.1291
 31
0.0
  0
SPLINE
  5
101
100
AcDbEntity
  8
Layer_1
100
AcDbSpline
 70
     8
 71
     3
 72
   140
 73
   136
 74
     0
 42
0.0000001
 43
0.0000001
 40
0.0
 40
0.0
 40
0.0
 40
0.0
 40
1.0
 40
1.0
 40
1.0
 40
2.0
 40
2.0
 40
2.0
 40
3.0
 40
3.0
 40
3.0
 40
4.0
 40
4.0
 40
4.0
 40
5.0
 40
5.0
 40
5.0
 40
6.0
 40
6.0
 40
6.0
 40
7.0
 40
7.0
 40
7.0
 40
8.0
 40
8.0
 40
8.0
 40
9.0
 40
9.0
 40
9.0
 40
10.0
 40
10.0
 40
10.0
 40
11.0
 40
11.0
 40
11.0
 40
12.0
 40
12.0
 40
12.0
 40
13.0
 40
13.0
 40
13.0
 40
14.0
 40
14.0
 40
14.0
 40
15.0
 40
15.0
 40
15.0
 40
16.0
 40
16.0
 40
16.0
 40
17.0
 40
17.0
 40
17.0
 40
18.0
 40
18.0
 40
18.0
 40
19.0
 40
19.0
 40
19.0
 40
20.0
 40
20.0
 40
20.0
 40
21.0
 40
21.0
 40
21.0
 40
22.0
 40
22.0
 40
22.0
 40
23.0
 40
23.0
 40
23.0
 40
24.0
 40
24.0
 40
24.0
 40
25.0
 40
25.0
 40
25.0
 40
26.0
 40
26.0
 40
26.0
 40
27.0
 40
27.0
 40
27.0
 40
28.0
 40
28.0
 40
28.0
 40
29.0
 40
29.0
 40
29.0
 40
30.0
 40
30.0
 40
30.0
 40
31.0
 40
31.0
 40
31.0
 40
32.0
 40
32.0
 40
32.0
 40
33.0
 40
33.0
 40
33.0
 40
34.0
 40
34.0
 40
34.0
 40
35.0
 40
35.0
 40
35.0
 40
36.0
 40
36.0
 40
36.0
 40
37.0
 40
37.0
 40
37.0
 40
38.0
 40
38.0
 40
38.0
 40
39.0
 40
39.0
 40
39.0
 40
40.0
 40
40.0
 40
40.0
 40
41.0
 40
41.0
 40
41.0
 40
42.0
 40
42.0
 40
42.0
 40
43.0
 40
43.0
 40
43.0
 40
44.0
 40
44.0
 40
44.0
 40
45.0
 40
45.0
 40
45.0
 40
45.0
 10
-345.0
 20
-368.0
 30
0.0
 10
-356.8275
 20
-368.0
 30
0.0
 10
-368.655
 20
-368.0
 30
0.0
 10
-369.9
 20
-368.0
 30
0.0
 10
-369.9
 20
-367.85
 30
0.0
 10
-369.9
 20
-365.15
 30
0.0
 10
-369.9
 20
-365.0
 30
0.0
 10
-372.39
 20
-365.0
 30
0.0
 10
-417.21
 20
-365.0
 30
0.0
 10
-419.7
 20
-365.0
 30
0.0
 10
-419.7
 20
-365.15
 30
0.0
 10
-419.7
 20
-367.85
 30
0.0
 10
-419.7
 20
-368.0
 30
0.0
 10
-422.19
 20
-368.0
 30
0.0
 10
-467.01
 20
-368.0
 30
0.0
 10
-469.5
 20
-368.0
 30
0.0
 10
-469.5
 20
-367.85
 30
0.0
 10
-469.5
 20
-365.15
 30
0.0
 10
-469.5
 20
-365.0
 30
0.0
 10
-471.99
 20
-365.0
 30
0.0
 10
-516.81
 20
-365.0
 30
0.0
 10
-519.3
 20
-365.0
 30
0.0
 10
-519.3
 20
-365.15
 30
0.0
 10
-519.3
 20
-367.85
 30
0.0
 10
-519.3
 20
-368.0
 30
0.0
 10
-521.79
 20
-368.0
 30
0.0
 10
-566.61
 20
-368.0
 30
0.0
 10
-569.1
 20
-368.0
 30
0.0
 10
-569.1
 20
-367.85
 30
0.0
 10
-569.1
 20
-365.15
 30
0.0
 10
-569.1
 20
-365.0
 30
0.0
 10
-570.345
 20
-365.0
 30
0.0
 10
-592.755
 20
-365.0
 30
0.0
 10
-594.0
 20
-365.0
 30
0.0
 10
-594.0
 20
-365.15
 30
0.0
 10
-594.0
 20
-367.85
 30
0.0
 10
-594.0
 20
-368.0
 30
0.0
 10
-594.0
 20
-369.105
 30
0.0
 10
-594.0
 20
-388.995
 30
0.0
 10
-594.0
 20
-390.1
 30
0.0
 10
-594.15
 20
-390.1
 30
0.0
 10
-596.85
 20
-390.1
 30
0.0
 10
-597.0
 20
-390.1
 30
0.0
 10
-597.0
 20
-392.61
 30
0.0
 10
-597.0
 20
-437.79
 30
0.0
 10
-597.0
 20
-440.3
 30
0.0
 10
-596.85
 20
-440.3
 30
0.0
 10
-594.15
 20
-440.3
 30
0.0
 10
-594.0
 20
-440.3
 30
0.0
 10
-594.0
 20
-442.81
 30
0.0
 10
-594.0
 20
-487.99
 30
0.0
 10
-594.0
 20
-490.5
 30
0.0
 10
-594.15
 20
-490.5
 30
0.0
 10
-596.85
 20
-490.5
 30
0.0
 10
-597.0
 20
-490.5
 30
0.0
 10
-597.0
 20
-493.01
 30
0.0
 10
-597.0
 20
-538.19
 30
0.0
 10
-597.0
 20
-540.7
 30
0.0
 10
-596.85
 20
-540.7
 30
0.0
 10
-594.15
 20
-540.7
 30
0.0
 10
-594.0
 20
-540.7
 30
0.0
 10
-594.0
 20
-543.21
 30
0.0
 10
-594.0
 20
-588.39
 30
0.0
 10
-594.0
 20
-590.9
 30
0.0
 10
-594.15
 20
-590.9
 30
0.0
 10
-596.85
 20
-590.9
 30
0.0
 10
-597.0
 20
-590.9
 30
0.0
 10
-597.0
 20
-593.41
 30
0.0
 10
-597.0
 20
-638.59
 30
0.0
 10
-597.0
 20
-641.1
 30
0.0
 10
-596.85
 20
-641.1
 30
0.0
 10
-594.15
 20
-641.1
 30
0.0
 10
-594.0
 20
-641.1
 30
0.0
 10
-594.0
 20
-643.61
 30
0.0
 10
-594.0
 20
-688.79
 30
0.0
 10
-594.0
 20
-691.3
 30
0.0
 10
-594.15
 20
-691.3
 30
0.0
 10
-596.85
 20
-691.3
 30
0.0
 10
-597.0
 20
-691.3
 30
0.0
 10
-597.0
 20
-693.81
 30
0.0
 10
-597.0
 20
-738.99
 30
0.0
 10
-597.0
 20
-741.5
 30
0.0
 10
-596.85
 20
-741.5
 30
0.0
 10
-594.15
 20
-741.5
 30
0.0
 10
-594.0
 20
-741.5
 30
0.0
 10
-594.0
 20
-744.01
 30
0.0
 10
-594.0
 20
-789.19
 30
0.0
 10
-594.0
 20
-791.7
 30
0.0
 10
-594.15
 20
-791.7
 30
0.0
 10
-596.85
 20
-791.7
 30
0.0
 10
-597.0
 20
-791.7
 30
0.0
 10
-597.0
 20
-794.21
 30
0.0
 10
-597.0
 20
-839.39
 30
0.0
 10
-597.0
 20
-841.9
 30
0.0
 10
-596.85
 20
-841.9
 30
0.0
 10
-594.15
 20
-841.9
 30
0.0
 10
-594.0
 20
-841.9
 30
0.0
 10
-594.0
 20
-843.005
 30
0.0
 10
-594.0
 20
-862.895
 30
0.0
 10
-594.0
 20
-864.0
 30
0.0
 10
-594.0
 20
-864.15
 30
0.0
 10
-594.0
 20
-866.85
 30
0.0
 10
-594.0
 20
-867.0
 30
0.0
 10
-592.755
 20
-867.0
 30
0.0
 10
-570.345
 20
-867.0
 30
0.0
 10
-569.1
 20
-867.0
 30
0.0
 10
-569.1
 20
-866.85
 30
0.0
 10
-569.1
 20
-864.15
 30
0.0
 10
-569.1
 20
-864.0
 30
0.0
 10
-566.61
 20
-864.0
 30
0.0
 10
-521.79
 20
-864.0
 30
0.0
 10
-519.3
 20
-864.0
 30
0.0
 10
-519.3
 20
-864.15
 30
0.0
 10
-519.3
 20
-866.85
 30
0.0
 10
-519.3
 20
-867.0
 30
0.0
 10
-516.81
 20
-867.0
 30
0.0
 10
-471.99
 20
-867.0
 30
0.0
 10
-469.5
 20
-867.0
 30
0.0
 10
-469.5
 20
-866.85
 30
0.0
 10
-469.5
 20
-864.15
 30
0.0
 10
-469.5
 20
-864.0
 30
0.0
 10
-467.01
 20
-864.0
 30
0.0
 10
-422.19
 20
-864.0
 30
0.0
 10
-419.7
 20
-864.0
 30
0.0
 10
-419.7
 20
-864.15
 30
0.0
 10
-419.7
 20
-866.85
 30
0.0
 10
-419.7
 20
-867.0
 30
0.0
 10
-417.21
 20
-867.0
 30
0.0
 10
-372.39
 20
-867.0
 30
0.0
 10
-369.9
 20
-867.0
 30
0.0
 10
-369.9
 20
-866.85
 30
0.0
 10
-369.9
 20
-864.15
 30
0.0
 10
-369.9
 20
-864.0
 30
0.0
 10
-368.655
 20
-864.0
 30
0.0
 10
-356.8275
 20
-864.0
 30
0.0
 10
-345.0
 20
-864.0
 30
0.0
  0
SPLINE
  5
102
100
AcDbEntity
  8
Layer_1
100
AcDbSpline
 70
     8
 71
     3
 72
    20
 73
    16
 74
     0
 42
0.0000001
 43
0.0000001
 40
0.0
 40
0.0
 40
0.0
 40
0.0
 40
1.0
 40
1.0
 40
1.0
 40
2.0
 40
2.0
 40
2.0
 40
3.0
 40
3.0
 40
3.0
 40
4.0
 40
4.0
 40
4.0
 40
5.0
 40
5.0
 40
5.0
 40
5.0
 10
-345.0
 20
-834.0
 30
0.0
 10
-445.225
 20
-834.0
 30
0.0
 10
-545.45
 20
-834.0
 30
0.0
 10
-556.0
 20
-834.0
 30
0.0
 10
-560.4062
 20
-834.0
 30
0.0
 10
-564.0
 20
-830.455
 30
0.0
 10
-564.0
 20
-826.1086
 30
0.0
 10
-564.0
 20
-805.09774
 30
0.0
 10
-564.0
 20
-426.90226
 30
0.0
 10
-564.0
 20
-405.8914
 30
0.0
 10
-564.0
 20
-401.545
 30
0.0
 10
-560.4062
 20
-398.0
 30
0.0
 10
-556.0
 20
-398.0
 30
0.0
 10
-545.45
 20
-398.0
 30
0.0
 10
-445.225
 20
-398.0
 30
0.0
 10
-345.0
 20
-398.0
 30
0.0
  0
LINE
  5
103
100
AcDbEntity
  8
0
100
AcDbLine
 10
-345.0
 20
-368.0
 30
0.0
 11
-345.0
 21
-398.0
 31
0.0
  0
LINE
  5
104
100
AcDbEntity
  8
0
100
AcDbLine
 10
-345.0
 20
-834.0
 30
0.0
 11
-345.0
 21
-864.0
 31
0.0
  0
SPLINE
  5
105
100
AcDbEntity
  8
Layer_1
100
AcDbSpline
 70
     8
 71
     3
 72
   140
 73
   136
 74
     0
 42
0.0000001
 43
0.0000001
 40
0.0
 40
0.0
 40
0.0
 40
0.0
 40
1.0
 40
1.0
 40
1.0
 40
2.0
 40
2.0
 40
2.0
 40
3.0
 40
3.0
 40
3.0
 40
4.0
 40
4.0
 40
4.0
 40
5.0
 40
5.0
 40
5.0
 40
6.0
 40
6.0
 40
6.0
 40
7.0
 40
7.0
 40
7.0
 40
8.0
 40
8.0
 40
8.0
 40
9.0
 40
9.0
 40
9.0
 40
10.0
 40
10.0
 40
10.0
 40
11.0
 40
11.0
 40
11.0
 40
12.0
 40
12.0
 40
12.0
 40
13.0
 40
13.0
 40
13.0
 40
14.0
 40
14.0
 40
14.0
 40
15.0
 40
15.0
 40
15.0
 40
16.0
 40
16.0
 40
16.0
 40
17.0
 40
17.0
 40
17.0
 40
18.0
 40
18.0
 40
18.0
 40
19.0
 40
19.0
 40
19.0
 40
20.0
 40
20.0
 40
20.0
 40
21.0
 40
21.0
 40
21.0
 40
22.0
 40
22.0
 40
22.0
 40
23.0
 40
23.0
 40
23.0
 40
24.0
 40
24.0
 40
24.0
 40
25.0
 40
25.0
 40
25.0
 40
26.0
 40
26.0
 40
26.0
 40
27.0
 40
27.0
 40
27.0
 40
28.0
 40
28.0
 40
28.0
 40
29.0
 40
29.0
 40
29.0
 40
30.0
 40
30.0
 40
30.0
 40
31.0
 40
31.0
 40
31.0
 40
32.0
 40
32.0
 40
32.0
 40
33.0
 40
33.0
 40
33.0
 40
34.0
 40
34.0
 40
34.0
 40
35.0
 40
35.0
 40
35.0
 40
36.0
 40
36.0
 40
36.0
 40
37.0
 40
37.0
 40
37.0
 40
38.0
 40
38.0
 40
38.0
 40
39.0
 40
39.0
 40
39.0
 40
40.0
 40
40.0
 40
40.0
 40
41.0
 40
41.0
 40
41.0
 40
42.0
 40
42.0
 40
42.0
 40
43.0
 40
43.0
 40
43.0
 40
44.0
 40
44.0
 40
44.0
 40
45.0
 40
45.0
 40
45.0
 40
45.0
 10
-690.520541757005
 20
-368.0
 30
0.0
 10
-702.348041757005
 20
-368.0
 30
0.0
 10
-714.175541757005
 20
-368.0
 30
0.0
 10
-715.420541757005
 20
-368.0
 30
0.0
 10
-715.420541757005
 20
-367.85
 30
0.0
 10
-715.420541757005
 20
-365.15
 30
0.0
 10
-715.420541757005
 20
-365.0
 30
0.0
 10
-717.910541757005
 20
-365.0
 30
0.0
 10
-762.730541757005
 20
-365.0
 30
0.0
 10
-765.220541757005
 20
-365.0
 30
0.0
 10
-765.220541757005
 20
-365.15
 30
0.0
 10
-765.220541757005
 20
-367.85
 30
0.0
 10
-765.220541757005
 20
-368.0
 30
0.0
 10
-767.710541757005
 20
-368.0
 30
0.0
 10
-812.530541757005
 20
-368.0
 30
0.0
 10
-815.020541757005
 20
-368.0
 30
0.0
 10
-815.020541757005
 20
-367.85
 30
0.0
 10
-815.020541757005
 20
-365.15
 30
0.0
 10
-815.020541757005
 20
-365.0
 30
0.0
 10
-817.510541757005
 20
-365.0
 30
0.0
 10
-862.330541757005
 20
-365.0
 30
0.0
 10
-864.820541757005
 20
-365.0
 30
0.0
 10
-864.820541757005
 20
-365.15
 30
0.0
 10
-864.820541757005
 20
-367.85
 30
0.0
 10
-864.820541757005
 20
-368.0
 30
0.0
 10
-867.310541757005
 20
-368.0
 30
0.0
 10
-912.130541757006
 20
-368.0
 30
0.0
 10
-914.620541757005
 20
-368.0
 30
0.0
 10
-914.620541757005
 20
-367.85
 30
0.0
 10
-914.620541757005
 20
-365.15
 30
0.0
 10
-914.620541757005
 20
-365.0
 30
0.0
 10
-915.865541757005
 20
-365.0
 30
0.0
 10
-938.275541757005
 20
-365.0
 30
0.0
 10
-939.520541757005
 20
-365.0
 30
0.0
 10
-939.520541757005
 20
-365.15
 30
0.0
 10
-939.520541757005
 20
-367.85
 30
0.0
 10
-939.520541757005
 20
-368.0
 30
0.0
 10
-939.520541757005
 20
-369.105
 30
0.0
 10
-939.520541757005
 20
-388.995
 30
0.0
 10
-939.520541757005
 20
-390.1
 30
0.0
 10
-939.670541757005
 20
-390.1
 30
0.0
 10
-942.370541757005
 20
-390.1
 30
0.0
 10
-942.520541757005
 20
-390.1
 30
0.0
 10
-942.520541757005
 20
-392.61
 30
0.0
 10
-942.520541757005
 20
-437.79
 30
0.0
 10
-942.520541757005
 20
-440.3
 30
0.0
 10
-942.370541757005
 20
-440.3
 30
0.0
 10
-939.670541757005
 20
-440.3
 30
0.0
 10
-939.520541757005
 20
-440.3
 30
0.0
 10
-939.520541757005
 20
-442.81
 30
0.0
 10
-939.520541757005
 20
-487.99
 30
0.0
 10
-939.520541757005
 20
-490.5
 30
0.0
 10
-939.670541757005
 20
-490.5
 30
0.0
 10
-942.370541757005
 20
-490.5
 30
0.0
 10
-942.520541757005
 20
-490.5
 30
0.0
 10
-942.520541757005
 20
-493.01
 30
0.0
 10
-942.520541757005
 20
-538.19
 30
0.0
 10
-942.520541757005
 20
-540.7
 30
0.0
 10
-942.370541757005
 20
-540.7
 30
0.0
 10
-939.670541757005
 20
-540.7
 30
0.0
 10
-939.520541757005
 20
-540.7
 30
0.0
 10
-939.520541757005
 20
-543.21
 30
0.0
 10
-939.520541757005
 20
-588.39
 30
0.0
 10
-939.520541757005
 20
-590.9
 30
0.0
 10
-939.670541757005
 20
-590.9
 30
0.0
 10
-942.370541757005
 20
-590.9
 30
0.0
 10
-942.520541757005
 20
-590.9
 30
0.0
 10
-942.520541757005
 20
-593.41
 30
0.0
 10
-942.520541757005
 20
-638.59
 30
0.0
 10
-942.520541757005
 20
-641.1
 30
0.0
 10
-942.370541757005
 20
-641.1
 30
0.0
 10
-939.670541757005
 20
-641.1
 30
0.0
 10
-939.520541757005
 20
-641.1
 30
0.0
 10
-939.520541757005
 20
-643.61
 30
0.0
 10
-939.520541757005
 20
-688.79
 30
0.0
 10
-939.520541757005
 20
-691.3
 30
0.0
 10
-939.670541757005
 20
-691.3
 30
0.0
 10
-942.370541757005
 20
-691.3
 30
0.0
 10
-942.520541757005
 20
-691.3
 30
0.0
 10
-942.520541757005
 20
-693.81
 30
0.0
 10
-942.520541757005
 20
-738.99
 30
0.0
 10
-942.520541757005
 20
-741.5
 30
0.0
 10
-942.370541757005
 20
-741.5
 30
0.0
 10
-939.670541757005
 20
-741.5
 30
0.0
 10
-939.520541757005
 20
-741.5
 30
0.0
 10
-939.520541757005
 20
-744.01
 30
0.0
 10
-939.520541757005
 20
-789.19
 30
0.0
 10
-939.520541757005
 20
-791.7
 30
0.0
 10
-939.670541757005
 20
-791.7
 30
0.0
 10
-942.370541757005
 20
-791.7
 30
0.0
 10
-942.520541757005
 20
-791.7
 30
0.0
 10
-942.520541757005
 20
-794.21
 30
0.0
 10
-942.520541757005
 20
-839.39
 30
0.0
 10
-942.520541757005
 20
-841.9
 30
0.0
 10
-942.370541757005
 20
-841.9
 30
0.0
 10
-939.670541757005
 20
-841.9
 30
0.0
 10
-939.520541757005
 20
-841.9
 30
0.0
 10
-939.520541757005
 20
-843.005
 30
0.0
 10
-939.520541757005
 20
-862.895
 30
0.0
 10
-939.520541757005
 20
-864.0
 30
0.0
 10
-939.520541757005
 20
-864.15
 30
0.0
 10
-939.520541757005
 20
-866.85
 30
0.0
 10
-939.520541757005
 20
-867.0
 30
0.0
 10
-938.275541757005
 20
-867.0
 30
0.0
 10
-915.865541757005
 20
-867.0
 30
0.0
 10
-914.620541757005
 20
-867.0
 30
0.0
 10
-914.620541757005
 20
-866.85
 30
0.0
 10
-914.620541757005
 20
-864.15
 30
0.0
 10
-914.620541757005
 20
-864.0
 30
0.0
 10
-912.130541757006
 20
-864.0
 30
0.0
 10
-867.310541757005
 20
-864.0
 30
0.0
 10
-864.820541757005
 20
-864.0
 30
0.0
 10
-864.820541757005
 20
-864.15
 30
0.0
 10
-864.820541757005
 20
-866.85
 30
0.0
 10
-864.820541757005
 20
-867.0
 30
0.0
 10
-862.330541757005
 20
-867.0
 30
0.0
 10
-817.510541757005
 20
-867.0
 30
0.0
 10
-815.020541757005
 20
-867.0
 30
0.0
 10
-815.020541757005
 20
-866.85
 30
0.0
 10
-815.020541757005
 20
-864.15
 30
0.0
 10
-815.020541757005
 20
-864.0
 30
0.0
 10
-812.530541757005
 20
-864.0
 30
0.0
 10
-767.710541757005
 20
-864.0
 30
0.0
 10
-765.220541757005
 20
-864.0
 30
0.0
 10
-765.220541757005
 20
-864.15
 30
0.0
 10
-765.220541757005
 20
-866.85
 30
0.0
 10
-765.220541757005
 20
-867.0
 30
0.0
 10
-762.730541757005
 20
-867.0
 30
0.0
 10
-717.910541757005
 20
-867.0
 30
0.0
 10
-715.420541757005
 20
-867.0
 30
0.0
 10
-715.420541757005
 20
-866.85
 30
0.0
 10
-715.420541757005
 20
-864.15
 30
0.0
 10
-715.420541757005
 20
-864.0
 30
0.0
 10
-714.175541757005
 20
-864.0
 30
0.0
 10
-702.348041757005
 20
-864.0
 30
0.0
 10
-690.520541757005
 20
-864.0
 30
0.0
  0
SPLINE
  5
106
100
AcDbEntity
  8
Layer_1
100
AcDbSpline
 70
     8
 71
     3
 72
    20
 73
    16
 74
     0
 42
0.0000001
 43
0.0000001
 40
0.0
 40
0.0
 40
0.0
 40
0.0
 40
1.0
 40
1.0
 40
1.0
 40
2.0
 40
2.0
 40
2.0
 40
3.0
 40
3.0
 40
3.0
 40
4.0
 40
4.0
 40
4.0
 40
5.0
 40
5.0
 40
5.0
 40
5.0
 10
-690.520541757005
 20
-834.0
 30
0.0
 10
-790.745541757005
 20
-834.0
 30
0.0
 10
-890.970541757005
 20
-834.0
 30
0.0
 10
-901.520541757005
 20
-834.0
 30
0.0
 10
-905.926741757005
 20
-834.0
 30
0.0
 10
-909.520541757005
 20
-830.455
 30
0.0
 10
-909.520541757005
 20
-826.1086
 30
0.0
 10
-909.520541757005
 20
-805.09774
 30
0.0
 10
-909.520541757005
 20
-426.90226
 30
0.0
 10
-909.520541757005
 20
-405.8914
 30
0.0
 10
-909.520541757005
 20
-401.545
 30
0.0
 10
-905.926741757005
 20
-398.0
 30
0.0
 10
-901.520541757005
 20
-398.0
 30
0.0
 10
-890.970541757005
 20
-398.0
 30
0.0
 10
-790.745541757005
 20
-398.0
 30
0.0
 10
-690.520541757005
 20
-398.0
 30
0.0
  0
LINE
  5
107
100
AcDbEntity
  8
0
100
AcDbLine
 10
-690.520541757005
 20
-368.0
 30
0.0
 11
-690.520541757005
 21
-398.0
 31
0.0
  0
LINE
  5
108
100
AcDbEntity
  8
0
100
AcDbLine
 10
-690.520541757005
 20
-834.0
 30
0.0
 11
-690.520541757005
 21
-864.0
 31
0.0
  0
SPLINE
  5
109
100
AcDbEntity
  8
Layer_1
100
AcDbSpline
 70
     8
 71
     3
 72
    86
 73
    82
 74
     0
 42
0.0000001
 43
0.0000001
 40
0.0
 40
0.0
 40
0.0
 40
0.0
 40
1.0
 40
1.0
 40
1.0
 40
2.0
 40
2.0
 40
2.0
 40
3.0
 40
3.0
 40
3.0
 40
4.0
 40
4.0
 40
4.0
 40
5.0
 40
5.0
 40
5.0
 40
6.0
 40
6.0
 40
6.0
 40
7.0
 40
7.0
 40
7.0
 40
8.0
 40
8.0
 40
8.0
 40
9.0
 40
9.0
 40
9.0
 40
10.0
 40
10.0
 40
10.0
 40
11.0
 40
11.0
 40
11.0
 40
12.0
 40
12.0
 40
12.0
 40
13.0
 40
13.0
 40
13.0
 40
14.0
 40
14.0
 40
14.0
 40
15.0
 40
15.0
 40
15.0
 40
16.0
 40
16.0
 40
16.0
 40
17.0
 40
17.0
 40
17.0
 40
18.0
 40
18.0
 40
18.0
 40
19.0
 40
19.0
 40
19.0
 40
20.0
 40
20.0
 40
20.0
 40
21.0
 40
21.0
 40
21.0
 40
22.0
 40
22.0
 40
22.0
 40
23.0
 40
23.0
 40
23.0
 40
24.0
 40
24.0
 40
24.0
 40
25.0
 40
25.0
 40
25.0
 40
26.0
 40
26.0
 40
26.0
 40
27.0
 40
27.0
 40
27.0
 40
27.0
 10
-898.464883514011
 20
-816.1291
 30
0.0
 10
-886.637383514011
 20
-816.1291
 30
0.0
 10
-874.809883514011
 20
-816.1291
 30
0.0
 10
-873.564883514011
 20
-816.1291
 30
0.0
 10
-873.564883514011
 20
-816.2791
 30
0.0
 10
-873.564883514011
 20
-818.9791
 30
0.0
 10
-873.564883514011
 20
-819.1291
 30
0.0
 10
-871.074883514011
 20
-819.1291
 30
0.0
 10
-826.254883514011
 20
-819.1291
 30
0.0
 10
-823.764883514011
 20
-819.1291
 30
0.0
 10
-823.764883514011
 20
-818.9791
 30
0.0
 10
-823.764883514011
 20
-816.2791
 30
0.0
 10
-823.764883514011
 20
-816.1291
 30
0.0
 10
-821.274883514011
 20
-816.1291
 30
0.0
 10
-776.454883514011
 20
-816.1291
 30
0.0
 10
-773.964883514011
 20
-816.1291
 30
0.0
 10
-773.964883514011
 20
-816.2791
 30
0.0
 10
-773.964883514011
 20
-818.9791
 30
0.0
 10
-773.964883514011
 20
-819.1291
 30
0.0
 10
-771.474883514011
 20
-819.1291
 30
0.0
 10
-726.654883514011
 20
-819.1291
 30
0.0
 10
-724.164883514011
 20
-819.1291
 30
0.0
 10
-724.164883514011
 20
-818.9791
 30
0.0
 10
-724.164883514011
 20
-816.2791
 30
0.0
 10
-724.164883514011
 20
-816.1291
 30
0.0
 10
-721.674883514011
 20
-816.1291
 30
0.0
 10
-676.854883514011
 20
-816.1291
 30
0.0
 10
-674.364883514011
 20
-816.1291
 30
0.0
 10
-674.364883514011
 20
-816.2791
 30
0.0
 10
-674.364883514011
 20
-818.9791
 30
0.0
 10
-674.364883514011
 20
-819.1291
 30
0.0
 10
-673.119883514011
 20
-819.1291
 30
0.0
 10
-650.709883514011
 20
-819.1291
 30
0.0
 10
-649.464883514011
 20
-819.1291
 30
0.0
 10
-649.464883514011
 20
-818.9791
 30
0.0
 10
-649.464883514011
 20
-816.2791
 30
0.0
 10
-649.464883514011
 20
-816.1291
 30
0.0
 10
-649.314883514011
 20
-816.1291
 30
0.0
 10
-646.614883514011
 20
-816.1291
 30
0.0
 10
-646.464883514011
 20
-816.1291
 30
0.0
 10
-646.464883514011
 20
-791.3291
 30
0.0
 10
-646.464883514011
 20
-344.9291
 30
0.0
 10
-646.464883514011
 20
-320.1291
 30
0.0
 10
-646.614883514011
 20
-320.1291
 30
0.0
 10
-649.314883514011
 20
-320.1291
 30
0.0
 10
-649.464883514011
 20
-320.1291
 30
0.0
 10
-649.464883514011
 20
-319.9791
 30
0.0
 10
-649.464883514011
 20
-317.2791
 30
0.0
 10
-649.464883514011
 20
-317.1291
 30
0.0
 10
-650.709883514011
 20
-317.1291
 30
0.0
 10
-673.119883514011
 20
-317.1291
 30
0.0
 10
-674.364883514011
 20
-317.1291
 30
0.0
 10
-674.364883514011
 20
-317.2791
 30
0.0
 10
-674.364883514011
 20
-319.9791
 30
0.0
 10
-674.364883514011
 20
-320.1291
 30
0.0
 10
-676.854883514011
 20
-320.1291
 30
0.0
 10
-721.674883514011
 20
-320.1291
 30
0.0
 10
-724.164883514011
 20
-320.1291
 30
0.0
 10
-724.164883514011
 20
-319.9791
 30
0.0
 10
-724.164883514011
 20
-317.2791
 30
0.0
 10
-724.164883514011
 20
-317.1291
 30
0.0
 10
-726.654883514011
 20
-317.1291
 30
0.0
 10
-771.474883514011
 20
-317.1291
 30
0.0
 10
-773.964883514011
 20
-317.1291
 30
0.0
 10
-773.964883514011
 20
-317.2791
 30
0.0
 10
-773.964883514011
 20
-319.9791
 30
0.0
 10
-773.964883514011
 20
-320.1291
 30
0.0
 10
-776.454883514011
 20
-320.1291
 30
0.0
 10
-821.274883514011
 20
-320.1291
 30
0.0
 10
-823.764883514011
 20
-320.1291
 30
0.0
 10
-823.764883514011
 20
-319.9791
 30
0.0
 10
-823.764883514011
 20
-317.2791
 30
0.0
 10
-823.764883514011
 20
-317.1291
 30
0.0
 10
-826.254883514011
 20
-317.1291
 30
0.0
 10
-871.074883514011
 20
-317.1291
 30
0.0
 10
-873.564883514011
 20
-317.1291
 30
0.0
 10
-873.564883514011
 20
-317.2791
 30
0.0
 10
-873.564883514011
 20
-319.9791
 30
0.0
 10
-873.564883514011
 20
-320.1291
 30
0.0
 10
-874.809883514011
 20
-320.1291
 30
0.0
 10
-886.637383514011
 20
-320.1291
 30
0.0
 10
-898.464883514011
 20
-320.1291
 30
0.0
  0
SPLINE
  5
10a
100
AcDbEntity
  8
Layer_1
100
AcDbSpline
 70
     8
 71
     3
 72
    20
 73
    16
 74
     0
 42
0.0000001
 43
0.0000001
 40
0.0
 40
0.0
 40
0.0
 40
0.0
 40
1.0
 40
1.0
 40
1.0
 40
2.0
 40
2.0
 40
2.0
 40
3.0
 40
3.0
 40
3.0
 40
4.0
 40
4.0
 40
4.0
 40
5.0
 40
5.0
 40
5.0
 40
5.0
 10
-898.464883514011
 20
-350.1291
 30
0.0
 10
-798.239883514011
 20
-350.1291
 30
0.0
 10
-698.014883514011
 20
-350.1291
 30
0.0
 10
-687.464883514011
 20
-350.1291
 30
0.0
 10
-683.058683514011
 20
-350.1291
 30
0.0
 10
-679.464883514011
 20
-353.6741
 30
0.0
 10
-679.464883514011
 20
-358.0205
 30
0.0
 10
-679.464883514011
 20
-379.03136
 30
0.0
 10
-679.464883514011
 20
-757.22684
 30
0.0
 10
-679.464883514011
 20
-778.2377
 30
0.0
 10
-679.464883514011
 20
-782.5841
 30
0.0
 10
-683.058683514011
 20
-786.1291
 30
0.0
 10
-687.464883514011
 20
-786.1291
 30
0.0
 10
-698.014883514011
 20
-786.1291
 30
0.0
 10
-798.239883514011
 20
-786.1291
 30
0.0
 10
-898.464883514011
 20
-786.1291
 30
0.0
  0
LINE
  5
10b
100
AcDbEntity
  8
0
100
AcDbLine
 10
-898.464883514011
 20
-320.1291
 30
0.0
 11
-898.464883514011
 21
-350.1291
 31
0.0
  0
LINE
  5
10c
100
AcDbEntity
  8
0
100
AcDbLine
 10
-898.464883514011
 20
-786.1291
 30
0.0
 11
-898.464883514011
 21
-816.1291
 31
0.0
  0
SPLINE
  5
10d
100
AcDbEntity
  8
Layer_1
100
AcDbSpline
 70
     8
 71
     3
 72
   134
 73
   130
 74
     0
 42
0.0000001
 43
0.0000001
 40
0.0
 40
0.0
 40
0.0
 40
0.0
 40
1.0
 40
1.0
 40
1.0
 40
2.0
 40
2.0
 40
2.0
 40
3.0
 40
3.0
 40
3.0
 40
4.0
 40
4.0
 40
4.0
 40
5.0
 40
5.0
 40
5.0
 40
6.0
 40
6.0
 40
6.0
 40
7.0
 40
7.0
 40
7.0
 40
8.0
 40
8.0
 40
8.0
 40
9.0
 40
9.0
 40
9.0
 40
10.0
 40
10.0
 40
10.0
 40
11.0
 40
11.0
 40
11.0
 40
12.0
 40
12.0
 40
12.0
 40
13.0
 40
13.0
 40
13.0
 40
14.0
 40
14.0
 40
14.0
 40
15.0
 40
15.0
 40
15.0
 40
16.0
 40
16.0
 40
16.0
 40
17.0
 40
17.0
 40
17.0
 40
18.0
 40
18.0
 40
18.0
 40
19.0
 40
19.0
 40
19.0
 40
20.0
 40
20.0
 40
20.0
 40
21.0
 40
21.0
 40
21.0
 40
22.0
 40
22.0
 40
22.0
 40
23.0
 40
23.0
 40
23.0
 40
24.0
 40
24.0
 40
24.0
 40
25.0
 40
25.0
 40
25.0
 40
26.0
 40
26.0
 40
26.0
 40
27.0
 40
27.0
 40
27.0
 40
28.0
 40
28.0
 40
28.0
 40
29.0
 40
29.0
 40
29.0
 40
30.0
 40
30.0
 40
30.0
 40
31.0
 40
31.0
 40
31.0
 40
32.0
 40
32.0
 40
32.0
 40
33.0
 40
33.0
 40
33.0
 40
34.0
 40
34.0
 40
34.0
 40
35.0
 40
35.0
 40
35.0
 40
36.0
 40
36.0
 40
36.0
 40
37.0
 40
37.0
 40
37.0
 40
38.0
 40
38.0
 40
38.0
 40
39.0
 40
39.0
 40
39.0
 40
40.0
 40
40.0
 40
40.0
 40
41.0
 40
41.0
 40
41.0
 40
42.0
 40
42.0
 40
42.0
 40
43.0
 40
43.0
 40
43.0
 40
43.0
 10
-582.301603972441
 20
758.4275
 30
0.0
 10
-570.474103972441
 20
758.4275
 30
0.0
 10
-558.646603972441
 20
758.4275
 30
0.0
 10
-557.401603972441
 20
758.4275
 30
0.0
 10
-557.401603972441
 20
758.2775
 30
0.0
 10
-557.401603972441
 20
755.5775
 30
0.0
 10
-557.401603972441
 20
755.4275
 30
0.0
 10
-554.911603972441
 20
755.4275
 30
0.0
 10
-510.091603972441
 20
755.4275
 30
0.0
 10
-507.601603972441
 20
755.4275
 30
0.0
 10
-507.601603972441
 20
755.5775
 30
0.0
 10
-507.601603972441
 20
758.2775
 30
0.0
 10
-507.601603972441
 20
758.4275
 30
0.0
 10
-505.111603972441
 20
758.4275
 30
0.0
 10
-460.291603972441
 20
758.4275
 30
0.0
 10
-457.801603972441
 20
758.4275
 30
0.0
 10
-457.801603972441
 20
758.2775
 30
0.0
 10
-457.801603972441
 20
755.5775
 30
0.0
 10
-457.801603972441
 20
755.4275
 30
0.0
 10
-455.311603972441
 20
755.4275
 30
0.0
 10
-410.491603972441
 20
755.4275
 30
0.0
 10
-408.001603972441
 20
755.4275
 30
0.0
 10
-408.001603972441
 20
755.5775
 30
0.0
 10
-408.001603972441
 20
758.2775
 30
0.0
 10
-408.001603972441
 20
758.4275
 30
0.0
 10
-405.511603972441
 20
758.4275
 30
0.0
 10
-360.691603972441
 20
758.4275
 30
0.0
 10
-358.201603972441
 20
758.4275
 30
0.0
 10
-358.201603972441
 20
758.2775
 30
0.0
 10
-358.201603972441
 20
755.5775
 30
0.0
 10
-358.201603972441
 20
755.4275
 30
0.0
 10
-356.956603972441
 20
755.4275
 30
0.0
 10
-334.546603972441
 20
755.4275
 30
0.0
 10
-333.301603972441
 20
755.4275
 30
0.0
 10
-333.301603972441
 20
754.3225
 30
0.0
 10
-333.301603972441
 20
734.4325
 30
0.0
 10
-333.301603972441
 20
733.3275
 30
0.0
 10
-333.151603972441
 20
733.3275
 30
0.0
 10
-330.451603972441
 20
733.3275
 30
0.0
 10
-330.301603972441
 20
733.3275
 30
0.0
 10
-330.301603972441
 20
730.8175
 30
0.0
 10
-330.301603972441
 20
685.6375
 30
0.0
 10
-330.301603972441
 20
683.1275
 30
0.0
 10
-330.451603972441
 20
683.1275
 30
0.0
 10
-333.151603972441
 20
683.1275
 30
0.0
 10
-333.301603972441
 20
683.1275
 30
0.0
 10
-333.301603972441
 20
680.6175
 30
0.0
 10
-333.301603972441
 20
635.4375
 30
0.0
 10
-333.301603972441
 20
632.9275
 30
0.0
 10
-333.151603972441
 20
632.9275
 30
0.0
 10
-330.451603972441
 20
632.9275
 30
0.0
 10
-330.301603972441
 20
632.9275
 30
0.0
 10
-330.301603972441
 20
630.4175
 30
0.0
 10
-330.301603972441
 20
585.2375
 30
0.0
 10
-330.301603972441
 20
582.7275
 30
0.0
 10
-330.451603972441
 20
582.7275
 30
0.0
 10
-333.151603972441
 20
582.7275
 30
0.0
 10
-333.301603972441
 20
582.7275
 30
0.0
 10
-333.301603972441
 20
580.2175
 30
0.0
 10
-333.301603972441
 20
535.0375
 30
0.0
 10
-333.301603972441
 20
532.5275
 30
0.0
 10
-333.151603972441
 20
532.5275
 30
0.0
 10
-330.451603972441
 20
532.5275
 30
0.0
 10
-330.301603972441
 20
532.5275
 30
0.0
 10
-330.301603972441
 20
530.0175
 30
0.0
 10
-330.301603972441
 20
484.8375
 30
0.0
 10
-330.301603972441
 20
482.3275
 30
0.0
 10
-330.451603972441
 20
482.3275
 30
0.0
 10
-333.151603972441
 20
482.3275
 30
0.0
 10
-333.301603972441
 20
482.3275
 30
0.0
 10
-333.301603972441
 20
479.8175
 30
0.0
 10
-333.301603972441
 20
434.6375
 30
0.0
 10
-333.301603972441
 20
432.1275
 30
0.0
 10
-333.151603972441
 20
432.1275
 30
0.0
 10
-330.451603972441
 20
432.1275
 30
0.0
 10
-330.301603972441
 20
432.1275
 30
0.0
 10
-330.301603972441
 20
429.6175
 30
0.0
 10
-330.301603972441
 20
384.4375
 30
0.0
 10
-330.301603972441
 20
381.9275
 30
0.0
 10
-330.451603972441
 20
381.9275
 30
0.0
 10
-333.151603972441
 20
381.9275
 30
0.0
 10
-333.301603972441
 20
381.9275
 30
0.0
 10
-333.301603972441
 20
379.4175
 30
0.0
 10
-333.301603972441
 20
334.2375
 30
0.0
 10
-333.301603972441
 20
331.7275
 30
0.0
 10
-333.151603972441
 20
331.7275
 30
0.0
 10
-330.451603972441
 20
331.7275
 30
0.0
 10
-330.301603972441
 20
331.7275
 30
0.0
 10
-330.301603972441
 20
329.2175
 30
0.0
 10
-330.301603972441
 20
284.0375
 30
0.0
 10
-330.301603972441
 20
281.5275
 30
0.0
 10
-330.451603972441
 20
281.5275
 30
0.0
 10
-333.151603972441
 20
281.5275
 30
0.0
 10
-333.301603972441
 20
281.5275
 30
0.0
 10
-333.301603972441
 20
280.4225
 30
0.0
 10
-333.301603972441
 20
260.5325
 30
0.0
 10
-333.301603972441
 20
259.4275
 30
0.0
 10
-334.546603972441
 20
259.4275
 30
0.0
 10
-356.956603972441
 20
259.4275
 30
0.0
 10
-358.201603972441
 20
259.4275
 30
0.0
 10
-358.201603972441
 20
259.2775
 30
0.0
 10
-358.201603972441
 20
256.5775
 30
0.0
 10
-358.201603972441
 20
256.4275
 30
0.0
 10
-360.691603972441
 20
256.4275
 30
0.0
 10
-405.511603972441
 20
256.4275
 30
0.0
 10
-408.001603972441
 20
256.4275
 30
0.0
 10
-408.001603972441
 20
256.5775
 30
0.0
 10
-408.001603972441
 20
259.2775
 30
0.0
 10
-408.001603972441
 20
259.4275
 30
0.0
 10
-410.491603972441
 20
259.4275
 30
0.0
 10
-455.311603972441
 20
259.4275
 30
0.0
 10
-457.801603972441
 20
259.4275
 30
0.0
 10
-457.801603972441
 20
259.2775
 30
0.0
 10
-457.801603972441
 20
256.5775
 30
0.0
 10
-457.801603972441
 20
256.4275
 30
0.0
 10
-460.291603972441
 20
256.4275
 30
0.0
 10
-505.111603972441
 20
256.4275
 30
0.0
 10
-507.601603972441
 20
256.4275
 30
0.0
 10
-507.601603972441
 20
256.5775
 30
0.0
 10
-507.601603972441
 20
259.2775
 30
0.0
 10
-507.601603972441
 20
259.4275
 30
0.0
 10
-510.091603972441
 20
259.4275
 30
0.0
 10
-554.911603972441
 20
259.4275
 30
0.0
 10
-557.401603972441
 20
259.4275
 30
0.0
 10
-557.401603972441
 20
259.2775
 30
0.0
 10
-557.401603972441
 20
256.5775
 30
0.0
 10
-557.401603972441
 20
256.4275
 30
0.0
 10
-558.646603972441
 20
256.4275
 30
0.0
 10
-570.474103972441
 20
256.4275
 30
0.0
 10
-582.301603972441
 20
256.4275
 30
0.0
  0
SPLINE
  5
10e
100
AcDbEntity
  8
Layer_1
100
AcDbSpline
 70
     8
 71
     3
 72
    20
 73
    16
 74
     0
 42
0.0000001
 43
0.0000001
 40
0.0
 40
0.0
 40
0.0
 40
0.0
 40
1.0
 40
1.0
 40
1.0
 40
2.0
 40
2.0
 40
2.0
 40
3.0
 40
3.0
 40
3.0
 40
4.0
 40
4.0
 40
4.0
 40
5.0
 40
5.0
 40
5.0
 40
5.0
 10
-582.301603972441
 20
289.4275
 30
0.0
 10
-482.076603972441
 20
289.4275
 30
0.0
 10
-381.851603972441
 20
289.4275
 30
0.0
 10
-371.301603972441
 20
289.4275
 30
0.0
 10
-366.895403972441
 20
289.4275
 30
0.0
 10
-363.301603972441
 20
292.9725
 30
0.0
 10
-363.301603972441
 20
297.3189
 30
0.0
 10
-363.301603972441
 20
318.32976
 30
0.0
 10
-363.301603972441
 20
696.52524
 30
0.0
 10
-363.301603972441
 20
717.5361
 30
0.0
 10
-363.301603972441
 20
721.8825
 30
0.0
 10
-366.895403972441
 20
725.4275
 30
0.0
 10
-371.301603972441
 20
725.4275
 30
0.0
 10
-381.851603972441
 20
725.4275
 30
0.0
 10
-482.076603972441
 20
725.4275
 30
0.0
 10
-582.301603972441
 20
725.4275
 30
0.0
  0
LINE
  5
10f
100
AcDbEntity
  8
0
100
AcDbLine
 10
-582.301603972441
 20
725.4275
 30
0.0
 11
-582.301603972441
 21
758.4275
 31
0.0
  0
LINE
  5
110
100
AcDbEntity
  8
0
100
AcDbLine
 10
-582.301603972441
 20
289.4275
 30
0.0
 11
-582.301603972441
 21
256.4275
 31
0.0
  0
SPLINE
  5
111
100
AcDbEntity
  8
Layer_1
100
AcDbSpline
 70
     8
 71
     3
 72
    20
 73
    16
 74
     0
 42
0.0000001
 43
0.0000001
 40
0.0
 40
0.0
 40
0.0
 40
0.0
 40
1.0
 40
1.0
 40
1.0
 40
2.0
 40
2.0
 40
2.0
 40
3.0
 40
3.0
 40
3.0
 40
4.0
 40
4.0
 40
4.0
 40
5.0
 40
5.0
 40
5.0
 40
5.0
 10
-376.0
 20
773.0
 30
0.0
 10
-476.225
 20
773.0
 30
0.0
 10
-576.45
 20
773.0
 30
0.0
 10
-587.0
 20
773.0
 30
0.0
 10
-591.4062
 20
773.0
 30
0.0
 10
-595.0
 20
769.455
 30
0.0
 10
-595.0
 20
765.1086
 30
0.0
 10
-595.0
 20
744.09774
 30
0.0
 10
-595.0
 20
365.90226
 30
0.0
 10
-595.0
 20
344.8914
 30
0.0
 10
-595.0
 20
340.545
 30
0.0
 10
-591.4062
 20
337.0
 30
0.0
 10
-587.0
 20
337.0
 30
0.0
 10
-576.45
 20
337.0
 30
0.0
 10
-476.225
 20
337.0
 30
0.0
 10
-376.0
 20
337.0
 30
0.0
  0
SPLINE
  5
112
100
AcDbEntity
  8
Layer_1
100
AcDbSpline
 70
     8
 71
     3
 72
   134
 73
   130
 74
     0
 42
0.0000001
 43
0.0000001
 40
0.0
 40
0.0
 40
0.0
 40
0.0
 40
1.0
 40
1.0
 40
1.0
 40
2.0
 40
2.0
 40
2.0
 40
3.0
 40
3.0
 40
3.0
 40
4.0
 40
4.0
 40
4.0
 40
5.0
 40
5.0
 40
5.0
 40
6.0
 40
6.0
 40
6.0
 40
7.0
 40
7.0
 40
7.0
 40
8.0
 40
8.0
 40
8.0
 40
9.0
 40
9.0
 40
9.0
 40
10.0
 40
10.0
 40
10.0
 40
11.0
 40
11.0
 40
11.0
 40
12.0
 40
12.0
 40
12.0
 40
13.0
 40
13.0
 40
13.0
 40
14.0
 40
14.0
 40
14.0
 40
15.0
 40
15.0
 40
15.0
 40
16.0
 40
16.0
 40
16.0
 40
17.0
 40
17.0
 40
17.0
 40
18.0
 40
18.0
 40
18.0
 40
19.0
 40
19.0
 40
19.0
 40
20.0
 40
20.0
 40
20.0
 40
21.0
 40
21.0
 40
21.0
 40
22.0
 40
22.0
 40
22.0
 40
23.0
 40
23.0
 40
23.0
 40
24.0
 40
24.0
 40
24.0
 40
25.0
 40
25.0
 40
25.0
 40
26.0
 40
26.0
 40
26.0
 40
27.0
 40
27.0
 40
27.0
 40
28.0
 40
28.0
 40
28.0
 40
29.0
 40
29.0
 40
29.0
 40
30.0
 40
30.0
 40
30.0
 40
31.0
 40
31.0
 40
31.0
 40
32.0
 40
32.0
 40
32.0
 40
33.0
 40
33.0
 40
33.0
 40
34.0
 40
34.0
 40
34.0
 40
35.0
 40
35.0
 40
35.0
 40
36.0
 40
36.0
 40
36.0
 40
37.0
 40
37.0
 40
37.0
 40
38.0
 40
38.0
 40
38.0
 40
39.0
 40
39.0
 40
39.0
 40
40.0
 40
40.0
 40
40.0
 40
41.0
 40
41.0
 40
41.0
 40
42.0
 40
42.0
 40
42.0
 40
43.0
 40
43.0
 40
43.0
 40
43.0
 10
-376.0
 20
304.0
 30
0.0
 10
-387.8275
 20
304.0
 30
0.0
 10
-399.655
 20
304.0
 30
0.0
 10
-400.9
 20
304.0
 30
0.0
 10
-400.9
 20
304.15
 30
0.0
 10
-400.9
 20
306.85
 30
0.0
 10
-400.9
 20
307.0
 30
0.0
 10
-403.39
 20
307.0
 30
0.0
 10
-448.21
 20
307.0
 30
0.0
 10
-450.7
 20
307.0
 30
0.0
 10
-450.7
 20
306.85
 30
0.0
 10
-450.7
 20
304.15
 30
0.0
 10
-450.7
 20
304.0
 30
0.0
 10
-453.19
 20
304.0
 30
0.0
 10
-498.01
 20
304.0
 30
0.0
 10
-500.5
 20
304.0
 30
0.0
 10
-500.5
 20
304.15
 30
0.0
 10
-500.5
 20
306.85
 30
0.0
 10
-500.5
 20
307.0
 30
0.0
 10
-502.99
 20
307.0
 30
0.0
 10
-547.81
 20
307.0
 30
0.0
 10
-550.3
 20
307.0
 30
0.0
 10
-550.3
 20
306.85
 30
0.0
 10
-550.3
 20
304.15
 30
0.0
 10
-550.3
 20
304.0
 30
0.0
 10
-552.79
 20
304.0
 30
0.0
 10
-597.61
 20
304.0
 30
0.0
 10
-600.1
 20
304.0
 30
0.0
 10
-600.1
 20
304.15
 30
0.0
 10
-600.1
 20
306.85
 30
0.0
 10
-600.1
 20
307.0
 30
0.0
 10
-601.345
 20
307.0
 30
0.0
 10
-623.755
 20
307.0
 30
0.0
 10
-625.0
 20
307.0
 30
0.0
 10
-625.0
 20
308.105
 30
0.0
 10
-625.0
 20
327.995
 30
0.0
 10
-625.0
 20
329.1
 30
0.0
 10
-625.15
 20
329.1
 30
0.0
 10
-627.85
 20
329.1
 30
0.0
 10
-628.0
 20
329.1
 30
0.0
 10
-628.0
 20
331.61
 30
0.0
 10
-628.0
 20
376.79
 30
0.0
 10
-628.0
 20
379.3
 30
0.0
 10
-627.85
 20
379.3
 30
0.0
 10
-625.15
 20
379.3
 30
0.0
 10
-625.0
 20
379.3
 30
0.0
 10
-625.0
 20
381.81
 30
0.0
 10
-625.0
 20
426.99
 30
0.0
 10
-625.0
 20
429.5
 30
0.0
 10
-625.15
 20
429.5
 30
0.0
 10
-627.85
 20
429.5
 30
0.0
 10
-628.0
 20
429.5
 30
0.0
 10
-628.0
 20
432.01
 30
0.0
 10
-628.0
 20
477.19
 30
0.0
 10
-628.0
 20
479.7
 30
0.0
 10
-627.85
 20
479.7
 30
0.0
 10
-625.15
 20
479.7
 30
0.0
 10
-625.0
 20
479.7
 30
0.0
 10
-625.0
 20
482.21
 30
0.0
 10
-625.0
 20
527.39
 30
0.0
 10
-625.0
 20
529.9
 30
0.0
 10
-625.15
 20
529.9
 30
0.0
 10
-627.85
 20
529.9
 30
0.0
 10
-628.0
 20
529.9
 30
0.0
 10
-628.0
 20
532.41
 30
0.0
 10
-628.0
 20
577.59
 30
0.0
 10
-628.0
 20
580.1
 30
0.0
 10
-627.85
 20
580.1
 30
0.0
 10
-625.15
 20
580.1
 30
0.0
 10
-625.0
 20
580.1
 30
0.0
 10
-625.0
 20
582.61
 30
0.0
 10
-625.0
 20
627.79
 30
0.0
 10
-625.0
 20
630.3
 30
0.0
 10
-625.15
 20
630.3
 30
0.0
 10
-627.85
 20
630.3
 30
0.0
 10
-628.0
 20
630.3
 30
0.0
 10
-628.0
 20
632.81
 30
0.0
 10
-628.0
 20
677.99
 30
0.0
 10
-628.0
 20
680.5
 30
0.0
 10
-627.85
 20
680.5
 30
0.0
 10
-625.15
 20
680.5
 30
0.0
 10
-625.0
 20
680.5
 30
0.0
 10
-625.0
 20
683.01
 30
0.0
 10
-625.0
 20
728.19
 30
0.0
 10
-625.0
 20
730.7
 30
0.0
 10
-625.15
 20
730.7
 30
0.0
 10
-627.85
 20
730.7
 30
0.0
 10
-628.0
 20
730.7
 30
0.0
 10
-628.0
 20
733.21
 30
0.0
 10
-628.0
 20
778.39
 30
0.0
 10
-628.0
 20
780.9
 30
0.0
 10
-627.85
 20
780.9
 30
0.0
 10
-625.15
 20
780.9
 30
0.0
 10
-625.0
 20
780.9
 30
0.0
 10
-625.0
 20
782.005
 30
0.0
 10
-625.0
 20
801.895
 30
0.0
 10
-625.0
 20
803.0
 30
0.0
 10
-623.755
 20
803.0
 30
0.0
 10
-601.345
 20
803.0
 30
0.0
 10
-600.1
 20
803.0
 30
0.0
 10
-600.1
 20
803.15
 30
0.0
 10
-600.1
 20
805.85
 30
0.0
 10
-600.1
 20
806.0
 30
0.0
 10
-597.61
 20
806.0
 30
0.0
 10
-552.79
 20
806.0
 30
0.0
 10
-550.3
 20
806.0
 30
0.0
 10
-550.3
 20
805.85
 30
0.0
 10
-550.3
 20
803.15
 30
0.0
 10
-550.3
 20
803.0
 30
0.0
 10
-547.81
 20
803.0
 30
0.0
 10
-502.99
 20
803.0
 30
0.0
 10
-500.5
 20
803.0
 30
0.0
 10
-500.5
 20
803.15
 30
0.0
 10
-500.5
 20
805.85
 30
0.0
 10
-500.5
 20
806.0
 30
0.0
 10
-498.01
 20
806.0
 30
0.0
 10
-453.19
 20
806.0
 30
0.0
 10
-450.7
 20
806.0
 30
0.0
 10
-450.7
 20
805.85
 30
0.0
 10
-450.7
 20
803.15
 30
0.0
 10
-450.7
 20
803.0
 30
0.0
 10
-448.21
 20
803.0
 30
0.0
 10
-403.39
 20
803.0
 30
0.0
 10
-400.9
 20
803.0
 30
0.0
 10
-400.9
 20
803.15
 30
0.0
 10
-400.9
 20
805.85
 30
0.0
 10
-400.9
 20
806.0
 30
0.0
 10
-399.655
 20
806.0
 30
0.0
 10
-387.8275
 20
806.0
 30
0.0
 10
-376.0
 20
806.0
 30
0.0
  0
LINE
  5
113
100
AcDbEntity
  8
0
100
AcDbLine
 10
-376.0
 20
806.0
 30
0.0
 11
-376.0
 21
773.0
 31
0.0
  0
LINE
  5
114
100
AcDbEntity
  8
0
100
AcDbLine
 10
-376.0
 20
337.0
 30
0.0
 11
-376.0
 21
304.0
 31
0.0
  0
SPLINE
  5
115
100
AcDbEntity
  8
Layer_1
100
AcDbSpline
 70
     8
 71
     3
 72
   134
 73
   130
 74
     0
 42
0.0000001
 43
0.0000001
 40
0.0
 40
0.0
 40
0.0
 40
0.0
 40
1.0
 40
1.0
 40
1.0
 40
2.0
 40
2.0
 40
2.0
 40
3.0
 40
3.0
 40
3.0
 40
4.0
 40
4.0
 40
4.0
 40
5.0
 40
5.0
 40
5.0
 40
6.0
 40
6.0
 40
6.0
 40
7.0
 40
7.0
 40
7.0
 40
8.0
 40
8.0
 40
8.0
 40
9.0
 40
9.0
 40
9.0
 40
10.0
 40
10.0
 40
10.0
 40
11.0
 40
11.0
 40
11.0
 40
12.0
 40
12.0
 40
12.0
 40
13.0
 40
13.0
 40
13.0
 40
14.0
 40
14.0
 40
14.0
 40
15.0
 40
15.0
 40
15.0
 40
16.0
 40
16.0
 40
16.0
 40
17.0
 40
17.0
 40
17.0
 40
18.0
 40
18.0
 40
18.0
 40
19.0
 40
19.0
 40
19.0
 40
20.0
 40
20.0
 40
20.0
 40
21.0
 40
21.0
 40
21.0
 40
22.0
 40
22.0
 40
22.0
 40
23.0
 40
23.0
 40
23.0
 40
24.0
 40
24.0
 40
24.0
 40
25.0
 40
25.0
 40
25.0
 40
26.0
 40
26.0
 40
26.0
 40
27.0
 40
27.0
 40
27.0
 40
28.0
 40
28.0
 40
28.0
 40
29.0
 40
29.0
 40
29.0
 40
30.0
 40
30.0
 40
30.0
 40
31.0
 40
31.0
 40
31.0
 40
32.0
 40
32.0
 40
32.0
 40
33.0
 40
33.0
 40
33.0
 40
34.0
 40
34.0
 40
34.0
 40
35.0
 40
35.0
 40
35.0
 40
36.0
 40
36.0
 40
36.0
 40
37.0
 40
37.0
 40
37.0
 40
38.0
 40
38.0
 40
38.0
 40
39.0
 40
39.0
 40
39.0
 40
40.0
 40
40.0
 40
40.0
 40
41.0
 40
41.0
 40
41.0
 40
42.0
 40
42.0
 40
42.0
 40
43.0
 40
43.0
 40
43.0
 40
43.0
 10
-936.136019248379
 20
758.4275
 30
0.0
 10
-924.308519248379
 20
758.4275
 30
0.0
 10
-912.481019248379
 20
758.4275
 30
0.0
 10
-911.236019248379
 20
758.4275
 30
0.0
 10
-911.236019248379
 20
758.2775
 30
0.0
 10
-911.236019248379
 20
755.5775
 30
0.0
 10
-911.236019248379
 20
755.4275
 30
0.0
 10
-908.746019248379
 20
755.4275
 30
0.0
 10
-863.926019248379
 20
755.4275
 30
0.0
 10
-861.436019248379
 20
755.4275
 30
0.0
 10
-861.436019248379
 20
755.5775
 30
0.0
 10
-861.436019248379
 20
758.2775
 30
0.0
 10
-861.436019248379
 20
758.4275
 30
0.0
 10
-858.946019248379
 20
758.4275
 30
0.0
 10
-814.126019248379
 20
758.4275
 30
0.0
 10
-811.636019248379
 20
758.4275
 30
0.0
 10
-811.636019248379
 20
758.2775
 30
0.0
 10
-811.636019248379
 20
755.5775
 30
0.0
 10
-811.636019248379
 20
755.4275
 30
0.0
 10
-809.146019248379
 20
755.4275
 30
0.0
 10
-764.326019248379
 20
755.4275
 30
0.0
 10
-761.836019248379
 20
755.4275
 30
0.0
 10
-761.836019248379
 20
755.5775
 30
0.0
 10
-761.836019248379
 20
758.2775
 30
0.0
 10
-761.836019248379
 20
758.4275
 30
0.0
 10
-759.346019248379
 20
758.4275
 30
0.0
 10
-714.526019248379
 20
758.4275
 30
0.0
 10
-712.036019248379
 20
758.4275
 30
0.0
 10
-712.036019248379
 20
758.2775
 30
0.0
 10
-712.036019248379
 20
755.5775
 30
0.0
 10
-712.036019248379
 20
755.4275
 30
0.0
 10
-710.791019248379
 20
755.4275
 30
0.0
 10
-688.381019248379
 20
755.4275
 30
0.0
 10
-687.136019248379
 20
755.4275
 30
0.0
 10
-687.136019248379
 20
754.3225
 30
0.0
 10
-687.136019248379
 20
734.4325
 30
0.0
 10
-687.136019248379
 20
733.3275
 30
0.0
 10
-686.986019248379
 20
733.3275
 30
0.0
 10
-684.286019248379
 20
733.3275
 30
0.0
 10
-684.136019248379
 20
733.3275
 30
0.0
 10
-684.136019248379
 20
730.8175
 30
0.0
 10
-684.136019248379
 20
685.6375
 30
0.0
 10
-684.136019248379
 20
683.1275
 30
0.0
 10
-684.286019248379
 20
683.1275
 30
0.0
 10
-686.986019248379
 20
683.1275
 30
0.0
 10
-687.136019248379
 20
683.1275
 30
0.0
 10
-687.136019248379
 20
680.6175
 30
0.0
 10
-687.136019248379
 20
635.4375
 30
0.0
 10
-687.136019248379
 20
632.9275
 30
0.0
 10
-686.986019248379
 20
632.9275
 30
0.0
 10
-684.286019248379
 20
632.9275
 30
0.0
 10
-684.136019248379
 20
632.9275
 30
0.0
 10
-684.136019248379
 20
630.4175
 30
0.0
 10
-684.136019248379
 20
585.2375
 30
0.0
 10
-684.136019248379
 20
582.7275
 30
0.0
 10
-684.286019248379
 20
582.7275
 30
0.0
 10
-686.986019248379
 20
582.7275
 30
0.0
 10
-687.136019248379
 20
582.7275
 30
0.0
 10
-687.136019248379
 20
580.2175
 30
0.0
 10
-687.136019248379
 20
535.0375
 30
0.0
 10
-687.136019248379
 20
532.5275
 30
0.0
 10
-686.986019248379
 20
532.5275
 30
0.0
 10
-684.286019248379
 20
532.5275
 30
0.0
 10
-684.136019248379
 20
532.5275
 30
0.0
 10
-684.136019248379
 20
530.0175
 30
0.0
 10
-684.136019248379
 20
484.8375
 30
0.0
 10
-684.136019248379
 20
482.3275
 30
0.0
 10
-684.286019248379
 20
482.3275
 30
0.0
 10
-686.986019248379
 20
482.3275
 30
0.0
 10
-687.136019248379
 20
482.3275
 30
0.0
 10
-687.136019248379
 20
479.8175
 30
0.0
 10
-687.136019248379
 20
434.6375
 30
0.0
 10
-687.136019248379
 20
432.1275
 30
0.0
 10
-686.986019248379
 20
432.1275
 30
0.0
 10
-684.286019248379
 20
432.1275
 30
0.0
 10
-684.136019248379
 20
432.1275
 30
0.0
 10
-684.136019248379
 20
429.6175
 30
0.0
 10
-684.136019248379
 20
384.4375
 30
0.0
 10
-684.136019248379
 20
381.9275
 30
0.0
 10
-684.286019248379
 20
381.9275
 30
0.0
 10
-686.986019248379
 20
381.9275
 30
0.0
 10
-687.136019248379
 20
381.9275
 30
0.0
 10
-687.136019248379
 20
379.4175
 30
0.0
 10
-687.136019248379
 20
334.2375
 30
0.0
 10
-687.136019248379
 20
331.7275
 30
0.0
 10
-686.986019248379
 20
331.7275
 30
0.0
 10
-684.286019248379
 20
331.7275
 30
0.0
 10
-684.136019248379
 20
331.7275
 30
0.0
 10
-684.136019248379
 20
329.2175
 30
0.0
 10
-684.136019248379
 20
284.0375
 30
0.0
 10
-684.136019248379
 20
281.5275
 30
0.0
 10
-684.286019248379
 20
281.5275
 30
0.0
 10
-686.986019248379
 20
281.5275
 30
0.0
 10
-687.136019248379
 20
281.5275
 30
0.0
 10
-687.136019248379
 20
280.4225
 30
0.0
 10
-687.136019248379
 20
260.5325
 30
0.0
 10
-687.136019248379
 20
259.4275
 30
0.0
 10
-688.381019248379
 20
259.4275
 30
0.0
 10
-710.791019248379
 20
259.4275
 30
0.0
 10
-712.036019248379
 20
259.4275
 30
0.0
 10
-712.036019248379
 20
259.2775
 30
0.0
 10
-712.036019248379
 20
256.5775
 30
0.0
 10
-712.036019248379
 20
256.4275
 30
0.0
 10
-714.526019248379
 20
256.4275
 30
0.0
 10
-759.346019248379
 20
256.4275
 30
0.0
 10
-761.836019248379
 20
256.4275
 30
0.0
 10
-761.836019248379
 20
256.5775
 30
0.0
 10
-761.836019248379
 20
259.2775
 30
0.0
 10
-761.836019248379
 20
259.4275
 30
0.0
 10
-764.326019248379
 20
259.4275
 30
0.0
 10
-809.146019248379
 20
259.4275
 30
0.0
 10
-811.636019248379
 20
259.4275
 30
0.0
 10
-811.636019248379
 20
259.2775
 30
0.0
 10
-811.636019248379
 20
256.5775
 30
0.0
 10
-811.636019248379
 20
256.4275
 30
0.0
 10
-814.126019248379
 20
256.4275
 30
0.0
 10
-858.946019248379
 20
256.4275
 30
0.0
 10
-861.436019248379
 20
256.4275
 30
0.0
 10
-861.436019248379
 20
256.5775
 30
0.0
 10
-861.436019248379
 20
259.2775
 30
0.0
 10
-861.436019248379
 20
259.4275
 30
0.0
 10
-863.926019248379
 20
259.4275
 30
0.0
 10
-908.746019248379
 20
259.4275
 30
0.0
 10
-911.236019248379
 20
259.4275
 30
0.0
 10
-911.236019248379
 20
259.2775
 30
0.0
 10
-911.236019248379
 20
256.5775
 30
0.0
 10
-911.236019248379
 20
256.4275
 30
0.0
 10
-912.481019248379
 20
256.4275
 30
0.0
 10
-924.308519248379
 20
256.4275
 30
0.0
 10
-936.136019248379
 20
256.4275
 30
0.0
  0
SPLINE
  5
116
100
AcDbEntity
  8
Layer_1
100
AcDbSpline
 70
     8
 71
     3
 72
    20
 73
    16
 74
     0
 42
0.0000001
 43
0.0000001
 40
0.0
 40
0.0
 40
0.0
 40
0.0
 40
1.0
 40
1.0
 40
1.0
 40
2.0
 40
2.0
 40
2.0
 40
3.0
 40
3.0
 40
3.0
 40
4.0
 40
4.0
 40
4.0
 40
5.0
 40
5.0
 40
5.0
 40
5.0
 10
-936.136019248379
 20
289.4275
 30
0.0
 10
-835.911019248379
 20
289.4275
 30
0.0
 10
-735.686019248379
 20
289.4275
 30
0.0
 10
-725.136019248379
 20
289.4275
 30
0.0
 10
-720.729819248379
 20
289.4275
 30
0.0
 10
-717.136019248379
 20
292.9725
 30
0.0
 10
-717.136019248379
 20
297.3189
 30
0.0
 10
-717.136019248379
 20
318.32976
 30
0.0
 10
-717.136019248379
 20
696.52524
 30
0.0
 10
-717.136019248379
 20
717.5361
 30
0.0
 10
-717.136019248379
 20
721.8825
 30
0.0
 10
-720.729819248379
 20
725.4275
 30
0.0
 10
-725.136019248379
 20
725.4275
 30
0.0
 10
-735.686019248379
 20
725.4275
 30
0.0
 10
-835.911019248379
 20
725.4275
 30
0.0
 10
-936.136019248379
 20
725.4275
 30
0.0
  0
LINE
  5
117
100
AcDbEntity
  8
0
100
AcDbLine
 10
-936.136019248379
 20
725.4275
 30
0.0
 11
-936.136019248379
 21
758.4275
 31
0.0
  0
LINE
  5
118
100
AcDbEntity
  8
0
100
AcDbLine
 10
-936.136019248379
 20
289.4275
 30
0.0
 11
-936.136019248379
 21
256.4275
 31
0.0
  0
SPLINE
  5
119
100
AcDbEntity
  8
Layer_1
100
AcDbSpline
 70
     8
 71
     3
 72
    20
 73
    16
 74
     0
 42
0.0000001
 43
0.0000001
 40
0.0
 40
0.0
 40
0.0
 40
0.0
 40
1.0
 40
1.0
 40
1.0
 40
2.0
 40
2.0
 40
2.0
 40
3.0
 40
3.0
 40
3.0
 40
4.0
 40
4.0
 40
4.0
 40
5.0
 40
5.0
 40
5.0
 40
5.0
 10
-729.834415275938
 20
773.0
 30
0.0
 10
-830.059415275938
 20
773.0
 30
0.0
 10
-930.284415275938
 20
773.0
 30
0.0
 10
-940.834415275938
 20
773.0
 30
0.0
 10
-945.240615275938
 20
773.0
 30
0.0
 10
-948.834415275938
 20
769.455
 30
0.0
 10
-948.834415275938
 20
765.1086
 30
0.0
 10
-948.834415275938
 20
744.09774
 30
0.0
 10
-948.834415275938
 20
365.90226
 30
0.0
 10
-948.834415275938
 20
344.8914
 30
0.0
 10
-948.834415275938
 20
340.545
 30
0.0
 10
-945.240615275938
 20
337.0
 30
0.0
 10
-940.834415275938
 20
337.0
 30
0.0
 10
-930.284415275938
 20
337.0
 30
0.0
 10
-830.059415275938
 20
337.0
 30
0.0
 10
-729.834415275938
 20
337.0
 30
0.0
  0
SPLINE
  5
11a
100
AcDbEntity
  8
Layer_1
100
AcDbSpline
 70
     8
 71
     3
 72
   134
 73
   130
 74
     0
 42
0.0000001
 43
0.0000001
 40
0.0
 40
0.0
 40
0.0
 40
0.0
 40
1.0
 40
1.0
 40
1.0
 40
2.0
 40
2.0
 40
2.0
 40
3.0
 40
3.0
 40
3.0
 40
4.0
 40
4.0
 40
4.0
 40
5.0
 40
5.0
 40
5.0
 40
6.0
 40
6.0
 40
6.0
 40
7.0
 40
7.0
 40
7.0
 40
8.0
 40
8.0
 40
8.0
 40
9.0
 40
9.0
 40
9.0
 40
10.0
 40
10.0
 40
10.0
 40
11.0
 40
11.0
 40
11.0
 40
12.0
 40
12.0
 40
12.0
 40
13.0
 40
13.0
 40
13.0
 40
14.0
 40
14.0
 40
14.0
 40
15.0
 40
15.0
 40
15.0
 40
16.0
 40
16.0
 40
16.0
 40
17.0
 40
17.0
 40
17.0
 40
18.0
 40
18.0
 40
18.0
 40
19.0
 40
19.0
 40
19.0
 40
20.0
 40
20.0
 40
20.0
 40
21.0
 40
21.0
 40
21.0
 40
22.0
 40
22.0
 40
22.0
 40
23.0
 40
23.0
 40
23.0
 40
24.0
 40
24.0
 40
24.0
 40
25.0
 40
25.0
 40
25.0
 40
26.0
 40
26.0
 40
26.0
 40
27.0
 40
27.0
 40
27.0
 40
28.0
 40
28.0
 40
28.0
 40
29.0
 40
29.0
 40
29.0
 40
30.0
 40
30.0
 40
30.0
 40
31.0
 40
31.0
 40
31.0
 40
32.0
 40
32.0
 40
32.0
 40
33.0
 40
33.0
 40
33.0
 40
34.0
 40
34.0
 40
34.0
 40
35.0
 40
35.0
 40
35.0
 40
36.0
 40
36.0
 40
36.0
 40
37.0
 40
37.0
 40
37.0
 40
38.0
 40
38.0
 40
38.0
 40
39.0
 40
39.0
 40
39.0
 40
40.0
 40
40.0
 40
40.0
 40
41.0
 40
41.0
 40
41.0
 40
42.0
 40
42.0
 40
42.0
 40
43.0
 40
43.0
 40
43.0
 40
43.0
 10
-729.834415275938
 20
304.0
 30
0.0
 10
-741.661915275938
 20
304.0
 30
0.0
 10
-753.489415275938
 20
304.0
 30
0.0
 10
-754.734415275938
 20
304.0
 30
0.0
 10
-754.734415275938
 20
304.15
 30
0.0
 10
-754.734415275938
 20
306.85
 30
0.0
 10
-754.734415275938
 20
307.0
 30
0.0
 10
-757.224415275938
 20
307.0
 30
0.0
 10
-802.044415275938
 20
307.0
 30
0.0
 10
-804.534415275938
 20
307.0
 30
0.0
 10
-804.534415275938
 20
306.85
 30
0.0
 10
-804.534415275938
 20
304.15
 30
0.0
 10
-804.534415275938
 20
304.0
 30
0.0
 10
-807.024415275939
 20
304.0
 30
0.0
 10
-851.844415275938
 20
304.0
 30
0.0
 10
-854.334415275938
 20
304.0
 30
0.0
 10
-854.334415275938
 20
304.15
 30
0.0
 10
-854.334415275938
 20
306.85
 30
0.0
 10
-854.334415275938
 20
307.0
 30
0.0
 10
-856.824415275938
 20
307.0
 30
0.0
 10
-901.644415275938
 20
307.0
 30
0.0
 10
-904.134415275938
 20
307.0
 30
0.0
 10
-904.134415275938
 20
306.85
 30
0.0
 10
-904.134415275938
 20
304.15
 30
0.0
 10
-904.134415275938
 20
304.0
 30
0.0
 10
-906.624415275938
 20
304.0
 30
0.0
 10
-951.444415275939
 20
304.0
 30
0.0
 10
-953.934415275938
 20
304.0
 30
0.0
 10
-953.934415275938
 20
304.15
 30
0.0
 10
-953.934415275938
 20
306.85
 30
0.0
 10
-953.934415275938
 20
307.0
 30
0.0
 10
-955.179415275938
 20
307.0
 30
0.0
 10
-977.589415275939
 20
307.0
 30
0.0
 10
-978.834415275938
 20
307.0
 30
0.0
 10
-978.834415275938
 20
308.105
 30
0.0
 10
-978.834415275938
 20
327.995
 30
0.0
 10
-978.834415275938
 20
329.1
 30
0.0
 10
-978.984415275939
 20
329.1
 30
0.0
 10
-981.684415275938
 20
329.1
 30
0.0
 10
-981.834415275938
 20
329.1
 30
0.0
 10
-981.834415275938
 20
331.61
 30
0.0
 10
-981.834415275938
 20
376.79
 30
0.0
 10
-981.834415275938
 20
379.3
 30
0.0
 10
-981.684415275938
 20
379.3
 30
0.0
 10
-978.984415275939
 20
379.3
 30
0.0
 10
-978.834415275938
 20
379.3
 30
0.0
 10
-978.834415275938
 20
381.81
 30
0.0
 10
-978.834415275938
 20
426.99
 30
0.0
 10
-978.834415275938
 20
429.5
 30
0.0
 10
-978.984415275939
 20
429.5
 30
0.0
 10
-981.684415275938
 20
429.5
 30
0.0
 10
-981.834415275938
 20
429.5
 30
0.0
 10
-981.834415275938
 20
432.01
 30
0.0
 10
-981.834415275938
 20
477.19
 30
0.0
 10
-981.834415275938
 20
479.7
 30
0.0
 10
-981.684415275938
 20
479.7
 30
0.0
 10
-978.984415275939
 20
479.7
 30
0.0
 10
-978.834415275938
 20
479.7
 30
0.0
 10
-978.834415275938
 20
482.21
 30
0.0
 10
-978.834415275938
 20
527.39
 30
0.0
 10
-978.834415275938
 20
529.9
 30
0.0
 10
-978.984415275939
 20
529.9
 30
0.0
 10
-981.684415275938
 20
529.9
 30
0.0
 10
-981.834415275938
 20
529.9
 30
0.0
 10
-981.834415275938
 20
532.41
 30
0.0
 10
-981.834415275938
 20
577.59
 30
0.0
 10
-981.834415275938
 20
580.1
 30
0.0
 10
-981.684415275938
 20
580.1
 30
0.0
 10
-978.984415275939
 20
580.1
 30
0.0
 10
-978.834415275938
 20
580.1
 30
0.0
 10
-978.834415275938
 20
582.61
 30
0.0
 10
-978.834415275938
 20
627.79
 30
0.0
 10
-978.834415275938
 20
630.3
 30
0.0
 10
-978.984415275939
 20
630.3
 30
0.0
 10
-981.684415275938
 20
630.3
 30
0.0
 10
-981.834415275938
 20
630.3
 30
0.0
 10
-981.834415275938
 20
632.81
 30
0.0
 10
-981.834415275938
 20
677.99
 30
0.0
 10
-981.834415275938
 20
680.5
 30
0.0
 10
-981.684415275938
 20
680.5
 30
0.0
 10
-978.984415275939
 20
680.5
 30
0.0
 10
-978.834415275938
 20
680.5
 30
0.0
 10
-978.834415275938
 20
683.01
 30
0.0
 10
-978.834415275938
 20
728.19
 30
0.0
 10
-978.834415275938
 20
730.7
 30
0.0
 10
-978.984415275939
 20
730.7
 30
0.0
 10
-981.684415275938
 20
730.7
 30
0.0
 10
-981.834415275938
 20
730.7
 30
0.0
 10
-981.834415275938
 20
733.21
 30
0.0
 10
-981.834415275938
 20
778.39
 30
0.0
 10
-981.834415275938
 20
780.9
 30
0.0
 10
-981.684415275938
 20
780.9
 30
0.0
 10
-978.984415275939
 20
780.9
 30
0.0
 10
-978.834415275938
 20
780.9
 30
0.0
 10
-978.834415275938
 20
782.005
 30
0.0
 10
-978.834415275938
 20
801.895
 30
0.0
 10
-978.834415275938
 20
803.0
 30
0.0
 10
-977.589415275939
 20
803.0
 30
0.0
 10
-955.179415275938
 20
803.0
 30
0.0
 10
-953.934415275938
 20
803.0
 30
0.0
 10
-953.934415275938
 20
803.15
 30
0.0
 10
-953.934415275938
 20
805.85
 30
0.0
 10
-953.934415275938
 20
806.0
 30
0.0
 10
-951.444415275939
 20
806.0
 30
0.0
 10
-906.624415275938
 20
806.0
 30
0.0
 10
-904.134415275938
 20
806.0
 30
0.0
 10
-904.134415275938
 20
805.85
 30
0.0
 10
-904.134415275938
 20
803.15
 30
0.0
 10
-904.134415275938
 20
803.0
 30
0.0
 10
-901.644415275938
 20
803.0
 30
0.0
 10
-856.824415275938
 20
803.0
 30
0.0
 10
-854.334415275938
 20
803.0
 30
0.0
 10
-854.334415275938
 20
803.15
 30
0.0
 10
-854.334415275938
 20
805.85
 30
0.0
 10
-854.334415275938
 20
806.0
 30
0.0
 10
-851.844415275938
 20
806.0
 30
0.0
 10
-807.024415275939
 20
806.0
 30
0.0
 10
-804.534415275938
 20
806.0
 30
0.0
 10
-804.534415275938
 20
805.85
 30
0.0
 10
-804.534415275938
 20
803.15
 30
0.0
 10
-804.534415275938
 20
803.0
 30
0.0
 10
-802.044415275938
 20
803.0
 30
0.0
 10
-757.224415275938
 20
803.0
 30
0.0
 10
-754.734415275938
 20
803.0
 30
0.0
 10
-754.734415275938
 20
803.15
 30
0.0
 10
-754.734415275938
 20
805.85
 30
0.0
 10
-754.734415275938
 20
806.0
 30
0.0
 10
-753.489415275938
 20
806.0
 30
0.0
 10
-741.661915275938
 20
806.0
 30
0.0
 10
-729.834415275938
 20
806.0
 30
0.0
  0
LINE
  5
11b
100
AcDbEntity
  8
0
100
AcDbLine
 10
-729.834415275938
 20
806.0
 30
0.0
 11
-729.834415275938
 21
773.0
 31
0.0
  0
LINE
  5
11c
100
AcDbEntity
  8
0
100
AcDbLine
 10
-729.834415275938
 20
337.0
 30
0.0
 11
-729.834415275938
 21
304.0
 31
0.0
  0
POLYLINE
  5
122
100
AcDbEntity
  8
0
100
AcDb3dPolyline
 66
     1
 10
0.0
 20
0.0
 30
0.0
 70
     1
  0
VERTEX
  5
11d
100
AcDbEntity
  8
0
100
AcDbVertex
100
AcDb3dPolylineVertex
 70
     0
 10
-1128.0
 20
-475.0
 30
0.0
  0
VERTEX
  5
11e
100
AcDbEntity
  8
0
100
AcDbVertex
100
AcDb3dPolylineVertex
 70
     0
 10
-1028.0
 20
-475.0
 30
0.0
  0
VERTEX
  5
11f
100
AcDbEntity
  8
0
100
AcDbVertex
100
AcDb3dPolylineVertex
 70
     0
 10
-1028.0
 20
-375.0
 30
0.0
  0
VERTEX
  5
120
100
AcDbEntity
  8
0
100
AcDbVertex
100
AcDb3dPolylineVertex
 70
     0
 10
-1128.0
 20
-375.0
 30
0.0
  0
SEQEND
  5
121
100
AcDbEntity
  8
0
  0
DIMENSION
  5
123
100
AcDbEntity
  8
0
100
AcDbDimension
 10
-1028.0
 20
-461.0
 30
0.0
 70
     0
 71
     5
  1
<>
210
0.0
220
0.0
230
1.0
  3
DimStyle0
100
AcDbAlignedDimension
 13
-1128.0
 23
-475.0
 33
0.0
 14
-1028.0
 24
-475.0
 34
0.0
 50
0.0
100
AcDbRotatedDimension
  0
DIMENSION
  5
124
100
AcDbEntity
  8
0
100
AcDbDimension
 10
-1111.0
 20
-475.0
 30
0.0
 70
     0
 71
     5
  1
<>
210
0.0
220
0.0
230
1.0
  3
DimStyle0
100
AcDbAlignedDimension
 13
-1128.0
 23
-375.0
 33
0.0
 14
-1128.0
 24
-475.0
 34
0.0
 50
270.0
100
AcDbRotatedDimension
  0
ENDSEC
  0
SECTION
  2
OBJECTS
  0
DICTIONARY
  5
C
330
0
100
AcDbDictionary
281
     1
  3
ACAD_2007HEADERVARS_RT
350
AA
  3
ACAD_COLOR
350
6B
  3
ACAD_GROUP
350
D
  3
ACAD_LAYOUT
350
6A
  3
ACAD_MATERIAL
350
10
  3
ACAD_MLEADERSTYLE
350
6E
  3
ACAD_MLINESTYLE
350
67
  3
ACAD_PLOTSETTINGS
350
69
  3
ACAD_PLOTSTYLENAME
350
E
  3
ACAD_SCALELIST
350
3A
  3
ACAD_TABLESTYLE
350
6C
  3
ACAD_VISUALSTYLE
350
29
  3
ACDB_RECOMPOSE_DATA
350
A8
  3
AcDbVariableDictionary
350
9C
  3
DWGPROPS
350
A9
  0
DICTIONARY
  5
9A
330
5C
100
AcDbDictionary
280
     1
281
     1
  3
ADSK_XREC_LAYER_RECONCILED
360
9B
  0
DICTIONARY
  5
AA
102
{ACAD_REACTORS
330
C
102
}
330
C
100
AcDbDictionary
281
     1
  3
DIMJOGANG
350
AB
  0
DICTIONARY
  5
6B
102
{ACAD_REACTORS
330
C
102
}
330
C
100
AcDbDictionary
281
     1
  0
DICTIONARY
  5
D
102
{ACAD_REACTORS
330
C
102
}
330
C
100
AcDbDictionary
281
     1
  0
DICTIONARY
  5
6A
102
{ACAD_REACTORS
330
C
102
}
330
C
100
AcDbDictionary
281
     1
  3
Layout1
350
74
  3
Layout2
350
7C
  3
Model
350
78
  0
DICTIONARY
  5
10
102
{ACAD_REACTORS
330
C
102
}
330
C
100
AcDbDictionary
281
     1
  3
ByBlock
350
19
  3
ByLayer
350
11
  3
Global
350
21
  0
DICTIONARY
  5
6E
102
{ACAD_REACTORS
330
C
102
}
330
C
100
AcDbDictionary
281
     1
  3
Standard
350
6F
  0
DICTIONARY
  5
67
102
{ACAD_REACTORS
330
C
102
}
330
C
100
AcDbDictionary
281
     1
  3
Standard
350
68
  0
DICTIONARY
  5
69
102
{ACAD_REACTORS
330
C
102
}
330
C
100
AcDbDictionary
281
     1
  0
ACDBDICTIONARYWDFLT
  5
E
102
{ACAD_REACTORS
330
C
102
}
330
C
100
AcDbDictionary
281
     1
  3
Normal
350
F
100
AcDbDictionaryWithDefault
340
F
  0
DICTIONARY
  5
3A
102
{ACAD_REACTORS
330
C
102
}
330
C
100
AcDbDictionary
281
     1
  3
A0
350
3B
  3
A1
350
3C
  3
A2
350
3D
  3
A3
350
3E
  3
A4
350
3F
  3
A5
350
40
  3
A6
350
41
  3
A7
350
42
  3
A8
350
43
  3
A9
350
44
  3
B0
350
45
  3
B1
350
46
  3
B2
350
47
  3
B3
350
48
  3
B4
350
49
  3
B5
350
4A
  3
B6
350
4B
  3
B7
350
4C
  3
B8
350
4D
  3
B9
350
4E
  3
C0
350
4F
  3
C1
350
50
  3
C2
350
51
  3
C3
350
52
  3
C4
350
53
  3
C5
350
54
  3
C6
350
55
  3
C7
350
56
  3
C8
350
57
  3
C9
350
58
  3
D0
350
59
  3
D1
350
5A
  3
D2
350
5B
  0
DICTIONARY
  5
6C
102
{ACAD_REACTORS
330
C
102
}
330
C
100
AcDbDictionary
281
     1
  3
Standard
350
6D
  0
DICTIONARY
  5
29
102
{ACAD_REACTORS
330
C
102
}
330
C
100
AcDbDictionary
281
     1
  3
2dWireframe
350
2F
  3
3D Hidden
350
31
  3
3dWireframe
350
30
  3
Basic
350
2E
  3
Brighten
350
35
  3
ColorChange
350
39
  3
Conceptual
350
32
  3
Dim
350
34
  3
Facepattern
350
38
  3
Flat
350
2A
  3
FlatWithEdges
350
2B
  3
Gouraud
350
2C
  3
GouraudWithEdges
350
2D
  3
Linepattern
350
37
  3
Realistic
350
33
  3
Thicken
350
36
  0
XRECORD
  5
A8
102
{ACAD_REACTORS
330
C
102
}
330
C
100
AcDbXrecord
280
     1
 90
     1
330
6D
  0
DICTIONARY
  5
9C
102
{ACAD_REACTORS
330
C
102
}
330
C
100
AcDbDictionary
281
     1
  3
CANNOSCALE
350
A0
  3
CMLEADERSTYLE
350
9E
  3
CTABLESTYLE
350
9D
  3
DIMASSOC
350
A5
  3
HIDETEXT
350
A4
  3
INDEXCTL
350
A3
  3
LIGHTINGUNITS
350
A1
  3
MSLTSCALE
350
9F
  3
SORTENTS
350
A2
  0
XRECORD
  5
A9
102
{ACAD_REACTORS
330
C
102
}
330
C
100
AcDbXrecord
280
     1
  1
DWGPROPS COOKIE
  2

  3

  4

  6

  7

  8
Michael
  9

300
=
301
=
302
=
303
=
304
=
305
=
306
=
307
=
308
=
309
=
 40
0.002929872685
 41
2456236.994979560841
 42
2456236.997909063008
  1

 90
     0
  0
XRECORD
  5
9B
102
{ACAD_REACTORS
330
9A
102
}
330
9A
100
AcDbXrecord
280
     1
290
1
  0
XRECORD
  5
AB
102
{ACAD_REACTORS
330
AA
102
}
330
AA
100
AcDbXrecord
280
     1
 40
1.570796326795
  0
LAYOUT
  5
74
102
{ACAD_XDICTIONARY
360
B1
102
}
102
{ACAD_REACTORS
330
6A
102
}
330
6A
100
AcDbPlotSettings
  1

  2
Auto Canon Bubble-Jet BJC-1000 on MGIBSON-HOME
  4

  6

 40
0.0
 41
0.0
 42
0.0
 43
0.0
 44
0.0
 45
0.0
 46
0.0
 47
0.0
 48
0.0
 49
0.0
140
0.0
141
0.0
142
1.0
143
1.0
 70
   688
 72
     0
 73
     0
 74
     5
  7

 75
    16
147
1.0
148
0.0
149
0.0
100
AcDbLayout
  1
Layout1
 70
     1
 71
     1
 10
0.0
 20
0.0
 11
420.0
 21
297.0
 12
0.0
 22
0.0
 32
0.0
 14
100000000000000000000.0
 24
100000000000000000000.0
 34
100000000000000000000.0
 15
-100000000000000000000.0
 25
-100000000000000000000.0
 35
-100000000000000000000.0
146
0.0
 13
0.0
 23
0.0
 33
0.0
 16
1.0
 26
0.0
 36
0.0
 17
0.0
 27
1.0
 37
0.0
 76
     0
330
71
  0
LAYOUT
  5
7C
102
{ACAD_XDICTIONARY
360
B5
102
}
102
{ACAD_REACTORS
330
6A
102
}
330
6A
100
AcDbPlotSettings
  1

  2
Auto Canon Bubble-Jet BJC-1000 on MGIBSON-HOME
  4

  6

 40
0.0
 41
0.0
 42
0.0
 43
0.0
 44
0.0
 45
0.0
 46
0.0
 47
0.0
 48
0.0
 49
0.0
140
0.0
141
0.0
142
1.0
143
1.0
 70
   688
 72
     0
 73
     0
 74
     5
  7

 75
    16
147
1.0
148
0.0
149
0.0
100
AcDbLayout
  1
Layout2
 70
     1
 71
     2
 10
0.0
 20
0.0
 11
12.0
 21
9.0
 12
0.0
 22
0.0
 32
0.0
 14
0.0
 24
0.0
 34
0.0
 15
0.0
 25
0.0
 35
0.0
146
0.0
 13
0.0
 23
0.0
 33
0.0
 16
1.0
 26
0.0
 36
0.0
 17
0.0
 27
1.0
 37
0.0
 76
     0
330
79
  0
LAYOUT
  5
78
102
{ACAD_XDICTIONARY
360
B3
102
}
102
{ACAD_REACTORS
330
6A
102
}
330
6A
100
AcDbPlotSettings
  1

  2
Auto Canon Bubble-Jet BJC-1000 on MGIBSON-HOME
  4

  6

 40
0.0
 41
0.0
 42
0.0
 43
0.0
 44
0.0
 45
0.0
 46
0.0
 47
0.0
 48
0.0
 49
0.0
140
0.0
141
0.0
142
1.0
143
1.0
 70
  1712
 72
     0
 73
     0
 74
     0
  7

 75
     0
147
1.0
148
0.0
149
0.0
100
AcDbLayout
  1
Model
 70
     1
 71
     0
 10
0.0
 20
0.0
 11
12.0
 21
9.0
 12
0.0
 22
0.0
 32
0.0
 14
0.0
 24
0.0
 34
0.0
 15
0.0
 25
0.0
 35
0.0
146
0.0
 13
0.0
 23
0.0
 33
0.0
 16
1.0
 26
0.0
 36
0.0
 17
0.0
 27
1.0
 37
0.0
 76
     0
330
75
331
5F
  0
MATERIAL
  5
19
102
{ACAD_XDICTIONARY
360
1A
102
}
102
{ACAD_REACTORS
330
10
102
}
330
10
100
AcDbMaterial
  1
ByBlock
 72
     0
 43
0.020833333333
 43
0.0
 43
0.0
 43
0.0
 43
0.0
 43
0.020833333333
 43
0.0
 43
0.0
 43
0.0
 43
0.0
 43
1.0
 43
0.0
 43
0.0
 43
0.0
 43
0.0
 43
1.0
 77
     0
 47
0.020833333333
 47
0.0
 47
0.0
 47
0.0
 47
0.0
 47
0.020833333333
 47
0.0
 47
0.0
 47
0.0
 47
0.0
 47
1.0
 47
0.0
 47
0.0
 47
0.0
 47
0.0
 47
1.0
171
     0
 49
0.020833333333
 49
0.0
 49
0.0
 49
0.0
 49
0.0
 49
0.020833333333
 49
0.0
 49
0.0
 49
0.0
 49
0.0
 49
1.0
 49
0.0
 49
0.0
 49
0.0
 49
0.0
 49
1.0
175
     0
142
0.020833333333
142
0.0
142
0.0
142
0.0
142
0.0
142
0.020833333333
142
0.0
142
0.0
142
0.0
142
0.0
142
1.0
142
0.0
142
0.0
142
0.0
142
0.0
142
1.0
179
0
144
0.020833333333
144
0.0
144
0.0
144
0.0
144
0.0
144
0.020833333333
144
0.0
144
0.0
144
0.0
144
0.0
144
1.0
144
0.0
144
0.0
144
0.0
144
0.0
144
1.0
147
0.020833333333
147
0.0
147
0.0
147
0.0
147
0.0
147
0.020833333333
147
0.0
147
0.0
147
0.0
147
0.0
147
1.0
147
0.0
147
0.0
147
0.0
147
0.0
147
1.0
  0
MATERIAL
  5
11
102
{ACAD_XDICTIONARY
360
12
102
}
102
{ACAD_REACTORS
330
10
102
}
330
10
100
AcDbMaterial
  1
ByLayer
 72
     0
 43
0.020833333333
 43
0.0
 43
0.0
 43
0.0
 43
0.0
 43
0.020833333333
 43
0.0
 43
0.0
 43
0.0
 43
0.0
 43
1.0
 43
0.0
 43
0.0
 43
0.0
 43
0.0
 43
1.0
 77
     0
 47
0.020833333333
 47
0.0
 47
0.0
 47
0.0
 47
0.0
 47
0.020833333333
 47
0.0
 47
0.0
 47
0.0
 47
0.0
 47
1.0
 47
0.0
 47
0.0
 47
0.0
 47
0.0
 47
1.0
171
     0
 49
0.020833333333
 49
0.0
 49
0.0
 49
0.0
 49
0.0
 49
0.020833333333
 49
0.0
 49
0.0
 49
0.0
 49
0.0
 49
1.0
 49
0.0
 49
0.0
 49
0.0
 49
0.0
 49
1.0
175
     0
142
0.020833333333
142
0.0
142
0.0
142
0.0
142
0.0
142
0.020833333333
142
0.0
142
0.0
142
0.0
142
0.0
142
1.0
142
0.0
142
0.0
142
0.0
142
0.0
142
1.0
179
0
144
0.020833333333
144
0.0
144
0.0
144
0.0
144
0.0
144
0.020833333333
144
0.0
144
0.0
144
0.0
144
0.0
144
1.0
144
0.0
144
0.0
144
0.0
144
0.0
144
1.0
147
0.020833333333
147
0.0
147
0.0
147
0.0
147
0.0
147
0.020833333333
147
0.0
147
0.0
147
0.0
147
0.0
147
1.0
147
0.0
147
0.0
147
0.0
147
0.0
147
1.0
  0
MATERIAL
  5
21
102
{ACAD_XDICTIONARY
360
22
102
}
102
{ACAD_REACTORS
330
10
102
}
330
10
100
AcDbMaterial
  1
Global
 72
     0
 43
0.020833333333
 43
0.0
 43
0.0
 43
0.0
 43
0.0
 43
0.020833333333
 43
0.0
 43
0.0
 43
0.0
 43
0.0
 43
1.0
 43
0.0
 43
0.0
 43
0.0
 43
0.0
 43
1.0
 77
     0
 47
0.020833333333
 47
0.0
 47
0.0
 47
0.0
 47
0.0
 47
0.020833333333
 47
0.0
 47
0.0
 47
0.0
 47
0.0
 47
1.0
 47
0.0
 47
0.0
 47
0.0
 47
0.0
 47
1.0
171
     0
 49
0.020833333333
 49
0.0
 49
0.0
 49
0.0
 49
0.0
 49
0.020833333333
 49
0.0
 49
0.0
 49
0.0
 49
0.0
 49
1.0
 49
0.0
 49
0.0
 49
0.0
 49
0.0
 49
1.0
175
     0
142
0.020833333333
142
0.0
142
0.0
142
0.0
142
0.0
142
0.020833333333
142
0.0
142
0.0
142
0.0
142
0.0
142
1.0
142
0.0
142
0.0
142
0.0
142
0.0
142
1.0
179
0
144
0.020833333333
144
0.0
144
0.0
144
0.0
144
0.0
144
0.020833333333
144
0.0
144
0.0
144
0.0
144
0.0
144
1.0
144
0.0
144
0.0
144
0.0
144
0.0
144
1.0
147
0.020833333333
147
0.0
147
0.0
147
0.0
147
0.0
147
0.020833333333
147
0.0
147
0.0
147
0.0
147
0.0
147
1.0
147
0.0
147
0.0
147
0.0
147
0.0
147
1.0
  0
MLEADERSTYLE
  5
6F
102
{ACAD_REACTORS
330
6E
102
}
330
6E
100
AcDbMLeaderStyle
170
     2
171
     1
172
     0
 90
     2
 40
0.0
 41
0.0
173
     1
 91
-1056964608
340
63
 92
    -2
290
1
 42
0.09
291
1
 43
0.36
  3
Standard
 44
0.18
300

342
5D
174
     1
178
     6
175
     1
176
     0
 93
-1056964608
 45
0.18
292
0
297
0
 46
0.18
 94
-1056964608
 47
1.0
 49
1.0
140
1.0
293
1
141
0.0
294
1
177
     0
142
1.0
295
0
296
0
143
0.125
1001
ACAD_MLEADERVER
1070
     2
  0
MLINESTYLE
  5
68
102
{ACAD_REACTORS
330
67
102
}
330
67
100
AcDbMlineStyle
  2
STANDARD
 70
     0
  3

 62
   256
 51
90.0
 52
90.0
 71
     2
 49
0.5
 62
   256
  6
BYLAYER
 49
-0.5
 62
   256
  6
BYLAYER
  0
ACDBPLACEHOLDER
  5
F
102
{ACAD_REACTORS
330
E
102
}
330
E
  0
SCALE
  5
3B
102
{ACAD_REACTORS
330
3A
102
}
330
3A
100
AcDbScale
 70
     0
300
1:1
140
1.0
141
1.0
290
1
  0
SCALE
  5
3C
102
{ACAD_REACTORS
330
3A
102
}
330
3A
100
AcDbScale
 70
     0
300
1:2
140
1.0
141
2.0
290
0
  0
SCALE
  5
3D
102
{ACAD_REACTORS
330
3A
102
}
330
3A
100
AcDbScale
 70
     0
300
1:4
140
1.0
141
4.0
290
0
  0
SCALE
  5
3E
102
{ACAD_REACTORS
330
3A
102
}
330
3A
100
AcDbScale
 70
     0
300
1:5
140
1.0
141
5.0
290
0
  0
SCALE
  5
3F
102
{ACAD_REACTORS
330
3A
102
}
330
3A
100
AcDbScale
 70
     0
300
1:8
140
1.0
141
8.0
290
0
  0
SCALE
  5
40
102
{ACAD_REACTORS
330
3A
102
}
330
3A
100
AcDbScale
 70
     0
300
1:10
140
1.0
141
10.0
290
0
  0
SCALE
  5
41
102
{ACAD_REACTORS
330
3A
102
}
330
3A
100
AcDbScale
 70
     0
300
1:16
140
1.0
141
16.0
290
0
  0
SCALE
  5
42
102
{ACAD_REACTORS
330
3A
102
}
330
3A
100
AcDbScale
 70
     0
300
1:20
140
1.0
141
20.0
290
0
  0
SCALE
  5
43
102
{ACAD_REACTORS
330
3A
102
}
330
3A
100
AcDbScale
 70
     0
300
1:30
140
1.0
141
30.0
290
0
  0
SCALE
  5
44
102
{ACAD_REACTORS
330
3A
102
}
330
3A
100
AcDbScale
 70
     0
300
1:40
140
1.0
141
40.0
290
0
  0
SCALE
  5
45
102
{ACAD_REACTORS
330
3A
102
}
330
3A
100
AcDbScale
 70
     0
300
1:50
140
1.0
141
50.0
290
0
  0
SCALE
  5
46
102
{ACAD_REACTORS
330
3A
102
}
330
3A
100
AcDbScale
 70
     0
300
1:100
140
1.0
141
100.0
290
0
  0
SCALE
  5
47
102
{ACAD_REACTORS
330
3A
102
}
330
3A
100
AcDbScale
 70
     0
300
2:1
140
2.0
141
1.0
290
0
  0
SCALE
  5
48
102
{ACAD_REACTORS
330
3A
102
}
330
3A
100
AcDbScale
 70
     0
300
4:1
140
4.0
141
1.0
290
0
  0
SCALE
  5
49
102
{ACAD_REACTORS
330
3A
102
}
330
3A
100
AcDbScale
 70
     0
300
8:1
140
8.0
141
1.0
290
0
  0
SCALE
  5
4A
102
{ACAD_REACTORS
330
3A
102
}
330
3A
100
AcDbScale
 70
     0
300
10:1
140
10.0
141
1.0
290
0
  0
SCALE
  5
4B
102
{ACAD_REACTORS
330
3A
102
}
330
3A
100
AcDbScale
 70
     0
300
100:1
140
100.0
141
1.0
290
0
  0
SCALE
  5
4C
102
{ACAD_REACTORS
330
3A
102
}
330
3A
100
AcDbScale
 70
     0
300
1/128" = 1'-0"
140
0.0078125
141
12.0
290
0
  0
SCALE
  5
4D
102
{ACAD_REACTORS
330
3A
102
}
330
3A
100
AcDbScale
 70
     0
300
1/64" = 1'-0"
140
0.015625
141
12.0
290
0
  0
SCALE
  5
4E
102
{ACAD_REACTORS
330
3A
102
}
330
3A
100
AcDbScale
 70
     0
300
1/32" = 1'-0"
140
0.03125
141
12.0
290
0
  0
SCALE
  5
4F
102
{ACAD_REACTORS
330
3A
102
}
330
3A
100
AcDbScale
 70
     0
300
1/16" = 1'-0"
140
0.0625
141
12.0
290
0
  0
SCALE
  5
50
102
{ACAD_REACTORS
330
3A
102
}
330
3A
100
AcDbScale
 70
     0
300
3/32" = 1'-0"
140
0.09375
141
12.0
290
0
  0
SCALE
  5
51
102
{ACAD_REACTORS
330
3A
102
}
330
3A
100
AcDbScale
 70
     0
300
1/8" = 1'-0"
140
0.125
141
12.0
290
0
  0
SCALE
  5
52
102
{ACAD_REACTORS
330
3A
102
}
330
3A
100
AcDbScale
 70
     0
300
3/16" = 1'-0"
140
0.1875
141
12.0
290
0
  0
SCALE
  5
53
102
{ACAD_REACTORS
330
3A
102
}
330
3A
100
AcDbScale
 70
     0
300
1/4" = 1'-0"
140
0.25
141
12.0
290
0
  0
SCALE
  5
54
102
{ACAD_REACTORS
330
3A
102
}
330
3A
100
AcDbScale
 70
     0
300
3/8" = 1'-0"
140
0.375
141
12.0
290
0
  0
SCALE
  5
55
102
{ACAD_REACTORS
330
3A
102
}
330
3A
100
AcDbScale
 70
     0
300
1/2" = 1'-0"
140
0.5
141
12.0
290
0
  0
SCALE
  5
56
102
{ACAD_REACTORS
330
3A
102
}
330
3A
100
AcDbScale
 70
     0
300
3/4" = 1'-0"
140
0.75
141
12.0
290
0
  0
SCALE
  5
57
102
{ACAD_REACTORS
330
3A
102
}
330
3A
100
AcDbScale
 70
     0
300
1" = 1'-0"
140
1.0
141
12.0
290
0
  0
SCALE
  5
58
102
{ACAD_REACTORS
330
3A
102
}
330
3A
100
AcDbScale
 70
     0
300
1-1/2" = 1'-0"
140
1.5
141
12.0
290
0
  0
SCALE
  5
59
102
{ACAD_REACTORS
330
3A
102
}
330
3A
100
AcDbScale
 70
     0
300
3" = 1'-0"
140
3.0
141
12.0
290
0
  0
SCALE
  5
5A
102
{ACAD_REACTORS
330
3A
102
}
330
3A
100
AcDbScale
 70
     0
300
6" = 1'-0"
140
6.0
141
12.0
290
0
  0
SCALE
  5
5B
102
{ACAD_REACTORS
330
3A
102
}
330
3A
100
AcDbScale
 70
     0
300
1'-0" = 1'-0"
140
12.0
141
12.0
290
0
  0
TABLESTYLE
  5
6D
102
{ACAD_XDICTIONARY
360
A6
102
}
102
{ACAD_REACTORS
330
6C
102
}
330
6C
100
AcDbTableStyle
  3
Standard
 70
     0
 71
     0
 40
1.5
 41
1.5
280
     0
281
     0
  7
Standard
140
4.5
170
     2
 62
     0
 63
     7
283
     0
274
    -2
284
     1
 64
     0
275
    -2
285
     1
 65
     0
276
-2
286
     1
 66
     0
277
-2
287
     1
 67
     0
278
-2
288
     1
 68
     0
279
-2
289
     1
 69
     0
  7
Standard
140
6.0
170
     5
 62
     0
 63
     7
283
     0
274
    -2
284
     1
 64
     0
275
    -2
285
     1
 65
     0
276
-2
286
     1
 66
     0
277
-2
287
     1
 67
     0
278
-2
288
     1
 68
     0
279
-2
289
     1
 69
     0
  7
Standard
140
4.5
170
     5
 62
     0
 63
     7
283
     0
274
    -2
284
     1
 64
     0
275
    -2
285
     1
 65
     0
276
-2
286
     1
 66
     0
277
-2
287
     1
 67
     0
278
-2
288
     1
 68
     0
279
-2
289
     1
 69
     0
  0
VISUALSTYLE
  5
2F
102
{ACAD_REACTORS
330
29
102
}
330
29
100
AcDbVisualStyle
  2
2dWireframe
 70
     4
 71
     0
 72
     2
 73
     0
 90
     0
 40
-0.6
 41
-30.0
 62
     5
 63
     7
 74
     1
 91
     4
 64
     7
 65
   257
 75
     1
175
     1
 42
1.0
 92
     0
 66
   257
 43
1.0
 76
     1
 77
     6
 78
     2
 67
     7
 79
     5
170
     0
171
     0
290
0
174
     0
 93
     1
 44
0.0
173
     0
291
0
 45
0.0
1001
ACAD
1000
AcDbSavedByObjectVersion
1070
     0
  0
VISUALSTYLE
  5
31
102
{ACAD_REACTORS
330
29
102
}
330
29
100
AcDbVisualStyle
  2
3D Hidden
 70
     6
 71
     1
 72
     2
 73
     2
 90
     0
 40
-0.6
 41
-30.0
 62
     5
 63
     7
 74
     2
 91
     2
 64
     7
 65
   257
 75
     2
175
     1
 42
40.0
 92
     0
 66
   257
 43
1.0
 76
     1
 77
     6
 78
     2
 67
     7
 79
     3
170
     0
171
     0
290
0
174
     0
 93
     1
 44
0.0
173
     0
291
0
 45
0.0
1001
ACAD
1000
AcDbSavedByObjectVersion
1070
     0
  0
VISUALSTYLE
  5
30
102
{ACAD_REACTORS
330
29
102
}
330
29
100
AcDbVisualStyle
  2
3dWireframe
 70
     5
 71
     0
 72
     2
 73
     0
 90
     0
 40
-0.6
 41
-30.0
 62
     5
 63
     7
 74
     1
 91
     4
 64
     7
 65
   257
 75
     1
175
     1
 42
1.0
 92
     0
 66
   257
 43
1.0
 76
     1
 77
     6
 78
     2
 67
     7
 79
     5
170
     0
171
     0
290
0
174
     0
 93
     1
 44
0.0
173
     0
291
0
 45
0.0
1001
ACAD
1000
AcDbSavedByObjectVersion
1070
     0
  0
VISUALSTYLE
  5
2E
102
{ACAD_REACTORS
330
29
102
}
330
29
100
AcDbVisualStyle
  2
Basic
 70
     7
 71
     1
 72
     0
 73
     1
 90
     0
 40
-0.6
 41
-30.0
 62
     5
 63
     7
 74
     0
 91
     4
 64
     7
 65
   257
 75
     1
175
     1
 42
1.0
 92
     8
 66
     7
 43
1.0
 76
     1
 77
     6
 78
     2
 67
     7
 79
     5
170
     0
171
     0
290
0
174
     0
 93
     1
 44
0.0
173
     0
291
1
 45
0.0
1001
ACAD
1000
AcDbSavedByObjectVersion
1070
     0
  0
VISUALSTYLE
  5
35
102
{ACAD_REACTORS
330
29
102
}
330
29
100
AcDbVisualStyle
  2
Brighten
 70
    12
 71
     2
 72
     2
 73
     0
 90
     0
 40
-0.6
 41
-30.0
 62
     5
 63
     7
 74
     1
 91
     4
 64
     7
 65
   257
 75
     1
175
     1
 42
1.0
 92
     8
 66
     7
 43
1.0
 76
     1
 77
     6
 78
     2
 67
     7
 79
     5
170
     0
171
     0
290
0
174
     0
 93
     1
 44
50.0
173
     0
291
1
 45
0.0
1001
ACAD
1000
AcDbSavedByObjectVersion
1070
     0
  0
VISUALSTYLE
  5
39
102
{ACAD_REACTORS
330
29
102
}
330
29
100
AcDbVisualStyle
  2
ColorChange
 70
    16
 71
     2
 72
     2
 73
     3
 90
     0
 40
-0.6
 41
-30.0
 62
     5
 63
     8
 74
     1
 91
     4
 64
     7
 65
   257
 75
     1
175
     1
 42
1.0
 92
     8
 66
     8
 43
1.0
 76
     1
 77
     6
 78
     2
 67
     7
 79
     5
170
     0
171
     0
290
0
174
     0
 93
     1
 44
0.0
173
     0
291
1
 45
0.0
1001
ACAD
1000
AcDbSavedByObjectVersion
1070
     0
  0
VISUALSTYLE
  5
32
102
{ACAD_REACTORS
330
29
102
}
330
29
100
AcDbVisualStyle
  2
Conceptual
 70
     9
 71
     3
 72
     2
 73
     0
 90
     0
 40
-0.6
 41
-30.0
 62
     5
 63
     7
 74
     2
 91
     2
 64
     7
 65
   257
 75
     1
175
     1
 42
40.0
 92
     8
 66
     7
 43
1.0
 76
     1
 77
     6
 78
     2
 67
     7
 79
     3
170
     0
171
     0
290
0
174
     0
 93
     1
 44
0.0
173
     0
291
0
 45
0.0
1001
ACAD
1000
AcDbSavedByObjectVersion
1070
     0
  0
VISUALSTYLE
  5
34
102
{ACAD_REACTORS
330
29
102
}
330
29
100
AcDbVisualStyle
  2
Dim
 70
    11
 71
     2
 72
     2
 73
     0
 90
     0
 40
-0.6
 41
-30.0
 62
     5
 63
     7
 74
     1
 91
     4
 64
     7
 65
   257
 75
     1
175
     1
 42
1.0
 92
     8
 66
     7
 43
1.0
 76
     1
 77
     6
 78
     2
 67
     7
 79
     5
170
     0
171
     0
290
0
174
     0
 93
     1
 44
-50.0
173
     0
291
1
 45
0.0
1001
ACAD
1000
AcDbSavedByObjectVersion
1070
     0
  0
VISUALSTYLE
  5
38
102
{ACAD_REACTORS
330
29
102
}
330
29
100
AcDbVisualStyle
  2
Facepattern
 70
    15
 71
     2
 72
     2
 73
     0
 90
     0
 40
-0.6
 41
-30.0
 62
     5
 63
     7
 74
     1
 91
     4
 64
     7
 65
   257
 75
     1
175
     1
 42
1.0
 92
     8
 66
     7
 43
1.0
 76
     1
 77
     6
 78
     2
 67
     7
 79
     5
170
     0
171
     0
290
0
174
     0
 93
     1
 44
0.0
173
     0
291
1
 45
0.0
1001
ACAD
1000
AcDbSavedByObjectVersion
1070
     0
  0
VISUALSTYLE
  5
2A
102
{ACAD_REACTORS
330
29
102
}
330
29
100
AcDbVisualStyle
  2
Flat
 70
     0
 71
     2
 72
     1
 73
     1
 90
     2
 40
-0.6
 41
30.0
 62
     5
 63
     7
 74
     0
 91
     4
 64
     7
 65
   257
 75
     1
175
     1
 42
1.0
 92
     8
 66
     7
 43
1.0
 76
     1
 77
     6
 78
     2
 67
     7
 79
     5
170
     0
171
     0
290
0
174
     0
 93
    13
 44
0.0
173
     0
291
1
 45
0.0
1001
ACAD
1000
AcDbSavedByObjectVersion
1070
     0
  0
VISUALSTYLE
  5
2B
102
{ACAD_REACTORS
330
29
102
}
330
29
100
AcDbVisualStyle
  2
FlatWithEdges
 70
     1
 71
     2
 72
     1
 73
     1
 90
     2
 40
-0.6
 41
30.0
 62
     5
 63
     7
 74
     1
 91
     4
 64
     7
 65
   257
 75
     1
175
     1
 42
1.0
 92
     0
 66
   257
 43
1.0
 76
     1
 77
     6
 78
     2
 67
     7
 79
     5
170
     0
171
     0
290
0
174
     0
 93
    13
 44
0.0
173
     0
291
1
 45
0.0
1001
ACAD
1000
AcDbSavedByObjectVersion
1070
     0
  0
VISUALSTYLE
  5
2C
102
{ACAD_REACTORS
330
29
102
}
330
29
100
AcDbVisualStyle
  2
Gouraud
 70
     2
 71
     2
 72
     2
 73
     1
 90
     2
 40
-0.6
 41
30.0
 62
     5
 63
     7
 74
     0
 91
     4
 64
     7
 65
   257
 75
     1
175
     1
 42
1.0
 92
     0
 66
     7
 43
1.0
 76
     1
 77
     6
 78
     2
 67
     7
 79
     5
170
     0
171
     0
290
0
174
     0
 93
    13
 44
0.0
173
     0
291
1
 45
0.0
1001
ACAD
1000
AcDbSavedByObjectVersion
1070
     0
  0
VISUALSTYLE
  5
2D
102
{ACAD_REACTORS
330
29
102
}
330
29
100
AcDbVisualStyle
  2
GouraudWithEdges
 70
     3
 71
     2
 72
     2
 73
     1
 90
     2
 40
-0.6
 41
30.0
 62
     5
 63
     7
 74
     1
 91
     4
 64
     7
 65
   257
 75
     1
175
     1
 42
1.0
 92
     0
 66
   257
 43
1.0
 76
     1
 77
     6
 78
     2
 67
     7
 79
     5
170
     0
171
     0
290
0
174
     0
 93
    13
 44
0.0
173
     0
291
1
 45
0.0
1001
ACAD
1000
AcDbSavedByObjectVersion
1070
     0
  0
VISUALSTYLE
  5
37
102
{ACAD_REACTORS
330
29
102
}
330
29
100
AcDbVisualStyle
  2
Linepattern
 70
    14
 71
     2
 72
     2
 73
     0
 90
     0
 40
-0.6
 41
-30.0
 62
     5
 63
     7
 74
     1
 91
     4
 64
     7
 65
   257
 75
     7
175
     7
 42
1.0
 92
     8
 66
     7
 43
1.0
 76
     1
 77
     6
 78
     2
 67
     7
 79
     5
170
     0
171
     0
290
0
174
     0
 93
     1
 44
0.0
173
     0
291
1
 45
0.0
1001
ACAD
1000
AcDbSavedByObjectVersion
1070
     0
  0
VISUALSTYLE
  5
33
102
{ACAD_REACTORS
330
29
102
}
330
29
100
AcDbVisualStyle
  2
Realistic
 70
     8
 71
     2
 72
     2
 73
     0
 90
     0
 40
-0.6
 41
-30.0
 62
     5
 63
     7
 74
     1
 91
     0
 64
     7
 65
   257
 75
     1
175
     1
 42
1.0
 92
     8
 66
     8
 43
1.0
 76
     1
 77
     6
 78
     2
 67
     7
 79
     5
170
     0
171
     0
290
0
174
     0
 93
    13
 44
0.0
173
     0
291
0
 45
0.0
1001
ACAD
1000
AcDbSavedByObjectVersion
1070
     0
  0
VISUALSTYLE
  5
36
102
{ACAD_REACTORS
330
29
102
}
330
29
100
AcDbVisualStyle
  2
Thicken
 70
    13
 71
     2
 72
     2
 73
     0
 90
     0
 40
-0.6
 41
-30.0
 62
     5
 63
     7
 74
     1
 91
     4
 64
     7
 65
   257
 75
     1
175
     1
 42
1.0
 92
    12
 66
     7
 43
1.0
 76
     1
 77
     6
 78
     2
 67
     7
 79
     5
170
     0
171
     0
290
0
174
     0
 93
     1
 44
0.0
173
     0
291
1
 45
0.0
1001
ACAD
1000
AcDbSavedByObjectVersion
1070
     0
  0
DICTIONARYVAR
  5
A0
102
{ACAD_REACTORS
330
9C
102
}
330
9C
100
DictionaryVariables
280
     0
  1
1:1
  0
DICTIONARYVAR
  5
9E
102
{ACAD_REACTORS
330
9C
102
}
330
9C
100
DictionaryVariables
280
     0
  1
STANDARD
  0
DICTIONARYVAR
  5
9D
102
{ACAD_REACTORS
330
9C
102
}
330
9C
100
DictionaryVariables
280
     0
  1
STANDARD
  0
DICTIONARYVAR
  5
A5
102
{ACAD_REACTORS
330
9C
102
}
330
9C
100
DictionaryVariables
280
     0
  1
2
  0
DICTIONARYVAR
  5
A4
102
{ACAD_REACTORS
330
9C
102
}
330
9C
100
DictionaryVariables
280
     0
  1
1
  0
DICTIONARYVAR
  5
A3
102
{ACAD_REACTORS
330
9C
102
}
330
9C
100
DictionaryVariables
280
     0
  1
0
  0
DICTIONARYVAR
  5
A1
102
{ACAD_REACTORS
330
9C
102
}
330
9C
100
DictionaryVariables
280
     0
  1
2
  0
DICTIONARYVAR
  5
9F
102
{ACAD_REACTORS
330
9C
102
}
330
9C
100
DictionaryVariables
280
     0
  1
1
  0
DICTIONARYVAR
  5
A2
102
{ACAD_REACTORS
330
9C
102
}
330
9C
100
DictionaryVariables
280
     0
  1
127
  0
DICTIONARY
  5
B1
330
74
100
AcDbDictionary
280
     1
281
     1
  3
ACAD_XREC_ROUNDTRIP
360
B2
  0
DICTIONARY
  5
B5
330
7C
100
AcDbDictionary
280
     1
281
     1
  3
ACAD_XREC_ROUNDTRIP
360
B6
  0
DICTIONARY
  5
B3
330
78
100
AcDbDictionary
280
     1
281
     1
  3
ACAD_XREC_ROUNDTRIP
360
B4
  0
DICTIONARY
  5
1A
330
19
100
AcDbDictionary
280
     1
281
     1
  3
ACAD_XREC_ROUNDTRIP
360
AD
  3
BUMPTILE
360
1C
  3
DIFFUSETILE
360
1B
  3
OPACITYTILE
360
1F
  3
REFLECTIONTILE
360
1E
  3
REFRACTIONTILE
360
20
  3
SPECULARTILE
360
1D
  0
DICTIONARY
  5
12
330
11
100
AcDbDictionary
280
     1
281
     1
  3
ACAD_XREC_ROUNDTRIP
360
AC
  3
BUMPTILE
360
14
  3
DIFFUSETILE
360
13
  3
OPACITYTILE
360
17
  3
REFLECTIONTILE
360
16
  3
REFRACTIONTILE
360
18
  3
SPECULARTILE
360
15
  0
DICTIONARY
  5
22
330
21
100
AcDbDictionary
280
     1
281
     1
  3
ACAD_XREC_ROUNDTRIP
360
AE
  3
BUMPTILE
360
24
  3
DIFFUSETILE
360
23
  3
OPACITYTILE
360
27
  3
REFLECTIONTILE
360
26
  3
REFRACTIONTILE
360
28
  3
SPECULARTILE
360
25
  0
DICTIONARY
  5
A6
330
6D
100
AcDbDictionary
280
     1
281
     1
  3
ACAD_ROUNDTRIP_2008_TABLESTYLE_CELLSTYLEMAP
360
A7
  3
ACAD_XREC_ROUNDTRIP
360
B0
  0
XRECORD
  5
B2
102
{ACAD_REACTORS
330
B1
102
}
330
B1
100
AcDbXrecord
280
     1
102
SHADEPLOT
 70
     0
102
SHADEPLOTRESLEVEL
 70
     2
102
SHADEPLOTCUSTOMDPI
 70
   300
  0
XRECORD
  5
B6
102
{ACAD_REACTORS
330
B5
102
}
330
B5
100
AcDbXrecord
280
     1
102
SHADEPLOT
 70
     0
102
SHADEPLOTRESLEVEL
 70
     2
102
SHADEPLOTCUSTOMDPI
 70
   300
  0
XRECORD
  5
B4
102
{ACAD_REACTORS
330
B3
102
}
330
B3
100
AcDbXrecord
280
     1
102
SHADEPLOT
 70
     0
102
SHADEPLOTRESLEVEL
 70
     2
102
SHADEPLOTCUSTOMDPI
 70
   300
  0
XRECORD
  5
AD
102
{ACAD_REACTORS
330
1A
102
}
330
1A
100
AcDbXrecord
280
     1
102
MATERIAL
148
0.0
149
0.0
149
0.0
 93
     0
 94
   127
282
     0
 72
     0
 77
     0
171
     0
175
     0
179
0
273
     0
  0
XRECORD
  5
1C
102
{ACAD_REACTORS
330
1A
102
}
330
1A
100
AcDbXrecord
280
     1
270
     1
271
     1
  0
XRECORD
  5
1B
102
{ACAD_REACTORS
330
1A
102
}
330
1A
100
AcDbXrecord
280
     1
270
     1
271
     1
  0
XRECORD
  5
1F
102
{ACAD_REACTORS
330
1A
102
}
330
1A
100
AcDbXrecord
280
     1
270
     1
271
     1
  0
XRECORD
  5
1E
102
{ACAD_REACTORS
330
1A
102
}
330
1A
100
AcDbXrecord
280
     1
270
     1
271
     1
  0
XRECORD
  5
20
102
{ACAD_REACTORS
330
1A
102
}
330
1A
100
AcDbXrecord
280
     1
270
     1
271
     1
  0
XRECORD
  5
1D
102
{ACAD_REACTORS
330
1A
102
}
330
1A
100
AcDbXrecord
280
     1
270
     1
271
     1
  0
XRECORD
  5
AC
102
{ACAD_REACTORS
330
12
102
}
330
12
100
AcDbXrecord
280
     1
102
MATERIAL
148
0.0
149
0.0
149
0.0
 93
     0
 94
   127
282
     0
 72
     0
 77
     0
171
     0
175
     0
179
0
273
     0
  0
XRECORD
  5
14
102
{ACAD_REACTORS
330
12
102
}
330
12
100
AcDbXrecord
280
     1
270
     1
271
     1
  0
XRECORD
  5
13
102
{ACAD_REACTORS
330
12
102
}
330
12
100
AcDbXrecord
280
     1
270
     1
271
     1
  0
XRECORD
  5
17
102
{ACAD_REACTORS
330
12
102
}
330
12
100
AcDbXrecord
280
     1
270
     1
271
     1
  0
XRECORD
  5
16
102
{ACAD_REACTORS
330
12
102
}
330
12
100
AcDbXrecord
280
     1
270
     1
271
     1
  0
XRECORD
  5
18
102
{ACAD_REACTORS
330
12
102
}
330
12
100
AcDbXrecord
280
     1
270
     1
271
     1
  0
XRECORD
  5
15
102
{ACAD_REACTORS
330
12
102
}
330
12
100
AcDbXrecord
280
     1
270
     1
271
     1
  0
XRECORD
  5
AE
102
{ACAD_REACTORS
330
22
102
}
330
22
100
AcDbXrecord
280
     1
102
MATERIAL
148
0.0
149
0.0
149
0.0
 93
     0
 94
   127
282
     0
 72
     0
 77
     0
171
     0
175
     0
179
0
273
     0
  0
XRECORD
  5
24
102
{ACAD_REACTORS
330
22
102
}
330
22
100
AcDbXrecord
280
     1
270
     1
271
     1
  0
XRECORD
  5
23
102
{ACAD_REACTORS
330
22
102
}
330
22
100
AcDbXrecord
280
     1
270
     1
271
     1
  0
XRECORD
  5
27
102
{ACAD_REACTORS
330
22
102
}
330
22
100
AcDbXrecord
280
     1
270
     1
271
     1
  0
XRECORD
  5
26
102
{ACAD_REACTORS
330
22
102
}
330
22
100
AcDbXrecord
280
     1
270
     1
271
     1
  0
XRECORD
  5
28
102
{ACAD_REACTORS
330
22
102
}
330
22
100
AcDbXrecord
280
     1
270
     1
271
     1
  0
XRECORD
  5
25
102
{ACAD_REACTORS
330
22
102
}
330
22
100
AcDbXrecord
280
     1
270
     1
271
     1
  0
CELLSTYLEMAP
  5
A7
102
{ACAD_REACTORS
330
A6
102
}
330
A6
100
AcDbCellStyleMap
 90
     3
300
CELLSTYLE
  1
TABLEFORMAT_BEGIN
 90
     5
170
     1
 91
     0
 92
 32768
 62
   257
 93
     1
300
CONTENTFORMAT
  1
CONTENTFORMAT_BEGIN
 90
     0
 91
     0
 92
   512
 93
     0
300

 40
0.0
140
1.0
 94
     5
 62
     0
340
5D
144
6.0
309
CONTENTFORMAT_END
171
     1
301
MARGIN
  1
CELLMARGIN_BEGIN
 40
1.5
 40
1.5
 40
1.5
 40
1.5
 40
4.5
 40
4.5
309
CELLMARGIN_END
 94
     6
 95
     1
302
GRIDFORMAT
  1
GRIDFORMAT_BEGIN
 90
     0
 91
     1
 62
     0
 92
    -2
340
0
 93
     0
 40
1.125
309
GRIDFORMAT_END
 95
     2
302
GRIDFORMAT
  1
GRIDFORMAT_BEGIN
 90
     0
 91
     1
 62
     0
 92
    -2
340
0
 93
     0
 40
1.125
309
GRIDFORMAT_END
 95
     4
302
GRIDFORMAT
  1
GRIDFORMAT_BEGIN
 90
     0
 91
     1
 62
     0
 92
    -2
340
0
 93
     0
 40
1.125
309
GRIDFORMAT_END
 95
     8
302
GRIDFORMAT
  1
GRIDFORMAT_BEGIN
 90
     0
 91
     1
 62
     0
 92
    -2
340
0
 93
     0
 40
1.125
309
GRIDFORMAT_END
 95
    16
302
GRIDFORMAT
  1
GRIDFORMAT_BEGIN
 90
     0
 91
     1
 62
     0
 92
    -2
340
0
 93
     0
 40
1.125
309
GRIDFORMAT_END
 95
    32
302
GRIDFORMAT
  1
GRIDFORMAT_BEGIN
 90
     0
 91
     1
 62
     0
 92
    -2
340
0
 93
     0
 40
1.125
309
GRIDFORMAT_END
309
TABLEFORMAT_END
  1
CELLSTYLE_BEGIN
 90
     1
 91
     1
300
_TITLE
309
CELLSTYLE_END
300
CELLSTYLE
  1
TABLEFORMAT_BEGIN
 90
     5
170
     1
 91
     0
 92
     0
 62
   257
 93
     1
300
CONTENTFORMAT
  1
CONTENTFORMAT_BEGIN
 90
     0
 91
     0
 92
   512
 93
     0
300

 40
0.0
140
1.0
 94
     5
 62
     0
340
5D
144
4.5
309
CONTENTFORMAT_END
171
     1
301
MARGIN
  1
CELLMARGIN_BEGIN
 40
1.5
 40
1.5
 40
1.5
 40
1.5
 40
4.5
 40
4.5
309
CELLMARGIN_END
 94
     6
 95
     1
302
GRIDFORMAT
  1
GRIDFORMAT_BEGIN
 90
     0
 91
     1
 62
     0
 92
    -2
340
0
 93
     0
 40
1.125
309
GRIDFORMAT_END
 95
     2
302
GRIDFORMAT
  1
GRIDFORMAT_BEGIN
 90
     0
 91
     1
 62
     0
 92
    -2
340
0
 93
     0
 40
1.125
309
GRIDFORMAT_END
 95
     4
302
GRIDFORMAT
  1
GRIDFORMAT_BEGIN
 90
     0
 91
     1
 62
     0
 92
    -2
340
0
 93
     0
 40
1.125
309
GRIDFORMAT_END
 95
     8
302
GRIDFORMAT
  1
GRIDFORMAT_BEGIN
 90
     0
 91
     1
 62
     0
 92
    -2
340
0
 93
     0
 40
1.125
309
GRIDFORMAT_END
 95
    16
302
GRIDFORMAT
  1
GRIDFORMAT_BEGIN
 90
     0
 91
     1
 62
     0
 92
    -2
340
0
 93
     0
 40
1.125
309
GRIDFORMAT_END
 95
    32
302
GRIDFORMAT
  1
GRIDFORMAT_BEGIN
 90
     0
 91
     1
 62
     0
 92
    -2
340
0
 93
     0
 40
1.125
309
GRIDFORMAT_END
309
TABLEFORMAT_END
  1
CELLSTYLE_BEGIN
 90
     2
 91
     1
300
_HEADER
309
CELLSTYLE_END
300
CELLSTYLE
  1
TABLEFORMAT_BEGIN
 90
     5
170
     1
 91
     0
 92
     0
 62
   257
 93
     1
300
CONTENTFORMAT
  1
CONTENTFORMAT_BEGIN
 90
     0
 91
     0
 92
   512
 93
     0
300

 40
0.0
140
1.0
 94
     2
 62
     0
340
5D
144
4.5
309
CONTENTFORMAT_END
171
     1
301
MARGIN
  1
CELLMARGIN_BEGIN
 40
1.5
 40
1.5
 40
1.5
 40
1.5
 40
4.5
 40
4.5
309
CELLMARGIN_END
 94
     6
 95
     1
302
GRIDFORMAT
  1
GRIDFORMAT_BEGIN
 90
     0
 91
     1
 62
     0
 92
    -2
340
0
 93
     0
 40
1.125
309
GRIDFORMAT_END
 95
     2
302
GRIDFORMAT
  1
GRIDFORMAT_BEGIN
 90
     0
 91
     1
 62
     0
 92
    -2
340
0
 93
     0
 40
1.125
309
GRIDFORMAT_END
 95
     4
302
GRIDFORMAT
  1
GRIDFORMAT_BEGIN
 90
     0
 91
     1
 62
     0
 92
    -2
340
0
 93
     0
 40
1.125
309
GRIDFORMAT_END
 95
     8
302
GRIDFORMAT
  1
GRIDFORMAT_BEGIN
 90
     0
 91
     1
 62
     0
 92
    -2
340
0
 93
     0
 40
1.125
309
GRIDFORMAT_END
 95
    16
302
GRIDFORMAT
  1
GRIDFORMAT_BEGIN
 90
     0
 91
     1
 62
     0
 92
    -2
340
0
 93
     0
 40
1.125
309
GRIDFORMAT_END
 95
    32
302
GRIDFORMAT
  1
GRIDFORMAT_BEGIN
 90
     0
 91
     1
 62
     0
 92
    -2
340
0
 93
     0
 40
1.125
309
GRIDFORMAT_END
309
TABLEFORMAT_END
  1
CELLSTYLE_BEGIN
 90
     3
 91
     2
300
_DATA
309
CELLSTYLE_END
  0
XRECORD
  5
B0
102
{ACAD_REACTORS
330
A6
102
}
330
A6
100
AcDbXrecord
280
     1
102
ACAD_ROUNDTRIP_PRE2007_TABLESTYLE
 90
   512
 91
     0
  1

 92
   512
 93
     0
  2

 94
   512
 95
     0
  3

  0
ENDSEC
  0
EOF
